<svg xmlns="http://www.w3.org/2000/svg" width="257" height="257" fill-rule="evenodd" clip-rule="evenodd" image-rendering="optimizeQuality" shape-rendering="geometricPrecision" text-rendering="geometricPrecision" viewBox="0 0 257 257">
  <path fill="#5d5d5d" d="M103.153 61.487q6.95.846 0 1.253a139 139 0 0 1-13.053.503q6.639-.825 13.053-1.756" opacity=".004"/>
  <path fill="#5c5c5c" d="M173.925 64.496q1.456-.91 3.009.246-1.542.364-3.009-.246" opacity=".008"/>
  <path fill="#8f8f8f" d="M159.875 65h5.022v1.51q-4.455.386-9.038-.246a75 75 0 0 1 4.016-1.253" opacity=".027"/>
  <path fill="#565656" d="M188.488 67.013q1.478-.974 2.506.75-1.339.096-2.506-.75" opacity=".004"/>
  <path fill="#bfbfbf" d="M155.357 68.512q-2.859.739-6.029.503.182-2.099 1.51-.75 2.249.375 4.519.246" opacity=".137"/>
  <path fill="#959595" d="M116.699 81.062a60 60 0 0 1-6.275-8.535 21.4 21.4 0 0 0-2.763-2.506 268 268 0 0 0-23.087-.503q-.032-.942.75-1.51 6.189 1.553 12.55.503 5.129.525 10.291.75a12.9 12.9 0 0 1 3.266 2.763 47 47 0 0 1 5.269 9.038" opacity=".461"/>
  <path fill="#969696" d="M180.949 83.075a67.5 67.5 0 0 1-14.06-13.557q-3.619-.739-7.528-.503 3.02-.568 6.275-1.007a14 14 0 0 1 2.259 1.007q2.495 3.373 5.269 6.521a53.5 53.5 0 0 1 7.785 7.528" opacity=".004"/>
  <path fill="#6d6e6d" d="M83.579 71.028q-.707 2.163-2.506 3.512.707-2.163 2.506-3.512" opacity=".145"/>
  <path fill="gray" d="M144.316 75.044q-.439 1.692-2.013 2.506.439-1.692 2.013-2.506" opacity=".784"/>
  <path fill="#3c3b3b" d="M155.357 68.512a12.9 12.9 0 0 0 4.016.503q3.909-.246 7.528.503a1.18 1.18 0 0 0-1.007.246q5.097 6.853 11.801 12.293.375 5.515.246 11.04 3.159.236 6.029-.503v-.502a10.7 10.7 0 0 0 3.512.503v1.51a5.4 5.4 0 0 0-1.51 1.253 161 161 0 0 0-8.535 2.763Q174 94.116 176.43 89.34a64 64 0 0 0-1.007-5.772 289 289 0 0 0-10.044-10.291 70.7 70.7 0 0 0-14.553.246 96 96 0 0 1-4.519 6.029q-.632.857-1.007 2.013a53.5 53.5 0 0 0 13.053 1.007 54 54 0 0 1-.246 7.025l-.503.503q-.129-3.148-.75-6.029h-.503q-6.393-.75-13.053-.503a64 64 0 0 1 .75-6.521 32 32 0 0 0 2.259-1.007 24.6 24.6 0 0 1 2.506-5.269q1.349-.974 2.506-.75-1.167-.717-2.506-.503 0-.503.503-.503 3.159.236 6.029-.503"/>
  <path fill="#191918" d="M166.9 69.519a67.5 67.5 0 0 0 14.06 13.557q.91.321 1.51 1.007-1.007 1.007 0 2.013 0 .503-.503.503-.739 2.859-.503 6.029h2.506q-2.859.739-6.029.503.129-5.526-.246-11.04-6.703-5.44-11.801-12.293a1.18 1.18 0 0 1 1.007-.246"/>
  <path fill="#242424" d="M76.543 90.1q-.717.493-1.756.503-1.253-.129-2.013-1.007-.171.932-.75 1.51 1.36-6.489 5.526-11.544a13 13 0 0 0 2.506-2.506 10.7 10.7 0 0 1 1.007 1.756q-.825 3.084-2.506 6.275-1.424-.15-2.259 1.007-.032 2.131-1.253 3.769a2.46 2.46 0 0 0 1.51.246"/>
  <path fill="#1c1c1b" d="M107.672 70.022a21.4 21.4 0 0 1 2.763 2.506 60 60 0 0 0 6.275 8.535 12.9 12.9 0 0 1 2.506 4.016q.171 1.671-1.253 2.506a14 14 0 0 0-.75-3.266q-1.874.064-3.512-.246l-5.526-8.031.246-.503a10.7 10.7 0 0 0 2.013 2.506l.246-1.253a53.5 53.5 0 0 0-4.016-6.521 1.18 1.18 0 0 1 1.007-.246"/>
  <path fill="#0e0e0d" d="M187.482 94.116q.503 0 .503.503-.096 1.349.503 2.506l-5.022 1.007a19.3 19.3 0 0 0-6.521 1.756 32 32 0 0 0-3.266 5.772q-5.932 5.815-13.3 9.541h-2.013v-3.009q.889.161 1.51-.503-1.157-.835-1.51-2.259.118-6.072 0-12.293h1.51q.129-.996-.503-1.756 1.435-.621.503-1.756a2.1 2.1 0 0 0-.75.503 25.7 25.7 0 0 1-.246-5.022q3.009-.503 0-1.007V82.07a204 204 0 0 1-12.55-1.007v-1.51a96 96 0 0 0 4.519-6.029 70.7 70.7 0 0 1 14.553-.246 289 289 0 0 1 10.044 10.291 64 64 0 0 1 1.007 5.772q-2.431 4.776 1.007 8.781a161 161 0 0 1 8.535-2.763 5.4 5.4 0 0 1 1.51-1.253"/>
  <path fill="#1e1e1e" d="M148.824 69.519q1.349-.214 2.506.503-1.167-.225-2.506.75a24.6 24.6 0 0 0-2.506 5.269 32 32 0 0 1-2.259 1.007 64 64 0 0 0-.75 6.521q6.661-.246 13.053.503a92 92 0 0 0-13.557.503 4.6 4.6 0 0 1 .503 2.506q-.792-.825-1.253-2.013a21.4 21.4 0 0 1 .246-7.528q1.574-.814 2.013-2.506a36.4 36.4 0 0 1 4.519-5.526"/>
  <path fill="#0a0a0a" d="M156.363 84.082h.503q.236 3.416-.503 6.521a75 75 0 0 0-8.535.246 5.4 5.4 0 0 1-1.51 1.253 23.6 23.6 0 0 1-3.009-5.022 4.6 4.6 0 0 0-.503-2.506 92 92 0 0 1 13.557-.503"/>
  <path fill="#909595" d="M182.459 84.082q.642.857 0 2.013-1.007-1.007 0-2.013" opacity=".373"/>
  <path fill="#f8f8f8" d="M142.303 77.55a21.4 21.4 0 0 0-.246 7.528q.46 1.178 1.253 2.013a23.6 23.6 0 0 0 3.009 5.022 5.4 5.4 0 0 0 1.51-1.253 75 75 0 0 1 8.535-.246v.503q-.129 13.3.246 26.6.75-.428 1.253-1.007 1.403-.578 2.506-1.51 7.367-3.727 13.3-9.541a32 32 0 0 1 3.266-5.772 19.3 19.3 0 0 1 6.521-1.756q2.838-.193 5.526.503.985 1.96-.246 4.016a93.2 93.2 0 0 1-20.828 15.313 610 610 0 0 1-64.25 27.36 204 204 0 0 0-18.568 7.528h-.503a1.18 1.18 0 0 1-1.007-.246q.418-1.264 1.51-2.013.043-5.29-.246-10.794a43 43 0 0 0-1.253-4.519q1.542-.76.503-2.013 2.324-5.611 1.007-11.04l1.51-1.51v27.103q.974.182 1.51-.503 1.36-.054 2.013-1.253a707 707 0 0 1 14.06-32.628q5.879-.771 11.544.75a225 225 0 0 1 10.291 17.572q1.124.921 2.259 0 1.403-.578 2.506-1.51a64 64 0 0 1 9.038-4.016q.503-4.883.503-10.044 0-5.301-1.007-10.044a1060 1060 0 0 0 2.259-28.109q.289-.418.75-.503" opacity=".996"/>
  <path fill="#0d0d0d" d="m136.285 109.171 3.009-2.506a193 193 0 0 1 .503 19.575 64 64 0 0 0-9.038 4.016q-.932-.171-1.51-1.007a621 621 0 0 1-8.535-17.572l1.51-1.007q-.867-.932-1.756 0a13 13 0 0 0-2.259-2.013l-.503-2.013a4.3 4.3 0 0 1-1.253 1.007q-3.063-.236-5.772-1.51a4.3 4.3 0 0 1-1.253 1.007 107 107 0 0 1-3.512-1.51q-1.36.696.246 1.253a9.6 9.6 0 0 1-3.009.246q-.503-3.009-1.007 0-2.067.021-3.512 1.51-3.191-1.949-1.007 1.253-1.028 1.446-1.253 3.266-1.071.075-2.259.503l1.51 1.007a203.5 203.5 0 0 1-8.278 24.597 171 171 0 0 0-.75-13.053v-3.009q.75-6.885.503-14.06a428 428 0 0 0 1.007-11.04q.739-2.859.503-6.029H71.542l.503-1.007q.578-.578.75-1.51.76.867 2.013 1.007 1.039-.011 1.756-.503 6.778.129 13.557-.246-1.906-.996 0-1.756l-.503-.503q-5.129.535-10.537.503.835-2.666 2.506-5.022.621-.664 1.51-.503.3-4.829 4.016-8.031a3.64 3.64 0 0 1 1.253 1.007q1.521-1.135-.246-2.013a49.3 49.3 0 0 1 14.06 0q1.874 1.049 0 2.259l.503.75q1.542-2.045 2.506.246a2.14 2.14 0 0 0-1.007.75q.921.45 2.013.246a17.1 17.1 0 0 0 3.266 3.769 311 311 0 0 0 10.044 13.557 6.4 6.4 0 0 1 .246 2.506q.996-.129 1.756.503 2.067 2.87 4.519 5.526.364.717.246 1.51a32 32 0 0 1 3.512.75 35.3 35.3 0 0 0 6.029 6.275l.503-.503-1.007-1.007q.835-.578 1.007-1.51"/>
  <path fill="#8a8a8a" d="M192 86.084q2.87.942 0 1.51z" opacity=".004"/>
  <path fill="#848484" d="M183.466 89.597q.771.3.246 1.007a1.18 1.18 0 0 1-.246-1.007" opacity=".008"/>
  <path fill="#858585" d="M181.956 86.588v5.526h2.013v.503h-2.506q-.236-3.159.503-6.029" opacity=".928"/>
  <path d="M183.969 91.106q1.007.503 0 0" opacity=".004"/>
  <path fill="#555" d="M71.532 92.113h17.069q.236 3.159-.503 6.029V93.12z" opacity=".408"/>
  <path fill="#585858" d="M129.25 91.61q.578.503 1.007 1.253-1.178.139-1.007-1.253" opacity=".008"/>
  <path fill="#2a2929" d="M113.69 84.082q1.638.311 3.512.246a14 14 0 0 1 .75 3.266q1.424-.846 1.253-2.506a38.6 38.6 0 0 1 6.029 8.535 38.6 38.6 0 0 0 4.519 7.025 32 32 0 0 1 3.009 4.519 2.46 2.46 0 0 1-.246 1.51 53.5 53.5 0 0 0-4.519-5.526 2.14 2.14 0 0 1-.75 1.007q-.91-.578 0-1.253-.792-.375-1.51.246a1092 1092 0 0 0-12.047-17.069"/>
  <path fill="#8a8a8a" d="M188.981 94.116q.3-.771 1.007-.246a1.18 1.18 0 0 1-1.007.246" opacity=".016"/>
  <path fill="#353535" d="M84.574 69.519q11.672-.246 23.087.503a1.18 1.18 0 0 0-1.007.246 53.5 53.5 0 0 1 4.016 6.521l-.246 1.253a10.7 10.7 0 0 1-2.013-2.506l-.246.503 5.526 8.031a1092 1092 0 0 1 12.047 17.069q.717-.621 1.51-.246-.91.675 0 1.253a2.14 2.14 0 0 0 .75-1.007 53.5 53.5 0 0 1 4.519 5.526 2.46 2.46 0 0 0 .246-1.51q1.488 1.456 2.259 3.512.503.568 1.253.503-.171.932-1.007 1.51l1.007 1.007-.503.503a35.3 35.3 0 0 1-6.029-6.275 32 32 0 0 0-3.512-.75 2.46 2.46 0 0 0-.246-1.51 64 64 0 0 1-4.519-5.526q-.76-.632-1.756-.503a6.4 6.4 0 0 0-.246-2.506 311 311 0 0 1-10.044-13.557 17.1 17.1 0 0 1-3.266-3.769q-1.092.193-2.013-.246a2.14 2.14 0 0 1 1.007-.75q-.964-2.292-2.506-.246l-.503-.75q1.874-1.21 0-2.259a49.3 49.3 0 0 0-14.06 0q1.778.867.246 2.013a3.64 3.64 0 0 0-1.253-1.007q-3.716 3.202-4.016 8.031-.889-.161-1.51.503-1.681 2.345-2.506 5.022 5.408.043 10.537-.503l.503.503q-1.906.771 0 1.756-6.768.375-13.557.246a2.46 2.46 0 0 1-1.51-.246q1.221-1.628 1.253-3.769.835-1.157 2.259-1.007 1.681-3.191 2.506-6.275a10.7 10.7 0 0 0-1.007-1.756 13 13 0 0 1-2.506 2.506q1.178-2.934 3.512-5.022 1.81-1.349 2.506-3.512-.054-1.146 1.007-1.51"/>
  <path fill="#626262" d="M132.762 95.122q-.771-.3-.246-1.007.353.45.246 1.007" opacity=".008"/>
  <path fill="#b8b8b8" d="M202.034 94.619q7.121 1.478 3.266 8.031a75 75 0 0 1-5.269 5.022q-.332.054-.503-.246a32.1 32.1 0 0 0 6.275-7.282q.632-1.992-.75-3.512-.46.096-.503.503-1.82-.771-2.506-2.506" opacity=".371"/>
  <path fill="#838383" d="M125.234 93.612q3.009 2.998 4.519 7.025a38.6 38.6 0 0 1-4.519-7.025"/>
  <path fill="#a1a1a1" d="M132.762 95.122q1.199.974.75 2.506-.76-1.146-.75-2.506" opacity=".031"/>
  <path fill="#838281" d="M188.488 97.125q1.157.6 2.506.503l-2.013 1.007q-2.688-.696-5.526-.503z"/>
  <path fill="#626262" d="M130.759 98.634q-.771-.3-.246-1.007.353.45.246 1.007" opacity=".008"/>
  <path fill="#7f807f" d="M130.759 98.634q1.007.503 0 0" opacity=".004"/>
  <path fill="#bdbdbc" d="M88.097 93.109v5.022a428 428 0 0 1-1.007 11.04l-1.007 5.526a13.9 13.9 0 0 0-2.013-4.016q-.792-4.979 0-9.541a43 43 0 0 1 3.266-3.512q.139-2.409.75-4.519"/>
  <path fill="#7f807f" d="M137.281 106.162q1.007.503 0 0" opacity=".004"/>
  <path fill="#545554" d="M137.281 106.666q-.503.503 0 0" opacity=".008"/>
  <path fill="#888" d="M189.987 105.156a4.5 4.5 0 0 1-3.009 3.009 12.9 12.9 0 0 1 3.009-3.009" opacity=".051"/>
  <path fill="#bfc0bf" d="M136.778 107.169q-.503.503 0 0" opacity=".012"/>
  <path fill="#505050" d="M156.363 91.106a321 321 0 0 0 1.51 25.604q-.503.578-1.253 1.007-.375-13.3-.246-26.6"/>
  <path fill="#0e0e0e" d="M128.254 131.766q-1.135.921-2.259 0a225 225 0 0 0-10.291-17.572q-5.665-1.521-11.544-.75a707 707 0 0 0-14.06 32.628q-.642 1.199-2.013 1.253-.964-.9-1.007-2.506a482 482 0 0 0 10.291-31.622 16 16 0 0 1 2.763-3.769 70.7 70.7 0 0 1 16.566.503q1.628 1.124 2.763 2.763a343 343 0 0 0 8.031 15.559 8.6 8.6 0 0 1 .75 3.512"/>
  <path fill="#393939" d="M130.759 130.256q-1.103.932-2.506 1.51a8.6 8.6 0 0 0-.75-3.512 343 343 0 0 1-8.031-15.559q-1.124-1.628-2.763-2.763a70.7 70.7 0 0 0-16.566-.503 16 16 0 0 0-2.763 3.769 482 482 0 0 1-10.291 31.622q.043 1.606 1.007 2.506-.535.685-1.51.503v-21.588a171 171 0 0 1 .75 13.053 203.5 203.5 0 0 0 8.278-24.597l-1.51-1.007q1.189-.428 2.259-.503.236-1.81 1.253-3.266-2.195-3.202 1.007-1.253 1.446-1.488 3.512-1.51.503-3.009 1.007 0a9.6 9.6 0 0 0 3.009-.246q-1.617-.557-.246-1.253a107 107 0 0 0 3.512 1.51 4.3 4.3 0 0 0 1.253-1.007q2.709 1.264 5.772 1.51a4.3 4.3 0 0 0 1.253-1.007l.503 2.013a13 13 0 0 1 2.259 2.013q.889-.932 1.756 0l-1.51 1.007a621 621 0 0 0 8.535 17.572q.578.835 1.51 1.007"/>
  <path fill="#393838" d="M139.294 106.666v-.503q1.007 4.744 1.007 10.044 0 5.151-.503 10.044a193 193 0 0 0-.503-19.575"/>
  <path fill="#2d2c2c" d="M146.319 79.563v1.51q6.104.685 12.55 1.007v6.029q3.009.503 0 1.007-.129 2.527.246 5.022a2.1 2.1 0 0 1 .75-.503q.932 1.135-.503 1.756.632.76.503 1.756h-1.51q.118 6.222 0 12.293.353 1.424 1.51 2.259-.621.664-1.51.503v3.009h2.013q-1.103.932-2.506 1.51a321 321 0 0 1-1.51-25.604v-.503q.739-3.116.503-6.521.621 2.87.75 6.029l.503-.503q.375-3.502.246-7.025a53.5 53.5 0 0 1-13.053-1.007q.375-1.146 1.007-2.013"/>
  <path fill="#313131" d="M182.459 116.207a24.6 24.6 0 0 1-5.022 3.009q-.3-3.202 2.013-5.269.792-.375 1.51.246.418 1.381 1.51 2.013m-115.95 17.07q.717-1.071.503-2.506a2.46 2.46 0 0 0 1.51-.246 32 32 0 0 1 4.262-5.269 311 311 0 0 1 3.266-12.796q-.3-1.713-1.51-.75-.054-1.146 1.007-1.51.996.129 1.756-.503a214 214 0 0 1-4.262 20.078q-2.11 3.255-5.772 4.519-.771-.257-.75-1.007"/>
  <path fill="#979797" d="M189.987 115.704q-.91 1.917-3.009 2.013 1.242-1.371 3.009-2.013" opacity=".016"/>
  <path fill="#3b3b3b" d="M200.032 107.672a118 118 0 0 1-10.044 8.031q-1.767.632-3.009 2.013l-4.016 3.512a418 418 0 0 1 0 28.109 814 814 0 0 1-.75-28.613q-.503-.568-1.253-.503 12.411-8.01 22.841-18.568a10.7 10.7 0 0 0 .75-4.519q.043-.407.503-.503 1.381 1.531.75 3.512a32.1 32.1 0 0 1-6.275 7.282q.171.3.503.246"/>
  <path d="M189.484 119.719q1.007.503 0 0" opacity=".004"/>
  <path fill="#777" d="M189.484 120.222q.032.942-.75 1.51-.439-1.124.75-1.51" opacity=".004"/>
  <path fill="#f3f3f3" d="M187.985 94.619q6.918.064 14.06 0 .696 1.745 2.506 2.506a10.7 10.7 0 0 1-.75 4.519q-10.43 10.569-22.841 18.568-52.931 31.354-111.934 49.194a2.46 2.46 0 0 1-1.51-.246q1.381-.375 1.756-1.756.792.771 1.756.246a7.5 7.5 0 0 1 2.013-2.506 34.3 34.3 0 0 1 6.521-2.763q1.863 1.97 3.512 0a75 75 0 0 1 3.512-9.038 128.5 128.5 0 0 1 17.572-6.521 214 214 0 0 0-3.009 7.785l.503.75 9.038-3.512q1.167-.246 1.007-1.51-3.159.236-6.029-.503a64 64 0 0 1 2.013-4.765 1521 1521 0 0 0 20.581-7.282l3.769 4.519a86 86 0 0 0 8.031-3.512 36.4 36.4 0 0 1 .75-5.772 100.7 100.7 0 0 1 15.056-6.778 8.6 8.6 0 0 0 .503 4.016q11.062-4.776 21.085-11.04a24.6 24.6 0 0 0 5.022-3.009q.632-.257.503-1.007 9.82-5.408 17.819-13.557.353-.814-.246-1.51 2.045-1.767-1.007-2.259a75 75 0 0 0-8.535-.246q-1.349.096-2.506-.503-.6-1.157-.503-2.506"/>
  <path fill="#616162" d="M81.062 105.659a53.5 53.5 0 0 1-1.51 8.278 32 32 0 0 0 .503 4.262q-.482 1.36-1.756 2.013a214 214 0 0 0-2.013 13.557q-4.016 4.358-8.781 7.528-1.96-1.424-1.51-4.016 1.199.825 1.253-1.007l.503.503q4.423-1.328 6.275-5.526a589 589 0 0 1 3.512-13.3q.685-5.879 2.763-11.801.289-.418.75-.503"/>
  <path fill="#959595" d="M65.503 122.728q.964 2.356-.75 4.519 0-2.281.75-4.519" opacity=".017"/>
  <path fill="#4a4a4a" d="M80.559 104.653q.632.257.503 1.007-.46.086-.75.503-2.077 5.911-2.763 11.801a589 589 0 0 0-3.512 13.3q-1.853 4.198-6.275 5.526l-.503-.503q-.054 1.831-1.253 1.007.214-1.446-.503-2.506.311-3.941 1.51-7.528a36.4 36.4 0 0 0-.503 6.029q-.021.75.75 1.007 3.662-1.264 5.772-4.519a214 214 0 0 0 4.262-20.078q-.76.632-1.756.503a19.3 19.3 0 0 1 5.022-5.526"/>
  <path fill="#1a1a1a" d="M66.509 133.265a36.4 36.4 0 0 1 .503-6.029 17.1 17.1 0 0 1 1.253-5.022 171 171 0 0 0 6.275-10.537q1.21-.964 1.51.75a311 311 0 0 0-3.266 12.796 32 32 0 0 0-4.262 5.269 2.46 2.46 0 0 1-1.51.246q.214 1.446-.503 2.506"/>
  <path fill="#7f807f" d="M188.981 131.766q1.467.857.246 2.506a6.4 6.4 0 0 1-.246-2.506" opacity=".004"/>
  <path fill="#363636" d="M112.191 129.25q-.45.182-.503.75 1.296 2.581 1.756 5.269a10.7 10.7 0 0 0-3.266 1.756q-1.392-.054-2.506.246l3.512-10.044q.91.814 1.007 2.013"/>
  <path fill="#7a7b7b" d="M82.572 102.65q.332-.054.503.246-2.87 7.057-1.51 14.553-1.478 2.142-.503 4.519-3.266 5.547-3.512 12.047-3.084 5.365-8.781 7.785-.503-.568-1.253-.503 4.765-3.18 8.781-7.528a214 214 0 0 1 2.013-13.557q1.274-.653 1.756-2.013a32 32 0 0 1-.503-4.262 53.5 53.5 0 0 0 1.51-8.278q.129-.75-.503-1.007.75-1.253 2.013-2.013"/>
  <path fill="#191919" d="M112.191 129.25q2.334 3.523 4.519 7.282l-9.541 4.262q-.857-1.874.503-3.512 1.124-.3 2.506-.246a10.7 10.7 0 0 1 3.266-1.756q-.46-2.688-1.756-5.269.054-.578.503-.75m78.803-31.622q4.273-.129 8.535.246 3.041.493 1.007 2.259a16 16 0 0 1-3.009-1.007q-2.966-.064-6.029.503.653 3.084-1.51 5.526a12.9 12.9 0 0 0-3.009 3.009 64 64 0 0 0-4.519 3.512 7.5 7.5 0 0 1 .503 3.512q.129.75-.503 1.007-1.082-.632-1.51-2.013-.717-.621-1.51-.246-2.313 2.067-2.013 5.269-10.023 6.264-21.085 11.04a8.6 8.6 0 0 1-.503-4.016 100.7 100.7 0 0 0-15.056 6.778 36.4 36.4 0 0 0-.75 5.772 86 86 0 0 1-8.031 3.512l-3.769-4.519a1521 1521 0 0 1-20.581 7.282 64 64 0 0 0-2.013 4.765q-.407.043-.503.503a37.5 37.5 0 0 0 6.029.75q-.418.289-.503.75l-9.038 3.512-.503-.75a214 214 0 0 1 3.009-7.785q.386-.632-1.007-.75.418-.289.503-.75a610 610 0 0 0 64.25-27.36 93.2 93.2 0 0 0 20.828-15.313q1.231-2.056.246-4.016z"/>
  <path fill="#929393" d="M84.082 101.14q-.792 4.562 0 9.541a13.9 13.9 0 0 1 2.013 4.016l1.007-5.526q.246 7.164-.503 14.06v-2.506a13.9 13.9 0 0 0-2.506-4.519q-.825.675 0 1.51-2.613 1.189-.503 3.009l-1.007.503q-.46.086-.75.503a214 214 0 0 0-3.769 15.313q-2.484 2.099-4.016 4.765-1.97-.171-2.506 1.756a17 17 0 0 0-3.769.75l-.503-.503-.503 1.51q-.214-.685-.75-1.007.353-1.949-1.007-3.009a23.6 23.6 0 0 0 .503-6.521q.717 1.071.503 2.506-.45 2.591 1.51 4.016.75-.064 1.253.503 5.697-2.409 8.781-7.785.246-6.5 3.512-12.047-.974-2.377.503-4.519-1.371-7.496 1.51-14.553-.171-.3-.503-.246a3.2 3.2 0 0 1 1.51-1.51"/>
  <path fill="#a4a5a5" d="M82.572 121.218a16 16 0 0 1-.246 4.016 66.4 66.4 0 0 0-3.512 13.053 54 54 0 0 1-2.763 6.029h-1.51a2.46 2.46 0 0 1-.246 1.51h-1.51q-1.745 2.045-3.512 3.009a21.4 21.4 0 0 1-2.259-2.013 21 21 0 0 1-1.007 1.51q.182-.974-.503-1.51.6-1.157.503-2.506.546.311.75 1.007l.503-1.51.503.503a17 17 0 0 1 3.769-.75q.546-1.927 2.506-1.756 1.531-2.666 4.016-4.765a214 214 0 0 1 3.769-15.313q.289-.418.75-.503"/>
  <path fill="#d2d2d2" d="M85.078 122.225q1.317 5.44-1.007 11.04 1.039 1.253-.503 2.013a43 43 0 0 1 1.253 4.519q.3 5.504.246 10.794-1.082.75-1.51 2.013a1.18 1.18 0 0 0 1.007.246q0 .503-.503.503a15 15 0 0 1-3.512 1.007q-1.167-.246-1.007-1.51 1.842.107 1.007-1.253 1.135-1.007 1.51-2.506.439-6.907 0-13.557a161 161 0 0 1 3.009-13.3"/>
  <path fill="#545554" d="M60.481 142.806q1.007.503 0 0" opacity=".008"/>
  <path d="M63.5 142.806q1.007.503 0 0" opacity=".004"/>
  <path fill="#7f807f" d="M63.5 143.31q-.503.503 0 0" opacity=".004"/>
  <path fill="#b5b6b6" d="M83.579 120.715a2.8 2.8 0 0 0 .503 1.51q-3.32 9.22-3.512 19.072 1.199 1.467-.503 2.259.814.557 1.007 1.51a32 32 0 0 1-1.007 3.769 10.7 10.7 0 0 0-3.266 3.512l-.503-1.51q-.632 1.135-1.756.75.91-.675 0-1.253-.921.91-1.756 0a3.2 3.2 0 0 1-.75 1.51q-.696-.857-1.253 0l-.503-1.51q-.792.771-1.756.246a32 32 0 0 1-2.506-1.756v-.503a21 21 0 0 0 1.007-1.51 21.4 21.4 0 0 0 2.259 2.013q1.767-.974 3.512-3.009h1.51a2.46 2.46 0 0 0 .246-1.51h1.51a54 54 0 0 0 2.763-6.029 66.4 66.4 0 0 1 3.512-13.053q.375-1.992.246-4.016z"/>
  <path fill="#5e5e5e" d="M188.981 147.325q.803.568.246 1.51a2.46 2.46 0 0 1-.246-1.51" opacity=".004"/>
  <path fill="#1d1d1d" d="M65.503 146.822q.685.535.503 1.51v2.013a24.6 24.6 0 0 0-8.781 4.519q-.3-.171-.246-.503a96 96 0 0 1 8.535-7.528"/>
  <path fill="#c0c1c0" d="m86.588 120.715-1.51 1.51a161 161 0 0 0-3.009 13.3q.439 6.65 0 13.557-.375 1.499-1.51 2.506.835 1.371-1.007 1.253-.161 1.264 1.007 1.51a53.5 53.5 0 0 1-11.04 3.512 50.3 50.3 0 0 1-10.537.246 21.4 21.4 0 0 1-4.016-1.756q.75-1.253 2.013-2.013-.054.332.246.503a24.6 24.6 0 0 1 8.781-4.519v-1.51a32 32 0 0 0 2.506 1.756q.964.514 1.756-.246l.503 1.51q.557-.857 1.253 0a3.2 3.2 0 0 0 .75-1.51q.835.91 1.756 0 .91.578 0 1.253 1.124.386 1.756-.75l.503 1.51a10.7 10.7 0 0 1 3.266-3.512 32 32 0 0 0 1.007-3.769q-.193-.953-1.007-1.51 1.692-.792.503-2.259.193-9.862 3.512-19.072a2.8 2.8 0 0 1-.503-1.51q-2.11-1.82.503-3.009-.825-.835 0-1.51a13.9 13.9 0 0 1 2.506 4.519"/>
  <path fill="#303030" d="M103.657 145.312q-.086.46-.503.75 1.392.118 1.007.75a128.5 128.5 0 0 0-17.572 6.521q-.535-.685-1.51-.503a204 204 0 0 1 18.568-7.528"/>
  <path fill="#545454" d="M105.659 149.831q2.859.739 6.029.503.161 1.264-1.007 1.51.086-.46.503-.75a37.5 37.5 0 0 1-6.029-.75q.096-.46.503-.503"/>
  <path fill="#595959" d="M189.484 149.328q.825.825.246 2.013a4.3 4.3 0 0 1-.246-2.013" opacity=".008"/>
  <path fill="#111110" d="M180.949 120.222q.75-.064 1.253.503.129 14.435.75 28.613v5.022q2.795.771 5.022 2.763 1.478 1.092 2.013 2.763 2.206 5.9-.503 11.544-3.694 5.108-10.044 5.526a64 64 0 0 0-8.031.246q-.418.289-.503.75-2.11 4.755-7.282 5.022-7.614-.011-15.313-.246a96 96 0 0 1-6.521-9.284q-.707-1.306 0-2.506a12.9 12.9 0 0 1 3.009 3.009 161 161 0 0 0 22.091.246l8.781-9.787q1.842-1.917 2.506-4.519.075-15.077 1.007-30.123 1.264-.418 2.013-1.51a21.4 21.4 0 0 0 0-6.521q-2.099 1.167-3.512 3.009a64 64 0 0 1-.75 7.528 128.5 128.5 0 0 1 .246 19.575 4.3 4.3 0 0 1-1.253 2.013 4.3 4.3 0 0 1 1.007 1.253 54 54 0 0 0-.246 5.269l-1.253 1.51a2.1 2.1 0 0 1-.75-.503v2.013a225 225 0 0 0-8.278 9.541 56.8 56.8 0 0 1-15.559-.246q.932-.889 0-1.756-.493 1.242-1.51 2.013-.375-.835-.503-1.51-.664.621-.503 1.51a2.46 2.46 0 0 1-1.51-.246q-.664-1.788-2.506-2.259a16 16 0 0 0-2.259-2.506 2.46 2.46 0 0 1-.246-1.51q3.941-.407 7.528 1.007 2.57-1.242 5.526-1.253a10.7 10.7 0 0 0 3.009-2.506 96 96 0 0 1-.503-9.541q.021-4.701 1.007-9.038a107 107 0 0 0-2.013-7.785q-.974-.182-1.51.503a59 59 0 0 0-9.038 5.022 57 57 0 0 0 5.772 9.541q1.585 1.97 3.769 3.009v.503q1.863 3.159.246 6.521-.214-.685-.75-1.007 0-.503-.503-.503a268 268 0 0 0-11.801-7.025q-1.799 1.339-2.506 3.512-.535.717-1.253.246a58 58 0 0 1-4.262-7.785q-.675-1.371-2.013-2.013a718 718 0 0 0-16.309 7.025q-1.146.011-1.756 1.007-.621 5.151.246 10.044.129 6.275-.246 12.55-1.574 2.206-3.769 3.512H93.109a43 43 0 0 1-8.535-.503l-7.025-7.528q-.782-1.927-2.506-3.266-.942-.557-1.51.246a150 150 0 0 1-17.069 4.016q-4.016-1.007-8.031 0a18.2 18.2 0 0 1-4.262-2.506q-.91-1.638-.75-3.512 1.049 2.206 3.009 3.769 9.552.867 18.568-2.259 2.206-.054 4.016-1.007 59.014-17.84 111.934-49.194" opacity=".998"/>
  <path fill="#f5f5f5" d="M154.35 160.871q-5.386.75-11.04.503a68.5 68.5 0 0 1-9.787-.503l-2.259.246q.418.289.503.75a321 321 0 0 0-15.559-6.521v-.503a718 718 0 0 1 16.309-7.025q1.328.632 2.013 2.013a58 58 0 0 0 4.262 7.785q.717.46 1.253-.246.707-2.174 2.506-3.512a268 268 0 0 1 11.801 7.025" opacity=".994"/>
  <path fill="#696969" d="M154.853 137.784q.535-.685 1.51-.503.482 9.573-1.007 18.568v-.503q.503-4.262.503-8.781 0-4.669-1.007-8.781"/>
  <path fill="#f5f5f5" d="M154.853 137.784q.996 4.112 1.007 8.781 0 4.53-.503 8.781-2.174-1.039-3.769-3.009a57 57 0 0 1-5.772-9.541q4.273-2.891 9.038-5.022"/>
  <path fill="#434343" d="M84.082 153.343q.182.974-.503 1.51-.043-.407-.503-.503l-4.016 2.013a86 86 0 0 1-9.038 2.013q0-.503-.503-.503a53.5 53.5 0 0 0 11.04-3.512 15 15 0 0 0 3.512-1.007"/>
  <path fill="#636263" d="M116.207 154.853v.503q-.717.343-1.253 1.007.086 4.701-.246 9.541-.867-4.883-.246-10.044.61-.996 1.756-1.007" opacity=".259"/>
  <path fill="#aaa" d="M79.06 156.363q-.889 2.731-3.769 3.512-.707-.3-1.007-1.007-1.81 1.435-2.763 3.512a3.2 3.2 0 0 0 1.51.75q-1.264 2.645-4.016 3.266 2.131-2.72 1.007-6.029-.814-.91-2.013-1.007l2.013-1.007a86 86 0 0 0 9.038-2.013"/>
  <path fill="#161615" d="M84.574 152.84h.503q.974-.182 1.51.503a75 75 0 0 0-3.512 9.038 10.7 10.7 0 0 1-2.506.503 38.6 38.6 0 0 1 3.009-8.031q.685-.535.503-1.51.503 0 .503-.503"/>
  <path fill="#1a1b1b" d="M54.966 156.363a21.4 21.4 0 0 0 4.016 1.756q5.279.428 10.537-.246.503 0 .503.503l-2.013 1.007q-5.526 3.009-11.04 0-4.658 3.898-6.521 9.787.685.214 1.007.75-4.787.6-4.262-4.016a42.8 42.8 0 0 1 7.785-9.541"/>
  <path fill="#858383" d="M189.987 159.875q4.241 5.954-.503 11.544 2.709-5.643.503-11.544" opacity=".188"/>
  <path fill="#cfd0cf" d="M83.579 154.853a38.6 38.6 0 0 0-3.009 8.031 10.7 10.7 0 0 0 2.506-.503q-1.649 1.97-3.512 0a34.3 34.3 0 0 0-6.521 2.763 7.5 7.5 0 0 0-2.013 2.506q-.964.514-1.756-.246-.375 1.381-1.756 1.756a2.46 2.46 0 0 0 1.51.246q-1.81.953-4.016 1.007a32 32 0 0 0-2.763-1.007q-.985.589-1.756-.503 4.026-1.82 8.535-2.506 2.752-.61 4.016-3.266a3.2 3.2 0 0 1-1.51-.75q.953-2.077 2.763-3.512.289.696 1.007 1.007 2.881-.782 3.769-3.512l4.016-2.013q.46.096.503.503"/>
  <path fill="#e9e9e8" d="M65 141.296q1.36 1.071 1.007 3.009.096 1.349-.503 2.506a96 96 0 0 0-8.535 7.528q-1.253.75-2.013 2.013a42.8 42.8 0 0 0-7.785 9.541q-.525 4.615 4.262 4.016a27.8 27.8 0 0 0 9.038-1.007q.771 1.092 1.756.503a32 32 0 0 1 2.763 1.007q-9.027 3.127-18.568 2.259-1.97-1.563-3.009-3.769l7.785-11.544a182 182 0 0 1 13.557-11.544q.375-2.249.246-4.519" opacity=".98"/>
  <path fill="#8f8c8c" d="M73.534 170.916q.568-.803 1.51-.246 1.724 1.339 2.506 3.266-1.745-1.735-4.016-3.009" opacity=".314"/>
  <path fill="#323231" d="M141.8 173.421a75 75 0 0 1-4.765-7.025q-2.313-2.699-5.269-4.519-.086-.46-.503-.75l2.259-.246a68.5 68.5 0 0 0 9.787.503 33.2 33.2 0 0 0 11.544 0q.546.311.75 1.007 1.606-3.362-.246-6.521 1.488-9.006 1.007-18.568a107 107 0 0 1 2.013 7.785q-.985 4.337-1.007 9.038.021 4.797.503 9.541a10.7 10.7 0 0 1-3.009 2.506q-2.945.011-5.526 1.253-3.587-1.403-7.528-1.007a2.46 2.46 0 0 0 .246 1.51 16 16 0 0 1 2.259 2.506q1.853.471 2.506 2.259a2.46 2.46 0 0 0 1.51.246q-.161-.889.503-1.51.129.675.503 1.51 1.017-.771 1.51-2.013.932.867 0 1.756a56.8 56.8 0 0 0 15.559.246 225 225 0 0 1 8.278-9.541v-2.013q.311.343.75.503l1.253-1.51q-.011-2.624.246-5.269a4.3 4.3 0 0 0-1.007-1.253 4.3 4.3 0 0 0 1.253-2.013 128.5 128.5 0 0 0-.246-19.575 64 64 0 0 0 .75-7.528q1.414-1.853 3.512-3.009a21.4 21.4 0 0 1 0 6.521q-.75 1.082-2.013 1.51-.921 15.034-1.007 30.123-.675 2.602-2.506 4.519l-8.77 9.787a161 161 0 0 1-22.091-.246 12.9 12.9 0 0 0-3.009-3.009q-.707 1.199 0 2.506"/>
  <path fill="#999" d="M154.35 160.871q.503 0 .503.503a33.2 33.2 0 0 1-11.544 0q5.665.246 11.04-.503"/>
  <path fill="#626262" d="M48.434 174.931q4.016-1.007 8.031 0-4.026.835-8.031 0" opacity=".332"/>
  <path fill="#2e2e2e" d="M112.684 156.363q.857 2.613.246 5.526-.086 1.863-1.51 3.009l-2.763 10.794q-12.058.525-24.094-.503-2.57-3.073-6.029-5.022 1.735-.568 3.009.75l1.007-1.007q.054 3.566 4.016 4.016a3.64 3.64 0 0 0 1.51-1.007q2.367.932 5.022 1.007a23.6 23.6 0 0 0 4.765-.503q3.405 1.435 7.282 1.007.375-2.891 1.51 0 1.713-1.735.503-4.016 2.784-1.745 1.51-4.765a14 14 0 0 1 1.756-2.259q.557-2.302-.246-4.519 1.103-1.488 2.506-2.506"/>
  <path fill="#545554" d="M70.525 176.934q1.007.503 0 0" opacity=".008"/>
  <path fill="#5e5e5e" d="M179.45 176.934q-4.08 1.221-8.535 1.007.086-.46.503-.75a64 64 0 0 1 8.031-.246"/>
  <path fill="#4f5050" d="M93.109 181.956h17.572q-.835.6-2.013.75-6.339.246-12.55.246z" opacity=".995"/>
  <path fill="#7f807f" d="M169.909 181.956q1.007.503 0 0" opacity=".004"/>
  <path fill="#b0b0b0" d="M84.574 181.453a43 43 0 0 0 8.535.503l3.009 1.007q-5.451.386-11.04-.75-.418-.289-.503-.75" opacity=".035"/>
  <path fill="#7f807f" d="M169.909 182.459q-.503.503 0 0" opacity=".004"/>
</svg>
