<svg xmlns="http://www.w3.org/2000/svg" width="2048" height="452" style="shape-rendering:geometricPrecision;text-rendering:geometricPrecision;image-rendering:optimizeQuality;fill-rule:evenodd;clip-rule:evenodd">
    <path style="opacity:.012" fill="#bab9bd" d="M229.5 2.5a432 432 0 0 0-41 1q9.699-1.995 20.5-2 10.513 0 20.5 1"/>
    <path style="opacity:.987" fill="#fcfcfc" d="M229.5 2.5a256 256 0 0 1 34 3.5A1276 1276 0 0 1 279 27.5a348 348 0 0 0 17.5 31q50.222-.273 100 2-.393 2.217 1 4a409 409 0 0 1 23.5 35 356 356 0 0 1 11.5 23 110 110 0 0 1-7.5 17 1877 1877 0 0 0-24.5 42.5q8.925 8.694 13.5 20.5a451 451 0 0 0 15.5 24 1217 1217 0 0 0 23 41 82 82 0 0 0 3 10.5 32.1 32.1 0 0 0-2.5 9.5 8694 8694 0 0 1-45.5 76.5 1848 1848 0 0 1-63 3.5 236 236 0 0 1-23 36 114 114 0 0 1-17 27 260 260 0 0 0-10 19q-11.12-.942-21 2h-30q-9.88-2.942-21-2 .393-2.217-1-4a452 452 0 0 1-17-23 639 639 0 0 0-18-29l-7-1a774 774 0 0 1-51 2 1235 1235 0 0 1-58-2 306 306 0 0 1-10-21 3969 3969 0 0 1-27.5-48q-7.537-13.224-4-28a1523 1523 0 0 1 24.5-46 1200 1200 0 0 1-20.5-34 2361 2361 0 0 0-30.5-58 2546 2546 0 0 1 30.5-60 108.4 108.4 0 0 1 20.5-1q17.885-1.482 35-1 9.867 1.44 20 1-.428-2.682 1-5a2293 2293 0 0 1 53-87.5q12.99-.75 26-.5a432 432 0 0 1 41-1m-72 178a24 24 0 0 0 6 2.5q71.076 1.091 142 5.5a12013 12013 0 0 0-75.5 126 4633 4633 0 0 1-44-84 1794 1794 0 0 0-28.5-50"/>
    <path style="opacity:1" fill="#5c5d5c" d="M188.5 81.5h-10q1.709 3.755 2 8-3.789-3.644-2.5-9 1.206-1.957 3.5-2 3.802 1.16 7 3"/>
    <path style="opacity:1" fill="#060706" d="M188.5 81.5a165 165 0 0 1 21 8q4.938 1.494 10 3 .166.925 1 1.5a159 159 0 0 0 17 4.5q3.297.563 6 2 .166.925 1 1.5a94 94 0 0 0 13 2.5l8 1q.626 1.083 2 1.5 3.97.746 8 .5.166.925 1 1.5a1093 1093 0 0 1 20 4q5.979.749 12 .5-3.365 1.967-8 2a328 328 0 0 0-28-1h-29q-3.196-1.221-7-1.5a840 840 0 0 0-41-.5 27.2 27.2 0 0 1-3-5 83.7 83.7 0 0 0-9-14 311 311 0 0 0-3-4q-.291-4.245-2-8z"/>
    <path style="opacity:1" fill="#8d8d8d" d="M209.5 89.5q5.874-.712 10 3a2356 2356 0 0 1-10-3"/>
    <path style="opacity:.02" fill="#a6a5ce" d="M88.5 95.5q-17.115-.482-35 1 .165-.925 1-1.5 17.261-1.24 34 .5"/>
    <path style="opacity:1" fill="#717271" d="M219.5 92.5a144 144 0 0 1 18 6 159 159 0 0 1-17-4.5q-.834-.575-1-1.5"/>
    <path style="opacity:1" fill="#838383" d="M183.5 93.5a83.7 83.7 0 0 1 9 14q-6.258-5.78-9-14"/>
    <path style="opacity:1" fill="#454545" d="M243.5 100.5q7.605.74 14 4a94 94 0 0 1-13-2.5q-.834-.575-1-1.5"/>
    <path style="opacity:1" fill="#929392" d="M265.5 105.5q5.266.599 10 2a32.5 32.5 0 0 1-8-.5q-1.374-.417-2-1.5"/>
    <path style="opacity:1" fill="#a4a5a4" d="M275.5 107.5a1065 1065 0 0 1 39 5.5q1.374.417 2 1.5l-8-1a72.4 72.4 0 0 1-12-.5 1093 1093 0 0 0-20-4q-.834-.575-1-1.5"/>
    <path style="opacity:1" fill="#4c4c4c" d="M195.5 112.5a840 840 0 0 1 41 .5q3.804.279 7 1.5a546 546 0 0 1-33-1q-7.793.481-15-1"/>
    <path style="opacity:1" fill="#bdbdbd" d="M210.5 113.5q16.48.999 33 1h9v1q-19.506.25-39-.5-1.856-.348-3-1.5"/>
    <path style="opacity:1" fill="#777" d="M252.5 115.5v-1h20l19 2a422 422 0 0 1-32-1z"/>
    <path style="opacity:1" fill="#383838" d="m308.5 113.5 8 1h6q0 1 1 1-2.128 1.426-5 1h-27l-19-2q14.02-.1 28 1 4.635-.033 8-2"/>
    <path style="opacity:1" fill="#b8b8b8" d="M322.5 114.5q17.51.408 35 1.5 1.32 2.034 1 4.5a9175 9175 0 0 1-93-3.5q-3.312-.286-6-1.5a422 422 0 0 0 32 1h27q.166.925 1 1.5 16.5 1 33 0a332 332 0 0 0-29-2.5q-1 0-1-1"/>
    <path style="opacity:1" fill="#5f5f5f" d="M323.5 115.5q14.705.627 29 2.5-16.5 1-33 0-.834-.575-1-1.5 2.872.426 5-1"/>
    <path style="opacity:.991" fill="#fdfdfe" d="M845.5 145.5q62.597-1.36 73.5 60 6.443 42.082-24.5 70.5-39.699 24.539-81 3-21.419-14.94-27.5-40.5-7.526-33.827 9-64 18.832-25.54 50.5-29m2 37q24.47-.897 29.5 23 2.112 16.905-3 33-12.858 21.544-35.5 10.5-14.102-12.472-13-31.5-.567-17.099 11-29.5 5.052-3.867 11-5.5"/>
    <path style="opacity:.989" fill="#fdfdfd" d="M983.5 145.5q24.337-2.264 47 6.5 20.385 11.142 27 33.5a294.6 294.6 0 0 1-42 .5q-8.01-8.129-19.5-7.5-6.66-.498-12.5 2.5-5.75 6.337 1 12 20.449 3.747 41 7c15.15 3.142 25.99 11.642 32.5 25.5q12.09 50.095-37.5 62.5c-16.89 2.477-33.552 1.477-50-3q-28.205-10.454-36-39.5a242.6 242.6 0 0 1 44 0q8.508 11.454 23 11c3.35-.392 6.68-.892 10-1.5 5.67-2.768 7.51-7.268 5.5-13.5l-4.5-3.5a4094 4094 0 0 0-38-7q-42.937-11.601-34.5-55.5 5.52-16.52 21.5-23.5 10.905-4.218 22-6.5"/>
    <path style="opacity:.994" fill="#fefefe" d="M503.5 148.5q22.506-.25 45 .5a2215 2215 0 0 0 43.5 64.5q.75-32.496.5-65h39v139q-17.007.25-34-.5a427499 427499 0 0 0-54.5-78.5q-.75 38.997-.5 78h-39z"/>
    <path style="opacity:.992" fill="#fefefe" d="M657.5 148.5h112v33h-71v17h42v33h-42v21h78v34h-119z"/>
    <path style="opacity:.992" fill="#fdfdfe" d="M1435.5 152.5h130v35h-44v104h-41v-104h-45z"/>
    <path style="opacity:.991" fill="#fdfdfe" d="M1719.5 152.5q42-.25 84 .5c31.39 4.431 45.23 22.597 41.5 54.5-1.24 6.069-3.41 11.736-6.5 17a259 259 0 0 1-14 13.5 2010 2010 0 0 0 30 52c-.33.333-.67.667-1 1a462 462 0 0 1-43 0l-27-47c-7.66-.5-15.33-.666-23-.5v48q-20.37.485-40.5-1c-.5-45.999-.67-91.999-.5-138m41 35c11.67-.167 23.34 0 35 .5q12.015 4.808 6 16.5c-2.88 3.15-6.54 4.65-11 4.5q-14.985.75-30 .5zm136 103c-13.71.648-27.04-.019-40-2 16.64-45.211 32.97-90.544 49-136h47a6743 6743 0 0 0 51 137.5q-11.01 1.73-22.5 1.5l-21.5-1a870 870 0 0 1-7-18.5 600 600 0 0 0-49 0 270 270 0 0 0-7 18.5m31-89c5.07 11.64 9.41 23.64 13 36a157 157 0 0 1-25-1 734 734 0 0 0 12-35"/>
    <path style="opacity:.992" fill="#fdfdfd" d="M1289.5 152.5c15.35-.333 30.68.001 46 1q21.45 32.206 43.5 64c.5-21.664.67-43.331.5-65h39v139c-11.69.332-23.35-.001-35-1-17.66-25.661-35.32-51.327-53-77-1 25.991-1.33 51.991-1 78a396 396 0 0 1-39.5-1c-.5-45.999-.67-91.999-.5-138"/>
    <path style="opacity:.991" fill="#fdfdfe" d="M1609.5 152.5q23.37-.486 46.5 1a4028 4028 0 0 1 50.5 138c-14.34.167-28.67 0-43-.5-2.23-6.2-4.57-12.367-7-18.5a313 313 0 0 0-50 0 204 204 0 0 1-7 18.5c-13.33.5-26.66.667-40 .5a7317 7317 0 0 1 50-139m22 49c4.25 11.778 8.58 23.612 13 35.5-8.33.5-16.66.666-25 .5a380 380 0 0 1 12-36"/>
    <path style="opacity:.975" fill="#fbfbfc" d="M1119.5 154.5q9.06-.494 18 1a20222 20222 0 0 0-49 135q-9 2-18 0a8415 8415 0 0 0 49-136m51 0q9.015-.249 18 .5a22422 22422 0 0 0-49 135.5 82 82 0 0 1-18 1c16.05-45.762 32.38-91.429 49-137"/>
    <path style="opacity:.979" fill="#fbfbfc" d="M1193.5 155.5c7.48-.992 15.15-1.325 23-1 17.01 45.312 34.34 90.645 52 136-7.64.997-15.3 1.331-23 1a5183 5183 0 0 0-52-136"/>
    <path style="opacity:1" fill="#767676" d="M87.5 184.5q-2.555-1.74-2 2a1183 1183 0 0 0-11.5-21q-1.125-1.702.5-3a185 185 0 0 1 13 22"/>
    <path style="opacity:1" fill="#2b2b2b" d="M87.5 184.5a67992 67992 0 0 0 17 30q-2.764-1.119-4-4-.63 2.739 0 6a2350 2350 0 0 0-15-30q-.555-3.74 2-2"/>
    <path style="opacity:1" fill="#0c0c0c" d="M104.5 214.5a339 339 0 0 1 16 26q.375 3.261 3 5a1707 1707 0 0 1 23.5 39q.745 3.465.5 7-1.083.626-1.5 2a700 700 0 0 0-4.5 26 816 816 0 0 1-5.5 15q-1.48 1.006-3.5 0l-2-4a270 270 0 0 1-3-19q.801-7.29-3-13-.87-5.463-1.5-11-.575-.834-1.5-1-.585-9.673-5-18a104.3 104.3 0 0 0-7-23q.024-9.087-5-16-1.979-6.442-4-13-.63-3.261 0-6 1.236 2.881 4 4"/>
    <path style="opacity:1" fill="#949494" d="M104.5 229.5q5.024 6.913 5 16a279 279 0 0 0-5-16"/>
    <path style="opacity:1" fill="#8c8c8c" d="M120.5 240.5q3.388 1.266 3 5-2.625-1.739-3-5"/>
    <path style="opacity:1" fill="silver" d="M375.5 259.5a257 257 0 0 0-32 1 5.6 5.6 0 0 0-1 3q.11 2.29-2 3a55 55 0 0 1 2-7q16.74-1.986 33 0"/>
    <path style="opacity:1" fill="#767676" d="m375.5 259.5 8 2a1641 1641 0 0 1-26.5-1l-12.5 1q-.533 1.533-2 2a5.6 5.6 0 0 1 1-3 257 257 0 0 1 32-1"/>
    <path style="opacity:1" fill="#0c0c0c" d="M383.5 261.5q2.448.487 3 3a40.3 40.3 0 0 0-7 8 14 14 0 0 0-3.5 1 998 998 0 0 1-10.5 8q-3.373.87-5 4a66 66 0 0 1-13 8.5q-3.072 2.934-5 6.5-1.488-.258-2 1-5.332.831-7 6a254 254 0 0 0-35 35q-4.341 2.073-7.5 6a8.4 8.4 0 0 1-.5-4q5.486-4.962 8-12 3.873-3.808 6-9a452 452 0 0 1 13-21q3.357-2.03 4-6 7.486-11.491 15-23 2.893-2.34 4-6v-1q2.11-.71 2-3 1.467-.467 2-2l12.5-1q13.25.607 26.5 1"/>
    <path style="opacity:1" fill="#8a8a8a" d="M340.5 267.5q-1.107 3.66-4 6 .672-4.008 4-6"/>
    <path style="opacity:1" fill="#717171" d="m365.5 281.5-3 4h-2q1.627-3.13 5-4"/>
    <path style="opacity:1" fill="#c7c7c7" d="M379.5 272.5a72 72 0 0 0-10 9.5 46.4 46.4 0 0 0-7 3.5l3-4a998 998 0 0 0 10.5-8 14 14 0 0 1 3.5-1"/>
    <path style="opacity:1" fill="#7d7d7d" d="M116.5 268.5q4.415 8.327 5 18-3.286-8.632-5-18"/>
    <path style="opacity:1" fill="#b1b1b1" d="M360.5 285.5q.03 2.464-2 4-7.341 3.31-12 9.5-2.101.615-4 1.5 1.928-3.566 5-6.5a66 66 0 0 0 13-8.5"/>
    <path style="opacity:.039" fill="#d1d1e6" d="M1856.5 288.5c12.96 1.981 26.29 2.648 40 2a421 421 0 0 1-41 1c-.24-1.291.1-2.291 1-3"/>
    <path style="opacity:1" fill="#868686" d="M321.5 296.5q-.643 3.97-4 6 1.197-3.699 4-6"/>
    <path style="opacity:1" fill="#b6b6b6" d="M121.5 286.5q.925.166 1.5 1 .63 5.537 1.5 11 .637 6.865 3 13a270 270 0 0 0 3 19q-2.892-5.514-4-12a399 399 0 0 1-5-32"/>
    <path style="opacity:1" fill="#afafaf" d="M147.5 291.5a419 419 0 0 0-1.5 15 111.7 111.7 0 0 1-5.5 19 19.2 19.2 0 0 1 1-6 700 700 0 0 1 4.5-26q.417-1.374 1.5-2"/>
    <path style="opacity:1" fill="#656565" d="M340.5 301.5a2464 2464 0 0 0-7 6q1.668-5.169 7-6"/>
    <path style="opacity:1" fill="#4e4e4e" d="M124.5 298.5q3.801 5.71 3 13-2.363-6.135-3-13"/>
    <path style="opacity:1" fill="#777" d="M141.5 319.5a19.2 19.2 0 0 0-1 6q.354 4.994-2.5 9-3.135 3.775-5.5 0 2.02 1.006 3.5 0a816 816 0 0 0 5.5-15"/>
    <path style="opacity:1" fill="#767676" d="M304.5 323.5q-2.127 5.192-6 9 1.668-5.502 6-9"/>
    <path style="opacity:1" fill="#a8a8a8" d="M298.5 332.5q-2.514 7.038-8 12 1.724-7.586 8-12"/>
    <path style="opacity:1" fill="#393939" d="M298.5 342.5a114 114 0 0 0-16 20q-1.496.045-2-1.5a17.5 17.5 0 0 0 3-5.5 150 150 0 0 0 7-11 8.4 8.4 0 0 0 .5 4q3.159-3.927 7.5-6"/>
    <path style="opacity:1" fill="#787878" d="M283.5 355.5a17.5 17.5 0 0 1-3 5.5q.504 1.545 2 1.5a313 313 0 0 0-20 28q-1.663 1.635-3 0a805 805 0 0 1 24-35"/>
</svg>
