<svg xmlns="http://www.w3.org/2000/svg" width="2048" height="452" style="shape-rendering:geometricPrecision;text-rendering:geometricPrecision;image-rendering:optimizeQuality;fill-rule:evenodd;clip-rule:evenodd">
    <path style="opacity:.991" fill="#fdfdfe" d="M474.5 129.5q48.597-3.233 80.5 33 23.576 34.842 19 77-10.684 79.682-91 85-50.8-1.144-79-43-20.775-42.779-9-89 11.46-37.96 47.5-54.5 15.514-6.84 32-8.5m3 50q36.38-.38 40.5 36 3.585 22.734-7 43-17.618 23.4-44.5 11.5-16.83-12.399-18.5-33.5-3.068-21.656 7-41 7.852-13.029 22.5-16"/>
    <path style="opacity:.99" fill="#fdfdfd" d="M660.5 129.5q31.385-2.882 61 7.5 31.017 14.278 39 47.5-28.004.25-56-.5-11.373-11.13-27.5-10.5-8.277-.493-15.5 3.5-8.507 6.005-2 14a22.6 22.6 0 0 0 8 4 3888 3888 0 0 1 41 6q62.423 10.605 55.5 73.5-11.645 39.726-52.5 47.5-36.16 6.607-71-5-28.558-12.376-41.5-40.5a62.6 62.6 0 0 1-3.5-13q29.517-.5 59 1 11.01 15.615 30.5 15 9.806-.09 18.5-4.5 6.271-6.892 2.5-15.5a17.8 17.8 0 0 0-5.5-4.5 729 729 0 0 0-49-9q-62.776-16.29-47.5-79.5 4.579-10.416 12.5-18.5 19.458-15.485 44-18.5"/>
    <path style="opacity:.993" fill="#fdfdfe" d="M11.5 132.5q30.005-.25 60 .5a4073 4073 0 0 1 60.5 89.5l1-89a697 697 0 0 1 52.5-1v189a553 553 0 0 1-47-1 12253 12253 0 0 0-73.5-106q-.75 52.998-.5 106h-53z"/>
    <path style="opacity:.987" fill="#fefefe" d="M275.5 178.5v22q28.005-.25 56 .5.988 11.136 1 22.5a257 257 0 0 1-1 22.5q-27.995.75-56 .5v27h104v46h-159v-185h150v43q-47.757-.497-95 1"/>
    <path style="opacity:.991" fill="#fdfdfd" d="M1074.5 139.5q31.515-.5 63 1c19.83 29.667 39.67 59.333 59.5 89 .5-29.998.67-59.998.5-90h52v188c-15.34.167-30.67 0-46-.5a5849 5849 0 0 1-73.5-106.5c-.5 35.332-.67 70.665-.5 106a750 750 0 0 1-54.5-1c-.5-61.999-.67-123.999-.5-186"/>
    <path style="opacity:.986" fill="#fefefe" d="M1272.5 139.5h175v47h-59v140h-56v-140h-60z"/>
    <path style="opacity:.991" fill="#fefefe" d="M1507.5 139.5c21.24-.327 42.41.006 63.5 1a20487 20487 0 0 0 68.5 186c-19.67.167-39.34 0-59-.5q-4.635-12.669-9-25.5c-22.66-1-45.32-1.333-68-1a442 442 0 0 0-8 27h-56c22.66-62.309 45.33-124.642 68-187m29 65q2.955 2.892 4.5 7c4.64 14.258 9.47 28.424 14.5 42.5q-18 1-36 0a867 867 0 0 0 17-49.5"/>
    <path style="opacity:.989" fill="#fefefe" d="M1657.5 139.5c37.67-.167 75.33 0 113 .5 36.95 3.442 55.61 23.609 56 60.5.89 23.728-8.78 41.561-29 53.5a1504 1504 0 0 1 41 71.5q-30 2-60 0a5794 5794 0 0 0-36-63.5c-10.33-.5-20.66-.666-31-.5v65h-53c-1-62.262-1.33-124.595-1-187m54 46q24.06-.549 48 1.5c8.54 3.252 11.71 9.419 9.5 18.5-1.63 4.562-4.79 7.395-9.5 8.5a434 434 0 0 1-48 1.5z"/>
    <path style="opacity:.991" fill="#fefdfe" d="M1908.5 139.5a985 985 0 0 1 62.5 1 1572 1572 0 0 1 23 59 5761 5761 0 0 1 45.5 127c-19.34.333-38.68 0-58-1a745 745 0 0 0-9-25c-22.66-1-45.32-1.333-68-1q-3.45 13.612-9 26.5c-18.33.5-36.66.667-55 .5a605 605 0 0 1 10.5-32c19.18-51.688 38.35-103.354 57.5-155m29 65a531 531 0 0 1 18 49 290 290 0 0 1-34 1 2147 2147 0 0 1 16-50"/>
    <path style="opacity:.975" fill="#fbfbfc" d="M844.5 141.5q12.54-.497 25 1a7630 7630 0 0 0-66 185h-24z"/>
    <path style="opacity:.973" fill="#fcfcfc" d="M913.5 141.5h24a61470 61470 0 0 1-65.5 185 75 75 0 0 1-12 1q-6.516.207-12.5-1.5a12127 12127 0 0 0 66-184.5"/>
    <path style="opacity:.98" fill="#fcfcfd" d="M945.5 141.5a237 237 0 0 1 30.5 1 58181 58181 0 0 0 70.5 185c-10.25.319-20.42-.014-30.5-1a20767 20767 0 0 1-70.5-185"/>
    <path style="opacity:.09" fill="#dfdfe0" d="M1657.5 139.5c-.33 62.405 0 124.738 1 187-1.33-30.826-2-61.993-2-93.5 0-31.335.33-62.502 1-93.5"/>
    <path style="opacity:.09" fill="#dbdae7" d="M275.5 178.5a2256 2256 0 0 1 95-1v-43h-150v185h159v-46a553 553 0 0 1 1 47h-161q-.25-93.501.5-187a5758 5758 0 0 1 151.5-1v46z"/>
</svg>
