<svg xmlns="http://www.w3.org/2000/svg" width="1280" height="154" style="shape-rendering:geometricPrecision;text-rendering:geometricPrecision;image-rendering:optimizeQuality;fill-rule:evenodd;clip-rule:evenodd">
  <path style="opacity:1" fill="#0c0c0b" d="M331.5 28.5q24.04-3.14 42.5 12 6.198 7.4 7.5 17-14.009.25-28-.5-9.975-8.64-22-3-2.627 5.915 4 7a133.4 133.4 0 0 1 33 7q13.098 6.1 14.5 20.5 3.485 22.779-16.5 33.5-27.494 10.182-53-4-11.806-8.859-14-23.5 14.508-.25 29 .5 5.59 7.918 15.5 7.5 8.08 1.082 11.5-6-1.74-4.882-7-5.5-19.251-.864-36-10-13.75-12.26-9.5-30.5 2.31-9.798 10.5-15.5 8.702-4.646 18-6.5m-92 0q48.552.801 50 49.5-1.66 44.158-45.5 48.5-45.262-4.77-45.5-50.5 1.705-40.428 41-47.5m2 26q20.703 1.787 20 23 1.058 19.17-17.5 23-18.102-4.145-17.5-23-1.055-17.454 15-23m-230-24a226 226 0 0 1 30 1 1550 1550 0 0 1 29.5 44q.75-22.494.5-45h25v94a133 133 0 0 1-23-1L38 72.5q-.75 25.995-.5 52h-26zm103 0h74v24h-47v9h28v24h-28v12h52v25h-79z"/>
  <path style="opacity:1" fill="#0c0c0c" d="M536.5 33.5q15.508-.25 31 .5A3151 3151 0 0 1 597 78.5q.75-22.494.5-45h25v94a133 133 0 0 1-23-1l-35.5-51q-.75 25.995-.5 52h-27z"/>
  <path style="opacity:1" fill="#0c0c0b" d="M634.5 33.5h86v25h-29v69h-27v-69h-30zm116 0a241 241 0 0 1 31 1 3887 3887 0 0 1 34 93q-14.535.498-29-1l-4-11a193 193 0 0 0-34-.5 54.6 54.6 0 0 0-4 12.5h-27a28.8 28.8 0 0 1 2.5-11 4130 4130 0 0 0 30.5-83m14 34q1.935.837 2.5 3a639 639 0 0 0 6.5 19 65 65 0 0 1-16 1 457 457 0 0 1 7-23m60-34q29.504-.25 59 .5 18.77 2.275 23.5 20.5 5.45 22.787-12.5 37a845 845 0 0 0 17.5 30 10.1 10.1 0 0 1 1.5 6q-14.535.498-29-1l-17-30a65 65 0 0 0-16-1v32h-27zm27 24q12.59-.495 25 1.5 7.813 5.208 0 11a126 126 0 0 1-25 1.5zm97-24q15.873-.48 31.5 1a3107 3107 0 0 1 33.5 93q-14.535.498-29-1l-4-11a145 145 0 0 0-34 0 42.4 42.4 0 0 0-4 12h-27a19 19 0 0 1 1.5-8 4438 4438 0 0 0 31.5-86m14 34q1.496-.045 2 1.5a743 743 0 0 0 7 20.5 65 65 0 0 1-16 1 458 458 0 0 1 7-23m-539-33h11a2938 2938 0 0 1-31.5 91q-5.754 2.833-12.5 2a5401 5401 0 0 1 33-93m34 0h11a3823 3823 0 0 1-32 93h-12a2566 2566 0 0 1 33-93m16 0q7.07-.49 14 1a2669 2669 0 0 1 35 92 57.2 57.2 0 0 1-15-1 12806 12806 0 0 0-32.5-84 19 19 0 0 1-1.5-8m636 7c19.27-3.295 31.44 4.371 36.5 23q3 20 0 40c-5.05 18.786-17.22 26.286-36.5 22.5-8.74-2.404-14.57-7.904-17.5-16.5a51.2 51.2 0 0 1-3-11q-1.005-14.5 0-29c.98-14.009 7.81-23.676 20.5-29m4 16c9.48-1.037 14.64 3.296 15.5 13q1.005 14.5 0 29c-1.31 9.332-6.47 13.165-15.5 11.5-3.59-3.016-5.76-6.849-6.5-11.5-1.71-12.017-1.05-24.017 2-36q1.995-3.24 4.5-6m69-16c6.34-.166 12.68 0 19 .5a36.3 36.3 0 0 1 11 4c.58.893.91 1.893 1 3a113 113 0 0 0-3 12.5 36.5 36.5 0 0 1-11-3.5q-28.815-2.933-27 26.5c-.94 9.428 1.73 17.595 8 24.5a36.6 36.6 0 0 0 11.5 3.5 116 116 0 0 0 18.5-5c1.38 4.956 2.22 9.956 2.5 15-6.8 3.932-14.14 5.599-22 5q-30.645.368-36-30-1.005-12.5 0-25c2.76-16.249 11.93-26.582 27.5-31m58 0c10.6-.839 20.93.328 31 3.5 1.08.674 1.75 1.674 2 3q-1.185 6.879-6 11.5c-7.44-2.797-15.1-3.63-23-2.5-6.26 4.167-6.59 8.833-1 14 8.94 3.47 17.6 7.47 26 12a30.45 30.45 0 0 1 7.5 11.5c4.24 17.051-1.93 27.885-18.5 32.5-11.59 1.38-22.92.38-34-3-2.26-.453-3.59-1.786-4-4 .96-3.891 2.13-7.725 3.5-11.5.52-1.016 1.35-1.682 2.5-2q9.825 5.44 21 6c4.81-.32 8.64-2.32 11.5-6q2.355-7.55-4.5-11.5a494 494 0 0 0-23-10c-9.58-6.734-12.75-15.9-9.5-27.5 3.61-8.452 9.78-13.785 18.5-16m-209 1c8.34-.166 16.67 0 25 .5q22.545 5.276 25.5 28.5 8.385 64.365-55.5 54v-82c1.91.285 3.58-.049 5-1m12 16q14.97-2.241 19.5 12a80.8 80.8 0 0 1 1 24c-2.15 11.32-8.99 16.986-20.5 17z"/>
</svg>
