<?xml version="1.0" encoding="UTF-8"?>
<!DOCTYPE svg PUBLIC "-//W3C//DTD SVG 1.1//EN" "http://www.w3.org/Graphics/SVG/1.1/DTD/svg11.dtd">
<svg xmlns="http://www.w3.org/2000/svg" version="1.1" width="1280px" height="154px" style="shape-rendering:geometricPrecision; text-rendering:geometricPrecision; image-rendering:optimizeQuality; fill-rule:evenodd; clip-rule:evenodd" xmlns:xlink="http://www.w3.org/1999/xlink">
<g><path style="opacity:1" fill="#090706" d="M 116.5,147.5 C 116.5,146.833 116.167,146.5 115.5,146.5C 115.5,145.833 115.5,145.167 115.5,144.5C 120.473,136.517 125.473,128.517 130.5,120.5C 137.389,119.817 144.222,119.15 151,118.5C 154.399,110.662 158.733,103.328 164,96.5C 164.976,92.673 164.143,89.3396 161.5,86.5C 158.935,80.3672 155.601,74.7006 151.5,69.5C 151.573,67.9731 150.906,66.9731 149.5,66.5C 149.119,65.0689 148.119,64.2355 146.5,64C 149.5,60.4864 151.833,56.6531 153.5,52.5C 154.945,49.7747 156.278,46.9414 157.5,44C 157.285,42.0922 156.285,40.9256 154.5,40.5C 151.861,35.8505 149.194,31.1838 146.5,26.5C 136.549,24.6863 126.215,23.8529 115.5,24C 114.956,23.2828 114.289,22.7828 113.5,22.5C 111.527,18.543 109.194,14.8763 106.5,11.5C 106.167,10.8333 105.833,10.1667 105.5,9.5C 105.389,8.88258 105.056,8.38258 104.5,8C 99.3333,7.83333 94.1667,7.66667 89,7.5C 83.4543,7.50544 78.2876,8.17211 73.5,9.5C 71.7585,11.9236 70.4252,14.5902 69.5,17.5C 67.2729,18.4006 66.2729,20.0672 66.5,22.5C 63.0824,26.3281 60.4157,30.6614 58.5,35.5C 50.4006,36.1382 42.4006,36.8048 34.5,37.5C 31.4339,42.5854 28.7672,47.9187 26.5,53.5C 25.4017,54.6009 25.235,55.9343 26,57.5C 29.8759,64.5937 33.7092,71.5937 37.5,78.5C 38.999,80.1643 39.999,82.1643 40.5,84.5C 38.0259,88.2948 36.0259,92.2948 34.5,96.5C 33.8333,96.8333 33.1667,97.1667 32.5,97.5C 32.4142,96.5041 32.7476,95.6708 33.5,95C 32.8333,94.6667 32.1667,94.3333 31.5,94C 32.614,92.4301 33.9474,91.0968 35.5,90C 34.6456,88.119 34.9789,86.2857 36.5,84.5C 36.3062,82.9299 36.3062,81.4299 36.5,80C 32.1262,72.4682 27.7928,64.4682 23.5,56C 24.3632,53.7735 25.3632,51.6068 26.5,49.5C 26.5166,43.7266 28.1833,38.2266 31.5,33C 36.8642,32.8295 42.1975,32.3295 47.5,31.5C 47.2907,30.914 46.9574,30.414 46.5,30C 48.8333,29.6667 51.1667,29.3333 53.5,29C 55.1274,26.2458 56.6274,23.4125 58,20.5C 59.3024,19.9152 60.469,19.2485 61.5,18.5C 63.1288,17.3747 64.6288,16.0414 66,14.5C 68.0726,11.2703 69.906,7.937 71.5,4.5C 82.8637,4.33126 93.8637,4.16459 104.5,4C 111.448,4.94774 115.948,8.78107 118,15.5C 119.873,17.7089 122.04,19.5422 124.5,21C 132.214,22.2112 140.214,22.8778 148.5,23C 150.001,24.2515 151.668,25.2515 153.5,26C 155.54,29.9144 157.707,33.7478 160,37.5C 160.667,39.8333 160.667,42.1667 160,44.5C 155.799,50.7432 154.799,57.4099 157,64.5C 161.798,72.5576 165.631,81.0576 168.5,90C 165.057,98.0552 161.891,105.889 159,113.5C 157.01,116.488 154.677,119.155 152,121.5C 150.455,120.179 149.289,120.512 148.5,122.5C 142.489,123.077 137.489,125.577 133.5,130C 134.167,130.333 134.833,130.667 135.5,131C 133.91,132.046 132.41,133.213 131,134.5C 127.915,140.75 123.082,145.083 116.5,147.5 Z"/></g>
<g><path style="opacity:1" fill="#58341b" d="M 105.5,9.5 C 94.784,8.23709 84.1173,8.23709 73.5,9.5C 78.2876,8.17211 83.4543,7.50544 89,7.5C 94.1667,7.66667 99.3333,7.83333 104.5,8C 105.056,8.38258 105.389,8.88258 105.5,9.5 Z"/></g>
<g><path style="opacity:1" fill="#d08453" d="M 105.5,9.5 C 105.833,10.1667 106.167,10.8333 106.5,11.5C 106.66,13.1992 106.494,14.8659 106,16.5C 98.3798,16.0759 90.7132,15.7425 83,15.5C 82.3333,16.1667 81.6667,16.8333 81,17.5C 77.5502,16.4121 73.7168,16.4121 69.5,17.5C 70.4252,14.5902 71.7585,11.9236 73.5,9.5C 84.1173,8.23709 94.784,8.23709 105.5,9.5 Z"/></g>
<g><path style="opacity:1" fill="#000000" d="M 61.5,18.5 C 60.8333,17.1667 60.8333,17.1667 61.5,18.5 Z"/></g>
<g><path style="opacity:1" fill="#d69468" d="M 106.5,11.5 C 109.194,14.8763 111.527,18.543 113.5,22.5C 113.511,24.0174 114.177,25.1841 115.5,26C 118.482,26.498 121.482,26.6646 124.5,26.5C 124.631,27.2389 124.464,27.9056 124,28.5C 115.445,27.716 107.112,27.3827 99,27.5C 93.2488,28.3104 87.4155,28.8104 81.5,29C 80.5,31 79.5,31 78.5,29C 73.9954,28.3445 69.6621,28.0112 65.5,28C 66.6721,27.5814 67.6721,26.9147 68.5,26C 67.1772,25.1841 66.5106,24.0174 66.5,22.5C 66.2729,20.0672 67.2729,18.4006 69.5,17.5C 73.7168,16.4121 77.5502,16.4121 81,17.5C 81.6667,16.8333 82.3333,16.1667 83,15.5C 90.7132,15.7425 98.3798,16.0759 106,16.5C 106.494,14.8659 106.66,13.1992 106.5,11.5 Z"/></g>
<g><path style="opacity:1" fill="#5e402c" d="M 113.5,22.5 C 114.289,22.7828 114.956,23.2828 115.5,24C 126.215,23.8529 136.549,24.6863 146.5,26.5C 139.167,26.5 131.833,26.5 124.5,26.5C 121.482,26.6646 118.482,26.498 115.5,26C 114.177,25.1841 113.511,24.0174 113.5,22.5 Z"/></g>
<g><path style="opacity:1" fill="#d79f7a" d="M 66.5,22.5 C 66.5106,24.0174 67.1772,25.1841 68.5,26C 67.6721,26.9147 66.6721,27.5814 65.5,28C 69.6621,28.0112 73.9954,28.3445 78.5,29C 79.5,31 80.5,31 81.5,29C 87.4155,28.8104 93.2488,28.3104 99,27.5C 107.112,27.3827 115.445,27.716 124,28.5C 124.464,27.9056 124.631,27.2389 124.5,26.5C 131.833,26.5 139.167,26.5 146.5,26.5C 149.194,31.1838 151.861,35.8505 154.5,40.5C 153.193,39.8466 151.86,39.1799 150.5,38.5C 145.1,39.7603 139.767,41.0937 134.5,42.5C 128.828,42.2401 123.161,41.9068 117.5,41.5C 115.708,41.634 114.042,41.3007 112.5,40.5C 101.068,39.1458 90.0677,36.1458 79.5,31.5C 79.1667,31.8333 78.8333,32.1667 78.5,32.5C 79.8889,34.8676 81.2222,37.2009 82.5,39.5C 79.2102,38.7425 76.0436,38.7425 73,39.5C 71.6667,36.8333 70.3333,36.8333 69,39.5C 66.9654,38.6261 64.6321,38.2928 62,38.5C 61.5357,39.0944 61.369,39.7611 61.5,40.5C 59.7497,39.3406 58.7497,37.674 58.5,35.5C 60.4157,30.6614 63.0824,26.3281 66.5,22.5 Z"/></g>
<g><path style="opacity:1" fill="#0b0705" d="M 112.5,40.5 C 103,41.3824 93.3334,41.3824 83.5,40.5C 83.5,39.8333 83.1667,39.5 82.5,39.5C 81.2222,37.2009 79.8889,34.8676 78.5,32.5C 78.8333,32.1667 79.1667,31.8333 79.5,31.5C 90.0677,36.1458 101.068,39.1458 112.5,40.5 Z"/></g>
<g><path style="opacity:1" fill="#624938" d="M 58.5,35.5 C 58.7497,37.674 59.7497,39.3406 61.5,40.5C 61.6287,42.2161 61.962,43.8828 62.5,45.5C 60.4848,43.3239 58.8181,40.8239 57.5,38C 49.8406,37.5003 42.1739,37.3336 34.5,37.5C 42.4006,36.8048 50.4006,36.1382 58.5,35.5 Z"/></g>
<g><path style="opacity:1" fill="#f9f9f9" d="M 378.5,37.5 C 405.338,37.6685 419.338,51.1685 420.5,78C 419.548,102.452 406.881,115.619 382.5,117.5C 357.703,115.097 345.036,101.43 344.5,76.5C 345.495,54.0962 356.829,41.0962 378.5,37.5 Z M 381.5,58.5 C 391.735,60.6097 396.402,66.9431 395.5,77.5C 396.323,87.1673 392.157,93.5007 383,96.5C 373.297,93.9515 368.797,87.6182 369.5,77.5C 368.74,67.9949 372.74,61.6616 381.5,58.5 Z"/></g>
<g><path style="opacity:1" fill="#f9f9f9" d="M 453.5,37.5 C 463.551,36.6462 473.218,38.1462 482.5,42C 489.151,46.319 493.485,52.319 495.5,60C 487.331,61.6319 478.998,61.9652 470.5,61C 465.745,56.6466 460.411,55.8133 454.5,58.5C 453.208,61.4107 454.208,63.2441 457.5,64C 467.884,64.8768 477.884,67.2102 487.5,71C 496.136,78.5926 498.97,88.0926 496,99.5C 493.882,106.583 489.382,111.416 482.5,114C 466.839,119.455 451.839,118.122 437.5,110C 432.061,105.128 428.394,99.1283 426.5,92C 435.167,91.3333 443.833,91.3333 452.5,92C 455.242,95.8328 459.075,97.6661 464,97.5C 467.834,97.6812 470.667,96.1812 472.5,93C 471.743,91.4878 470.743,90.1545 469.5,89C 457.849,88.0062 446.849,85.0062 436.5,80C 431.287,75.1709 428.954,69.1709 429.5,62C 429.594,58.1122 430.094,54.2788 431,50.5C 433.5,47.3333 436.333,44.5 439.5,42C 444.243,40.3621 448.91,38.8621 453.5,37.5 Z"/></g>
<g><path style="opacity:1" fill="#f9f9f9" d="M 192.5,39.5 C 201.525,39.1685 210.525,39.5018 219.5,40.5C 226.925,51.4064 234.091,62.4064 241,73.5C 241.5,62.1716 241.667,50.8382 241.5,39.5C 248.833,39.5 256.167,39.5 263.5,39.5C 263.5,64.8333 263.5,90.1667 263.5,115.5C 256.825,115.666 250.158,115.5 243.5,115C 234.333,101.833 225.167,88.6667 216,75.5C 215.5,88.8292 215.333,102.163 215.5,115.5C 207.833,115.5 200.167,115.5 192.5,115.5C 192.5,90.1667 192.5,64.8333 192.5,39.5 Z"/></g>
<g><path style="opacity:1" fill="#f9f9f9" d="M 276.5,39.5 C 297.167,39.5 317.833,39.5 338.5,39.5C 338.5,45.8333 338.5,52.1667 338.5,58.5C 325.833,58.5 313.167,58.5 300.5,58.5C 300.5,61.1667 300.5,63.8333 300.5,66.5C 308.167,66.5 315.833,66.5 323.5,66.5C 323.5,72.8333 323.5,79.1667 323.5,85.5C 315.833,85.5 308.167,85.5 300.5,85.5C 300.5,88.8333 300.5,92.1667 300.5,95.5C 314.5,95.5 328.5,95.5 342.5,95.5C 342.5,102.167 342.5,108.833 342.5,115.5C 320.5,115.5 298.5,115.5 276.5,115.5C 276.5,90.1667 276.5,64.8333 276.5,39.5 Z"/></g>
<g><path style="opacity:1" fill="#f8f8f8" d="M 619.5,41.5 C 628.506,41.3336 637.506,41.5002 646.5,42C 653.298,53.1002 660.464,63.9336 668,74.5C 668.5,63.505 668.667,52.505 668.5,41.5C 676.167,41.5 683.833,41.5 691.5,41.5C 691.5,67.1667 691.5,92.8333 691.5,118.5C 684.468,118.83 677.468,118.497 670.5,117.5C 661.913,104.659 653.08,91.992 644,79.5C 643.5,92.4957 643.333,105.496 643.5,118.5C 635.58,118.815 627.747,118.482 620,117.5C 619.5,92.1689 619.333,66.8355 619.5,41.5 Z"/></g>
<g><path style="opacity:1" fill="#f9f9f9" d="M 699.5,41.5 C 723.167,41.5 746.833,41.5 770.5,41.5C 770.5,48.5 770.5,55.5 770.5,62.5C 762.833,62.5 755.167,62.5 747.5,62.5C 747.5,81.1667 747.5,99.8333 747.5,118.5C 739.5,118.5 731.5,118.5 723.5,118.5C 723.5,99.8333 723.5,81.1667 723.5,62.5C 715.5,62.5 707.5,62.5 699.5,62.5C 699.5,55.5 699.5,48.5 699.5,41.5 Z"/></g>
<g><path style="opacity:1" fill="#f9f9f9" d="M 793.5,41.5 C 802.525,41.1685 811.525,41.5018 820.5,42.5C 829.098,65.1279 837.598,87.7946 846,110.5C 847.079,113.063 847.579,115.729 847.5,118.5C 839.14,118.831 830.807,118.498 822.5,117.5C 821.346,114.548 820.346,111.548 819.5,108.5C 810.853,107.335 802.186,107.168 793.5,108C 792.016,111.269 790.682,114.602 789.5,118C 781.841,118.5 774.174,118.666 766.5,118.5C 766.726,114.708 767.56,111.041 769,107.5C 777.353,85.5599 785.52,63.5599 793.5,41.5 Z M 805.5,71.5 C 808.039,76.4266 810.039,81.76 811.5,87.5C 807.774,87.8226 804.107,87.4892 800.5,86.5C 802.771,81.687 804.438,76.687 805.5,71.5 Z"/></g>
<g><path style="opacity:1" fill="#f9f9f9" d="M 853.5,41.5 C 870.17,41.3334 886.837,41.5001 903.5,42C 920.063,46.6017 926.229,57.435 922,74.5C 920.348,80.4734 917.181,85.4734 912.5,89.5C 917.331,97.828 922.164,106.161 927,114.5C 936.722,90.7745 945.888,66.7745 954.5,42.5C 963.475,41.5018 972.475,41.1685 981.5,41.5C 989.841,64.5126 998.341,87.5126 1007,110.5C 1007.57,113.168 1008.07,115.834 1008.5,118.5C 1000.14,118.831 991.807,118.498 983.5,117.5C 982.091,114.273 981.091,110.94 980.5,107.5C 971.827,107.334 963.16,107.5 954.5,108C 952.772,111.185 951.439,114.519 950.5,118C 934.49,118.833 918.49,118.666 902.5,117.5C 897.399,109.884 892.899,101.884 889,93.5C 885.27,92.5399 881.437,92.2065 877.5,92.5C 877.5,101.167 877.5,109.833 877.5,118.5C 869.5,118.5 861.5,118.5 853.5,118.5C 853.5,92.8333 853.5,67.1667 853.5,41.5 Z M 877.5,61.5 C 884.304,61.0638 890.971,61.7305 897.5,63.5C 899.214,66.7701 898.548,69.2701 895.5,71C 889.577,72.3041 883.577,72.8041 877.5,72.5C 877.5,68.8333 877.5,65.1667 877.5,61.5 Z M 966.5,71.5 C 969.076,76.5547 971.076,81.888 972.5,87.5C 968.774,87.8226 965.107,87.4892 961.5,86.5C 963.543,81.6017 965.21,76.6017 966.5,71.5 Z"/></g>
<g><path style="opacity:1" fill="#f8f8f8" d="M 527.5,42.5 C 531.167,42.5 534.833,42.5 538.5,42.5C 530.031,67.9079 521.364,93.2412 512.5,118.5C 508.5,118.5 504.5,118.5 500.5,118.5C 509.085,93.0821 518.085,67.7488 527.5,42.5 Z"/></g>
<g><path style="opacity:1" fill="#f8f8f8" d="M 555.5,42.5 C 558.833,42.5 562.167,42.5 565.5,42.5C 565.579,45.2706 565.079,47.9373 564,50.5C 555.724,73.1639 547.557,95.8305 539.5,118.5C 535.833,118.5 532.167,118.5 528.5,118.5C 536.967,92.9147 545.967,67.5813 555.5,42.5 Z"/></g>
<g><path style="opacity:1" fill="#f9f9f9" d="M 568.5,42.5 C 572.884,42.1744 577.217,42.5078 581.5,43.5C 591.632,68.2322 600.965,93.2322 609.5,118.5C 604.833,118.5 600.167,118.5 595.5,118.5C 595.477,116.073 594.977,113.74 594,111.5C 586.322,92.0723 578.656,72.7389 571,53.5C 569.69,49.9296 568.857,46.263 568.5,42.5 Z"/></g>
<g><path style="opacity:1" fill="#f9f9f9" d="M 1114.5,42.5 C 1131.58,41.113 1141.75,48.7797 1145,65.5C 1145.67,74.5 1145.67,83.5 1145,92.5C 1140.03,113.071 1127.53,119.571 1107.5,112C 1101.21,107.021 1097.37,100.521 1096,92.5C 1095.33,83.5 1095.33,74.5 1096,65.5C 1098.01,54.3401 1104.17,46.6735 1114.5,42.5 Z M 1116.5,57.5 C 1123.77,56.2166 1127.94,59.2166 1129,66.5C 1129.67,74.8333 1129.67,83.1667 1129,91.5C 1127.31,100.013 1122.64,102.346 1115,98.5C 1113.72,96.2827 1112.72,93.9494 1112,91.5C 1111.33,83.1667 1111.33,74.8333 1112,66.5C 1112.99,63.1943 1114.49,60.1943 1116.5,57.5 Z"/></g>
<g><path style="opacity:1" fill="#f9f9f9" d="M 1174.5,42.5 C 1183.25,41.4643 1191.41,43.131 1199,47.5C 1199.52,52.754 1198.19,57.4207 1195,61.5C 1188.98,57.788 1182.48,56.6213 1175.5,58C 1170.45,60.7199 1167.28,64.8865 1166,70.5C 1164.66,79.1684 1165.66,87.5017 1169,95.5C 1174.27,100.245 1180.44,101.745 1187.5,100C 1189.94,98.6966 1192.44,97.53 1195,96.5C 1195.77,96.6448 1196.44,96.9781 1197,97.5C 1198.74,101.705 1199.41,106.038 1199,110.5C 1196,112.081 1192.83,113.247 1189.5,114C 1168.46,118.75 1155.3,110.917 1150,90.5C 1149.33,83.1667 1149.33,75.8333 1150,68.5C 1153.25,55.0862 1161.42,46.4195 1174.5,42.5 Z"/></g>
<g><path style="opacity:1" fill="#f9f9f9" d="M 1223.5,42.5 C 1232.63,41.5164 1241.3,43.0164 1249.5,47C 1250.08,47.8926 1250.41,48.8926 1250.5,50C 1249.59,53.556 1248.59,57.056 1247.5,60.5C 1244.35,60.2634 1241.35,59.4301 1238.5,58C 1234.5,57.3333 1230.5,57.3333 1226.5,58C 1222.13,60.195 1221.46,63.195 1224.5,67C 1232.04,69.9535 1239.37,73.2868 1246.5,77C 1253.18,83.8069 1255.35,91.9736 1253,101.5C 1250.66,108.508 1245.82,112.674 1238.5,114C 1229.77,114.876 1221.1,114.542 1212.5,113C 1210.54,112.069 1208.54,111.236 1206.5,110.5C 1206.17,109.5 1205.83,108.5 1205.5,107.5C 1206.31,103.753 1207.31,100.086 1208.5,96.5C 1212.32,97.074 1215.99,98.2406 1219.5,100C 1224.17,100.667 1228.83,100.667 1233.5,100C 1237.93,97.4512 1238.59,94.1179 1235.5,90C 1228.2,86.6744 1220.87,83.341 1213.5,80C 1206.78,73.5835 1204.61,65.7502 1207,56.5C 1208,54.5 1209,52.5 1210,50.5C 1214.18,47.1637 1218.68,44.497 1223.5,42.5 Z"/></g>
<g><path style="opacity:1" fill="#dfb193" d="M 82.5,39.5 C 83.1667,39.5 83.5,39.8333 83.5,40.5C 85.9878,42.3878 88.9878,43.0545 92.5,42.5C 105.686,43.2013 119.019,43.868 132.5,44.5C 133.713,44.2528 134.38,43.5862 134.5,42.5C 139.767,41.0937 145.1,39.7603 150.5,38.5C 151.86,39.1799 153.193,39.8466 154.5,40.5C 156.285,40.9256 157.285,42.0922 157.5,44C 156.278,46.9414 154.945,49.7747 153.5,52.5C 153.5,51.5 153.5,50.5 153.5,49.5C 151.097,49.607 149.264,48.607 148,46.5C 146.667,47.8333 145.333,47.8333 144,46.5C 143.333,47.1667 142.667,47.8333 142,48.5C 117.039,47.7545 91.5395,47.7545 65.5,48.5C 64.7281,47.3065 63.7281,46.3065 62.5,45.5C 61.962,43.8828 61.6287,42.2161 61.5,40.5C 61.369,39.7611 61.5357,39.0944 62,38.5C 64.6321,38.2928 66.9654,38.6261 69,39.5C 70.3333,36.8333 71.6667,36.8333 73,39.5C 76.0436,38.7425 79.2102,38.7425 82.5,39.5 Z"/></g>
<g><path style="opacity:1" fill="#866753" d="M 117.5,41.5 C 123.161,41.9068 128.828,42.2401 134.5,42.5C 134.38,43.5862 133.713,44.2528 132.5,44.5C 119.019,43.868 105.686,43.2013 92.5,42.5C 101.017,42.8261 109.35,42.4927 117.5,41.5 Z"/></g>
<g><path style="opacity:1" fill="#533f32" d="M 83.5,40.5 C 93.3334,41.3824 103,41.3824 112.5,40.5C 114.042,41.3007 115.708,41.634 117.5,41.5C 109.35,42.4927 101.017,42.8261 92.5,42.5C 88.9878,43.0545 85.9878,42.3878 83.5,40.5 Z"/></g>
<g><path style="opacity:1" fill="#f9f9f9" d="M 1046.5,45.5 C 1081.24,41.4091 1095.74,56.7425 1090,91.5C 1085.76,108.213 1074.93,115.879 1057.5,114.5C 1052.8,114.408 1048.13,114.075 1043.5,113.5C 1043.5,91.1667 1043.5,68.8333 1043.5,46.5C 1044.79,46.7373 1045.79,46.404 1046.5,45.5 Z M 1058.5,58.5 C 1067.56,57.3846 1072.72,61.3846 1074,70.5C 1074.67,76.8333 1074.67,83.1667 1074,89.5C 1072.12,97.8958 1066.95,101.896 1058.5,101.5C 1058.5,87.1667 1058.5,72.8333 1058.5,58.5 Z"/></g>
<g><path style="opacity:1" fill="#6c5348" d="M 62.5,45.5 C 63.7281,46.3065 64.7281,47.3065 65.5,48.5C 65.8333,49.8333 66.1667,51.1667 66.5,52.5C 65.8333,52.1667 65.1667,51.8333 64.5,51.5C 63.8333,49.5 63.1667,47.5 62.5,45.5 Z"/></g>
<g><path style="opacity:1" fill="#e2b397" d="M 34.5,37.5 C 42.1739,37.3336 49.8406,37.5003 57.5,38C 58.8181,40.8239 60.4848,43.3239 62.5,45.5C 63.1667,47.5 63.8333,49.5 64.5,51.5C 63.2436,51.9038 62.0769,52.5705 61,53.5C 57.1474,53.6848 53.4808,53.3515 50,52.5C 48.2713,54.4337 46.2713,54.4337 44,52.5C 38.3428,52.8342 32.5095,53.1675 26.5,53.5C 28.7672,47.9187 31.4339,42.5854 34.5,37.5 Z"/></g>
<g><path style="opacity:1" fill="#e2bba3" d="M 153.5,52.5 C 151.833,56.6531 149.5,60.4864 146.5,64C 148.119,64.2355 149.119,65.0689 149.5,66.5C 146.975,65.9518 144.641,64.9518 142.5,63.5C 143.689,62.5713 145.022,62.238 146.5,62.5C 146.769,60.5714 146.269,58.9047 145,57.5C 118.484,57.8033 94.4844,57.8033 73,57.5C 72.51,58.7932 72.3433,60.1266 72.5,61.5C 88.3413,62.0065 104.008,63.0065 119.5,64.5C 115.167,64.5 110.833,64.5 106.5,64.5C 95.4315,63.8233 84.2648,63.1567 73,62.5C 72.6012,62.7284 72.4346,63.0618 72.5,63.5C 70.8958,62.713 70.2291,61.3797 70.5,59.5C 69.9213,56.6689 68.588,54.3356 66.5,52.5C 66.1667,51.1667 65.8333,49.8333 65.5,48.5C 91.5395,47.7545 117.039,47.7545 142,48.5C 142.667,47.8333 143.333,47.1667 144,46.5C 145.333,47.8333 146.667,47.8333 148,46.5C 149.264,48.607 151.097,49.607 153.5,49.5C 153.5,50.5 153.5,51.5 153.5,52.5 Z"/></g>
<g><path style="opacity:1" fill="#6e564e" d="M 66.5,52.5 C 68.588,54.3356 69.9213,56.6689 70.5,59.5C 68.412,57.6644 67.0787,55.3311 66.5,52.5 Z"/></g>
<g><path style="opacity:1" fill="#ebc9b3" d="M 149.5,66.5 C 150.906,66.9731 151.573,67.9731 151.5,69.5C 149.97,68.9332 148.47,68.2666 147,67.5C 142.823,68.9904 137.823,69.6571 132,69.5C 127.645,69.4043 123.645,69.0709 120,68.5C 119.333,69.8333 118.667,71.1667 118,72.5C 117.23,71.4019 116.397,71.4019 115.5,72.5C 116.399,69.605 117.733,66.9384 119.5,64.5C 104.008,63.0065 88.3413,62.0065 72.5,61.5C 72.3433,60.1266 72.51,58.7932 73,57.5C 94.4844,57.8033 118.484,57.8033 145,57.5C 146.269,58.9047 146.769,60.5714 146.5,62.5C 145.022,62.238 143.689,62.5713 142.5,63.5C 144.641,64.9518 146.975,65.9518 149.5,66.5 Z"/></g>
<g><path style="opacity:1" fill="#e8c9b7" d="M 64.5,51.5 C 65.1667,51.8333 65.8333,52.1667 66.5,52.5C 67.0787,55.3311 68.412,57.6644 70.5,59.5C 70.2291,61.3797 70.8958,62.713 72.5,63.5C 72.8333,64.5 73.5,65.1667 74.5,65.5C 75.5758,68.6484 76.9091,71.6484 78.5,74.5C 77.1779,74.67 76.0113,74.3366 75,73.5C 72.227,75.0466 69.227,76.0466 66,76.5C 64.2559,75.9638 62.4226,75.6304 60.5,75.5C 59.9478,77.0026 59.9478,78.6693 60.5,80.5C 58.9172,78.3374 57.5839,76.0041 56.5,73.5C 53.4992,68.1614 50.4992,62.828 47.5,57.5C 46.9984,56.479 46.3317,56.3123 45.5,57C 48.7515,62.9688 52.0848,68.8022 55.5,74.5C 56.5,77.8333 57.5,81.1667 58.5,84.5C 55.6803,83.5353 54.3469,81.5353 54.5,78.5C 50.0594,78.2856 45.8927,78.2856 42,78.5C 40.2453,77.33 39.2453,75.6633 39,73.5C 37.9914,75.0249 37.4914,76.6916 37.5,78.5C 33.7092,71.5937 29.8759,64.5937 26,57.5C 25.235,55.9343 25.4017,54.6009 26.5,53.5C 32.5095,53.1675 38.3428,52.8342 44,52.5C 46.2713,54.4337 48.2713,54.4337 50,52.5C 53.4808,53.3515 57.1474,53.6848 61,53.5C 62.0769,52.5705 63.2436,51.9038 64.5,51.5 Z"/></g>
<g><path style="opacity:1" fill="#67564f" d="M 56.5,73.5 C 55.8333,73.5 55.5,73.8333 55.5,74.5C 52.0848,68.8022 48.7515,62.9688 45.5,57C 46.3317,56.3123 46.9984,56.479 47.5,57.5C 50.4992,62.828 53.4992,68.1614 56.5,73.5 Z"/></g>
<g><path style="opacity:1" fill="#443832" d="M 106.5,64.5 C 95.6536,64.1722 84.9869,64.5056 74.5,65.5C 73.5,65.1667 72.8333,64.5 72.5,63.5C 72.4346,63.0618 72.6012,62.7284 73,62.5C 84.2648,63.1567 95.4315,63.8233 106.5,64.5 Z"/></g>
<g><path style="opacity:1" fill="#050404" d="M 106.5,64.5 C 110.833,64.5 115.167,64.5 119.5,64.5C 117.733,66.9384 116.399,69.605 115.5,72.5C 110.623,79.0787 106.29,86.0787 102.5,93.5C 99.4661,98.1893 96.4661,102.856 93.5,107.5C 92.874,101.618 90.874,96.2851 87.5,91.5C 84.3204,85.9891 81.3204,80.3225 78.5,74.5C 76.9091,71.6484 75.5758,68.6484 74.5,65.5C 84.9869,64.5056 95.6536,64.1722 106.5,64.5 Z"/></g>
<g><path style="opacity:1" fill="#0a0909" d="M 56.5,73.5 C 57.5839,76.0041 58.9172,78.3374 60.5,80.5C 62.932,85.0414 65.5987,89.3747 68.5,93.5C 69.4602,96.765 69.4602,100.098 68.5,103.5C 67.0762,105.515 66.4095,107.848 66.5,110.5C 65.4138,110.38 64.7472,109.713 64.5,108.5C 63.6716,105.521 63.0049,102.521 62.5,99.5C 62.2766,95.8379 61.2766,92.5046 59.5,89.5C 58.962,87.8828 58.6287,86.2161 58.5,84.5C 57.5,81.1667 56.5,77.8333 55.5,74.5C 55.5,73.8333 55.8333,73.5 56.5,73.5 Z"/></g>
<g><path style="opacity:1" fill="#f2e2d9" d="M 151.5,69.5 C 155.601,74.7006 158.935,80.3672 161.5,86.5C 160.85,86.1961 160.183,85.8627 159.5,85.5C 157.821,86.782 155.987,87.782 154,88.5C 151,88.1667 148,87.8333 145,87.5C 144.764,89.1193 143.931,90.1193 142.5,90.5C 143.953,89.1751 143.619,88.3418 141.5,88C 137.789,87.1747 134.122,87.3414 130.5,88.5C 128.566,90.7243 126.899,93.0576 125.5,95.5C 124.122,94.7656 122.622,94.0989 121,93.5C 116.414,93.2211 112.08,93.5545 108,94.5C 107,93.5 106,92.5 105,91.5C 104.292,92.3805 103.458,93.0472 102.5,93.5C 106.29,86.0787 110.623,79.0787 115.5,72.5C 116.397,71.4019 117.23,71.4019 118,72.5C 118.667,71.1667 119.333,69.8333 120,68.5C 123.645,69.0709 127.645,69.4043 132,69.5C 137.823,69.6571 142.823,68.9904 147,67.5C 148.47,68.2666 149.97,68.9332 151.5,69.5 Z"/></g>
<g><path style="opacity:1" fill="#f1e2da" d="M 78.5,74.5 C 81.3204,80.3225 84.3204,85.9891 87.5,91.5C 86.5416,91.0472 85.7083,90.3805 85,89.5C 84,90.5 83,91.5 82,92.5C 78.6667,91.1667 75.3333,91.1667 72,92.5C 69.8223,89.5315 68.6556,89.8649 68.5,93.5C 65.5987,89.3747 62.932,85.0414 60.5,80.5C 59.9478,78.6693 59.9478,77.0026 60.5,75.5C 62.4226,75.6304 64.2559,75.9638 66,76.5C 69.227,76.0466 72.227,75.0466 75,73.5C 76.0113,74.3366 77.1779,74.67 78.5,74.5 Z"/></g>
<g><path style="opacity:1" fill="#181717" d="M 142.5,90.5 C 136.312,94.494 130.312,98.8273 124.5,103.5C 122.829,106.492 120.829,109.159 118.5,111.5C 117.202,112.116 116.202,112.116 115.5,111.5C 118.833,106.167 122.167,100.833 125.5,95.5C 126.899,93.0576 128.566,90.7243 130.5,88.5C 134.122,87.3414 137.789,87.1747 141.5,88C 143.619,88.3418 143.953,89.1751 142.5,90.5 Z"/></g>
<g><path style="opacity:1" fill="#f7f5f4" d="M 58.5,84.5 C 58.6287,86.2161 58.962,87.8828 59.5,89.5C 59.7234,93.1621 60.7234,96.4954 62.5,99.5C 63.0049,102.521 63.6716,105.521 64.5,108.5C 64.7472,109.713 65.4138,110.38 66.5,110.5C 67.9238,108.485 68.5905,106.152 68.5,103.5C 69.4602,100.098 69.4602,96.765 68.5,93.5C 68.6556,89.8649 69.8223,89.5315 72,92.5C 75.3333,91.1667 78.6667,91.1667 82,92.5C 83,91.5 84,90.5 85,89.5C 85.7083,90.3805 86.5416,91.0472 87.5,91.5C 90.874,96.2851 92.874,101.618 93.5,107.5C 90.331,111.833 87.6643,116.5 85.5,121.5C 83.9373,122.945 82.604,124.611 81.5,126.5C 71.3084,128.336 60.9751,129.003 50.5,128.5C 48.8561,128.714 47.3561,128.38 46,127.5C 41.5756,119.926 37.409,112.259 33.5,104.5C 33.4013,101.763 33.7347,99.0961 34.5,96.5C 36.0259,92.2948 38.0259,88.2948 40.5,84.5C 39.999,82.1643 38.999,80.1643 37.5,78.5C 37.4914,76.6916 37.9914,75.0249 39,73.5C 39.2453,75.6633 40.2453,77.33 42,78.5C 45.8927,78.2856 50.0594,78.2856 54.5,78.5C 54.3469,81.5353 55.6803,83.5353 58.5,84.5 Z"/></g>
<g><path style="opacity:1" fill="#f4f4f4" d="M 161.5,86.5 C 164.143,89.3396 164.976,92.673 164,96.5C 158.733,103.328 154.399,110.662 151,118.5C 144.222,119.15 137.389,119.817 130.5,120.5C 125.473,128.517 120.473,136.517 115.5,144.5C 107.833,145.833 100.167,145.833 92.5,144.5C 88.3852,139.267 85.0518,133.6 82.5,127.5C 84.0075,125.819 85.0075,123.819 85.5,121.5C 89.1935,117.449 91.8602,112.783 93.5,107.5C 96.4661,102.856 99.4661,98.1893 102.5,93.5C 103.458,93.0472 104.292,92.3805 105,91.5C 106,92.5 107,93.5 108,94.5C 112.08,93.5545 116.414,93.2211 121,93.5C 122.622,94.0989 124.122,94.7656 125.5,95.5C 122.167,100.833 118.833,106.167 115.5,111.5C 113.838,114.12 112.172,116.787 110.5,119.5C 113.5,117.167 116.167,114.5 118.5,111.5C 120.829,109.159 122.829,106.492 124.5,103.5C 130.312,98.8273 136.312,94.494 142.5,90.5C 143.931,90.1193 144.764,89.1193 145,87.5C 148,87.8333 151,88.1667 154,88.5C 155.987,87.782 157.821,86.782 159.5,85.5C 160.183,85.8627 160.85,86.1961 161.5,86.5 Z"/></g>
<g><path style="opacity:1" fill="#95938e" d="M 59.5,89.5 C 61.2766,92.5046 62.2766,95.8379 62.5,99.5C 60.7234,96.4954 59.7234,93.1621 59.5,89.5 Z"/></g>
<g><path style="opacity:1" fill="#5f5e5d" d="M 34.5,96.5 C 33.7347,99.0961 33.4013,101.763 33.5,104.5C 32.5386,102.735 32.2053,100.735 32.5,98.5C 32.5,98.1667 32.5,97.8333 32.5,97.5C 33.1667,97.1667 33.8333,96.8333 34.5,96.5 Z"/></g>
<g><path style="opacity:1" fill="#9c9797" d="M 68.5,103.5 C 68.5905,106.152 67.9238,108.485 66.5,110.5C 66.4095,107.848 67.0762,105.515 68.5,103.5 Z"/></g>
<g><path style="opacity:1" fill="#636261" d="M 115.5,111.5 C 116.202,112.116 117.202,112.116 118.5,111.5C 116.167,114.5 113.5,117.167 110.5,119.5C 112.172,116.787 113.838,114.12 115.5,111.5 Z"/></g>
<g><path style="opacity:1" fill="#7d7a7b" d="M 93.5,107.5 C 91.8602,112.783 89.1935,117.449 85.5,121.5C 87.6643,116.5 90.331,111.833 93.5,107.5 Z"/></g>
<g><path style="opacity:1" fill="#757171" d="M 110.5,119.5 C 110.573,121.027 109.906,122.027 108.5,122.5C 108.427,120.973 109.094,119.973 110.5,119.5 Z"/></g>
<g><path style="opacity:1" fill="#6f6d6d" d="M 85.5,121.5 C 85.0075,123.819 84.0075,125.819 82.5,127.5C 82.5,126.833 82.1667,126.5 81.5,126.5C 82.604,124.611 83.9373,122.945 85.5,121.5 Z"/></g>
<g><path style="opacity:1" fill="#868181" d="M 108.5,122.5 C 107.609,124.609 106.442,126.609 105,128.5C 104.881,125.736 106.048,123.736 108.5,122.5 Z"/></g>
<g><path style="opacity:1" fill="#0b0b0b" d="M 32.5,98.5 C 32.2053,100.735 32.5386,102.735 33.5,104.5C 37.409,112.259 41.5756,119.926 46,127.5C 47.3561,128.38 48.8561,128.714 50.5,128.5C 58.9901,129.657 67.6567,129.824 76.5,129C 78.744,128.95 80.4107,128.117 81.5,126.5C 82.1667,126.5 82.5,126.833 82.5,127.5C 85.0518,133.6 88.3852,139.267 92.5,144.5C 99.7605,146.465 107.427,147.132 115.5,146.5C 115.5,146.833 115.5,147.167 115.5,147.5C 113.626,148.63 111.626,149.63 109.5,150.5C 103.397,149.922 97.3974,148.755 91.5,147C 87.8744,141.469 84.541,136.302 81.5,131.5C 80.7065,131.931 79.8732,132.265 79,132.5C 75.7137,130.604 72.2137,130.104 68.5,131C 70.1667,131.333 71.8333,131.667 73.5,132C 70.443,132.256 67.443,132.756 64.5,133.5C 61.223,132.746 57.8897,132.246 54.5,132C 58.8333,131.667 63.1667,131.333 67.5,131C 60.2971,130.782 53.1304,130.282 46,129.5C 44.6736,128.201 43.3402,126.868 42,125.5C 39.1991,118.565 35.8657,111.898 32,105.5C 31.2042,102.961 31.3709,100.628 32.5,98.5 Z"/></g>
<g><path style="opacity:1" fill="#949494" d="M 81.5,126.5 C 80.4107,128.117 78.744,128.95 76.5,129C 67.6567,129.824 58.9901,129.657 50.5,128.5C 60.9751,129.003 71.3084,128.336 81.5,126.5 Z"/></g>
<g><path style="opacity:1" fill="#969696" d="M 92.5,144.5 C 100.167,145.833 107.833,145.833 115.5,144.5C 115.5,145.167 115.5,145.833 115.5,146.5C 107.427,147.132 99.7605,146.465 92.5,144.5 Z"/></g>
<g><path style="opacity:1" fill="#000000" d="M 115.5,147.5 C 115.833,147.5 116.167,147.5 116.5,147.5C 116.315,148.17 115.981,148.17 115.5,147.5 Z"/></g>
</svg>
