<svg xmlns="http://www.w3.org/2000/svg" width="2048" height="474" style="shape-rendering:geometricPrecision;text-rendering:geometricPrecision;image-rendering:optimizeQuality;fill-rule:evenodd;clip-rule:evenodd">
  <path style="opacity:1" fill="#2158ee" d="M267.5 214.5q-2.317.305-4 2a97 97 0 0 0-7 11q-5.054 3.64-8 9a140.8 140.8 0 0 1-26 18q-5.156.834-9 4l-8 2a87 87 0 0 1-23 3 145 145 0 0 1-21-1q-38.49-7.263-62-39-1.683-1.695-4-2-28.77-49.462-5.5-102 39.504-65.727 116-51 57.389 18.128 72 77 6.628 36.51-10.5 69"/>
  <path style="opacity:.966" fill="#fefefe" d="M1194.5 134.5h32v44h20v28h-20c-.17 15.004 0 30.004.5 45q1.455 5.86 7.5 6.5 8.985.749 18 .5v31c-11.38.356-22.71-.144-34-1.5-17.14-5.408-24.98-17.241-23.5-35.5-.5-15.33-.67-30.663-.5-46h-17v-28h17z"/>
  <path style="opacity:.98" fill="#fefefe" d="M602.5 176.5q58.41-.325 65 57.5a44.2 44.2 0 0 1-2 13l-78 1q14.976 19.555 36.5 7.5a1218 1218 0 0 1 26.5 20q-27.726 24.88-63 12.5-40.747-20.24-34.5-65.5 10.094-38.9 49.5-46m1 32q16.8-2.343 27 11a309 309 0 0 1-43 .5q6.303-8.376 16-11.5"/>
  <path style="opacity:.978" fill="#fefefe" d="M727.5 176.5q41.954-2.22 60.5 35 14.145 40.171-17.5 68.5-36.868 25.27-73-1-29.58-27.884-16.5-66.5 14.097-30.137 46.5-36m1 32q23.609-2.323 31.5 20 3.126 24.504-20.5 31.5-31.295.705-30.5-30.5 4.385-15.63 19.5-21"/>
  <path style="opacity:.976" fill="#fefefe" d="M977.5 176.5c30.42-1.376 51.25 11.957 62.5 40 .79 2.971 1.46 5.971 2 9 .5 22.331.67 44.664.5 67-20.34.167-40.67 0-61-.5q-43.672-4.672-53.5-47.5-5.234-44.2 34.5-63.5 7.473-2.985 15-4.5m1 32c15.644-1.937 26.14 4.396 31.5 19 .5 10.995.67 21.995.5 33a212 212 0 0 1-34-1.5q-26.472-13.922-12.5-40.5 6.313-6.596 14.5-10"/>
  <path style="opacity:.974" fill="#fefefe" d="M1301.5 176.5q52.68-1.038 64.5 50c.5 21.997.67 43.997.5 66-20.34.167-40.67 0-61-.5-33.46-4.632-51.8-23.798-55-57.5q4.35-47.833 51-58m1 32q23.73-2.276 31.5 20c.5 10.661.67 21.328.5 32-11.4.409-22.73-.091-34-1.5-15.42-7.343-20.59-19.176-15.5-35.5 3.89-7.397 9.72-12.397 17.5-15"/>
  <path style="opacity:.973" fill="#fefefe" d="M1500.5 176.5c31.2-1.289 52.03 12.711 62.5 42a75 75 0 0 1 2 12c.5 20.664.67 41.331.5 62-20.34.167-40.67 0-61-.5q-39.18-3.466-52.5-40.5c-7.04-31.921 3.79-55.421 32.5-70.5 5.37-1.84 10.71-3.34 16-4.5m1 32q24.48-2.397 31.5 21c.5 10.328.67 20.661.5 31-10.34.166-20.67 0-31-.5q-25.53-8.31-19.5-34.5c3.86-8.365 10.02-14.031 18.5-17"/>
  <path style="opacity:.969" fill="#fefefe" d="M426.5 178.5q33.504-.25 67 .5 41.276 1.29 49.5 41.5a870 870 0 0 1 1.5 69h-32q.25-30.005-.5-60-3.412-15.912-19.5-18.5a578 578 0 0 0-34-.5v79h-32z"/>
  <path style="opacity:.973" fill="#fefefe" d="M833.5 178.5h79v32q-38.004-.25-76 .5-4.182 4.145 1 7l55 1q28.63 5.744 29 35 .032 27.966-27 35-41.497.75-83 .5v-31q37.503.25 75-.5 5.229-2.92 1-7a982 982 0 0 1-59-2q-20.236-5.237-25.5-25.5-5.5-37.09 30.5-45"/>
  <path style="opacity:.986" fill="#fefefe" d="M1052.5 178.5q37.545-.613 75 1.5c24.55 4.25 38.38 18.75 41.5 43.5.5 21.997.67 43.997.5 66h-31c.17-19.003 0-38.003-.5-57q-1.695-18.207-19.5-21.5c-11.66-.5-23.33-.667-35-.5v79h-31z"/>
  <path style="opacity:.978" fill="#fefefe" d="M1411.5 178.5h31v32a393 393 0 0 0-28 .5c-2.35.346-4.18 1.513-5.5 3.5a966 966 0 0 0-1.5 75h-31q-.69-44.563 1.5-89c3.24-10.238 10.07-16.738 20.5-19.5 4.46-.874 8.8-1.707 13-2.5"/>
  <path style="opacity:.976" fill="#fefefe" d="M1633.5 178.5q18.03-.498 36 1a640 640 0 0 0 23 42c7.67-14 15.33-28 23-42q18-2 36 0c-9.8 18.103-19.47 36.27-29 54.5a1082 1082 0 0 0 29 55q-18 1-36 0a835 835 0 0 0-23-41.5 828 828 0 0 0-23 41.5q-18 1-36 0a1407 1407 0 0 0 29-54.5c-9.69-18.72-19.36-37.387-29-56"/>
  <path style="opacity:.968" fill="#fefefe" d="M1758.5 178.5h32a734 734 0 0 0 1.5 65c7.63 14.99 19.46 19.824 35.5 14.5 7.82-3.819 12.65-9.986 14.5-18.5.5-20.331.67-40.664.5-61h32c.17 20.669 0 41.336-.5 62-6.01 31.841-25.18 49.175-57.5 52-32.32-2.825-51.49-20.159-57.5-52-.5-20.664-.67-41.331-.5-62"/>
  <path style="opacity:.973" fill="#fefefe" d="M1883.5 178.5h112c.17 10.672 0 21.339-.5 32-19.17 15.833-38.33 31.667-57.5 47.5 19.33.5 38.66.667 58 .5v31h-112c-.17-10.339 0-20.672.5-31a5966 5966 0 0 1 56.5-47.5q-28.5-.75-57-.5z"/>
  <path style="opacity:.996" fill="#01b400" d="M267.5 214.5q71.648 4.254 96 71 15.72 63.392-32 106.5-27.955 22.124-64 22.5-49.38-.202-79-38a4.93 4.93 0 0 0-.5-3q-29.54-42.764-14-93a183 183 0 0 1 8.5-16 113 113 0 0 0 15-.5q4.649-.58 8-3.5l8-2q5.643.296 9-4a140.8 140.8 0 0 0 26-18q5.105-3.6 8-9a97 97 0 0 1 7-11q1.683-1.695 4-2"/>
  <path style="opacity:.998" fill="#fd1100" d="M95.5 221.5q2.317.305 4 2 23.51 31.737 62 39 .627 1.083 2 1.5 9.487.75 19 .5a183 183 0 0 0-8.5 16q-15.54 50.236 14 93 .724 1.422.5 3-42.41 56.149-112 41-68.695-23.493-72-96.5 4.253-76.268 77-98a100 100 0 0 1 14-1.5"/>
  <path style="opacity:1" fill="#269553" d="M256.5 227.5q-2.895 5.4-8 9 2.946-5.36 8-9"/>
  <path style="opacity:1" fill="#259455" d="M222.5 254.5q-3.357 4.296-9 4 3.844-3.166 9-4"/>
  <path style="opacity:1" fill="#953670" d="M161.5 262.5a145 145 0 0 0 21 1v1q-9.513.25-19-.5-1.373-.417-2-1.5"/>
  <path style="opacity:1" fill="#1c9b46" d="M205.5 260.5q-3.351 2.92-8 3.5a113 113 0 0 1-15 .5v-1a87 87 0 0 0 23-3"/>
  <path style="opacity:.941" fill="#fefefe" d="M1594.5 266.5c13.7-.605 18.86 5.729 15.5 19-8.14 8.246-15.81 7.913-23-1q-3.975-12.363 7.5-18"/>
  <path style="opacity:.974" fill="#fefefe" d="M1758.5 291.5h32c2.51 18.676 13.18 27.176 32 25.5 12.48-3.979 19.15-12.479 20-25.5h32c-3.37 35.371-22.7 54.705-58 58-35.67-2.999-55-22.333-58-58"/>
</svg>
