<svg xmlns="http://www.w3.org/2000/svg" width="850" height="146" style="shape-rendering:geometricPrecision;text-rendering:geometricPrecision;image-rendering:optimizeQuality;fill-rule:evenodd;clip-rule:evenodd">
  <path style="opacity:1" fill="#b3b3b3" d="M143.5 1.5q-1.008 1.15-2.5 2a407 407 0 0 0-7.5 30.5q.195 1.588 1.5 2.5 3.062-1.384 6.5-1-.268 5.446-1 10 4.428 11.576-1 22.5l1 1q-1.2 6.12-1.5 12.5-4.006 5.368 1.5 10a24 24 0 0 0-3 9 180 180 0 0 1 18-5q-1.144 1.152-3 1.5 4.863.425 1 2.5 1.898 5.89-1 11.5 1.06 3.81 5 3.5-9.947 4.7-21 7 2.58-3.752 8-6 1.494.128 2.5-1l5.5-11-2-1a127 127 0 0 0-12 4q-7.87-.21-3-6.5a350 350 0 0 0-3-15.5 27.45 27.45 0 0 0 2-11h4q.034-3.15-2-5.5a32.8 32.8 0 0 1 2.5-8.5q.654-10.392-3.5-20-1.025.544-2 1a56.4 56.4 0 0 0-8.5 0 20.2 20.2 0 0 1-1.5-6 200 200 0 0 1 5.5-26q3.667-2.778 4.5-6a25.9 25.9 0 0 1 10-1"/>
  <path style="opacity:1" fill="#bfbfbf" d="M143.5 1.5h10a267 267 0 0 0-7 27 197 197 0 0 1 1 24.5 192 192 0 0 0-3 16.5l1 5 1-.5a298 298 0 0 0 6-12.5q1.025.544 2 1a400 400 0 0 1-14 29q-5.506-4.632-1.5-10 .3-6.38 1.5-12.5l-1-1q5.428-10.924 1-22.5.732-4.554 1-10-3.438-.384-6.5 1-1.305-.912-1.5-2.5A407 407 0 0 1 141 3.5q1.492-.85 2.5-2"/>
  <path style="opacity:1" fill="#f7f7f7" d="M245.5 5.5q5.349 7.61 12.5 14 1.194 6.383-.5 12.5-5.837.628-11 2.5-.657-.098-1 .5a74 74 0 0 1 8 6.5q4.101-2.805 9-3h9v4q-2.58 4.846-7 8.5-16.13 12.068-35 19.5a27.1 27.1 0 0 0-11 3q-3.792-1.497 0-2.5l-1-1 5-1q-.834-.575-1-1.5 1.185-1.352 3-2 1.49-13.227 1-27 1.483-8.213 1-17h-14q-7.901 2.04-8-6 3.369-8.65 11-14.5a156.5 156.5 0 0 1 25 0 31.4 31.4 0 0 0 5 4.5"/>
  <path style="opacity:.035" fill="#020005" d="M183.5 6.5q.595-1.538 2-.5a2.43 2.43 0 0 1-2 .5"/>
  <path style="opacity:1" fill="#cfcfcf" d="M153.5 1.5h8q5.562 5.55 10.5 12a10.1 10.1 0 0 1 1.5 4q-1.987 2.18-2.5-1-1 2-2 0-7.098 20.83-6.5 42.5a265 265 0 0 0 15 2.5q-11.63-.449-23 1a44 44 0 0 1-2-1 298 298 0 0 1-6 12.5l-1 .5-1-5a192 192 0 0 1 3-16.5q.257-12.395-1-24.5a267 267 0 0 1 7-27"/>
  <path style="opacity:1" fill="#a2a2a1" d="M161.5 1.5h-18a25.9 25.9 0 0 0-10 1q-.833 3.222-4.5 6a200 200 0 0 0-5.5 26 20.2 20.2 0 0 0 1.5 6 56.4 56.4 0 0 1 8.5 0v2a275 275 0 0 0-5 4h-12v-27a405 405 0 0 1 16-18.5q14.763-1.237 29 .5"/>
  <path style="opacity:.451" fill="#1d1b1b" d="M131.5-.5h32a292 292 0 0 1 22 33l-12-15a10.1 10.1 0 0 0-1.5-4q-4.938-6.45-10.5-12-14.237-1.737-29-.5a405 405 0 0 0-16 18.5h-1a8.4 8.4 0 0 1 .5-4 349 349 0 0 0 15.5-16"/>
  <path style="opacity:1" fill="#e0e0e0" d="m173.5 17.5 12 15v1q-2.418-1.428-4.5-1a11.3 11.3 0 0 1-1.5 3.5l1 1q-1.315 6.843-4 13 1.302 5.65 2 11.5h-1a265 265 0 0 1-15-2.5q-.598-21.67 6.5-42.5 1 2 2 0 .513 3.18 2.5 1"/>
  <path style="opacity:.995" fill="#1d1a18" d="M214.5-.5h27a17.9 17.9 0 0 1 4 6 31.4 31.4 0 0 1-5-4.5 156.5 156.5 0 0 0-25 0q-7.631 5.85-11 14.5.099 8.04 8 6 6.202 1.477 13 1v16q.49 13.773-1 27 .49-14.771-1-29-5.38-5.28-5-13a40.6 40.6 0 0 1-14-2q-3.565-5.375-.5-11a162 162 0 0 0 10.5-11"/>
  <path style="opacity:1" fill="#736f6c" d="M212.5 21.5h14q.483 8.787-1 17v-16q-6.798.477-13-1"/>
  <path style="opacity:.893" fill="#444241" d="M115.5 19.5h1v27c-1 5 1 7 6 6a44 44 0 0 1-4.5 7q-1.047-3.756-2.5-7a405 405 0 0 1 0-33"/>
  <path style="opacity:.548" fill="#2f2e2e" d="M245.5 5.5a281 281 0 0 1 14.5 14q.749 6.983.5 14a54 54 0 0 0-8 2q-2.647-1.442-6-1 5.163-1.872 11-2.5 1.694-6.117.5-12.5-7.151-6.39-12.5-14"/>
  <path style="opacity:.012" d="M207.5 33.5q2 1 0 0"/>
  <path style="opacity:.639" fill="#121111" d="M198.5 121.5a78.4 78.4 0 0 1-11-10q.353-.895 1.5-1 5.024 3.176 11 4a15 15 0 0 1 3.5 3q10.452 1.495 21 1v-27q-6.151-.105-7.5 6-.873-4.752-3-1-.354-2.43-2.5-3a783 783 0 0 0 57-31 256 256 0 0 0 20.5-16 17.35 17.35 0 0 0 3.5-7q-.044-2.294-2-3.5-8.866-1.17-17 1.5-5.807-.473-11 1-4.899.195-9 3a74 74 0 0 0-8-6.5q.343-.598 1-.5 3.353-.442 6 1-.166.925-1 1.5a6.98 6.98 0 0 1 3.5 2.5q17.568-6.94 36.5-5.5 7.305 7.25.5 15.5A1551 1551 0 0 1 263.5 71a4.93 4.93 0 0 1-3 .5q-.384 3.44 1 6.5a965 965 0 0 0-1.5 43.5q-.54 2.882-2.5 5a191 191 0 0 0-16 17.5q-14.152 1.417-28-1-9.956-9.204-15-21.5"/>
  <path style="opacity:.8" fill="#1e1e20" d="M185.5 32.5q2.11.71 2 3-1.5-.5-2-2z"/>
  <path style="opacity:.962" fill="#030303" d="M223.5 36.5q1.49 14.229 1 29-1.815.648-3 2a189 189 0 0 0-17 7q.497-12.54-1-25-1.533.533-2 2-2.02 1.007-3.5 0a82.8 82.8 0 0 1-10.5-16q5.368 7.628 12.5 14 2.407-.9 4-3 1.331-6.526 5.5-11.5a92 92 0 0 1 13 3.5q1.197-.686 1-2"/>
  <path style="opacity:1" fill="#828282" d="M262.5 38.5q5.193-1.473 11-1v1l-2 4v-4z"/>
  <path style="opacity:1" fill="#ecedec" d="M185.5 33.5q.5 1.5 2 2a82.8 82.8 0 0 0 10.5 16q1.48 1.007 3.5 0 2.48 11.168 3 23a189 189 0 0 1 17-7q.166.925 1 1.5l-5 1 1 1q-3.792 1.003 0 2.5a27.1 27.1 0 0 1 11-3q-17.15 9.06-36 15-3.765.67-6-2 .626-1.083 2-1.5a203 203 0 0 1-11-20.5q-.698-5.85-2-11.5 2.685-6.157 4-13l-1-1a11.3 11.3 0 0 0 1.5-3.5q2.082-.428 4.5 1"/>
  <path style="opacity:1" fill="#787878" d="M116.5 46.5h12a21.6 21.6 0 0 0-4 5l-2 1c-5 1-7-1-6-6"/>
  <path style="opacity:1" fill="#b4b4b4" d="M204.5 74.5q-.52-11.832-3-23 .467-1.467 2-2a157 157 0 0 1 1 25"/>
  <path style="opacity:1" fill="#d6d6d7" d="M268.5 62.5q-.71-2.11-3-2l2-2q7.396-5.72 15-11.5 2.565-2.475 4-5.5 1.356-1.064 1-3h-14v-1q8.134-2.67 17-1.5 1.956 1.206 2 3.5a17.35 17.35 0 0 1-3.5 7 256 256 0 0 1-20.5 16"/>
  <path style="opacity:.994" fill="#f3f3f4" d="M509.5 58.5a73 73 0 0 1 17 1l-3 28a36.9 36.9 0 0 1-12 1 422 422 0 0 0-2-30"/>
  <path style="opacity:1" fill="#0c0c0c" d="M177.5 61.5h1a203 203 0 0 0 11 20.5q-1.374.417-2 1.5a201 201 0 0 0-21 8q-1.817-1.16 0-2.5 4.126-.774 7-3.5-2.382-5.865-7-10-5.519 10.04-11 20a180 180 0 0 0-18 5 24 24 0 0 1 3-9 400 400 0 0 0 14-29 139 139 0 0 1 23-1"/>
  <path style="opacity:.996" fill="#f9f9f9" d="M305.5 60.5q15.009-.25 30 .5 32.952 6.716 32 40.5.843 34.404-33 40.5-14.492.75-29 .5zm18 15q10.574-1.173 20 3.5 7.077 10.04 7 22.5.354 13.701-9 23.5-8.652 3.342-18 2.5z"/>
  <path style="opacity:.012" d="M113.5 64.5q-1-2 0 0"/>
  <path style="opacity:1" fill="#1b1b1b" d="M124.5 51.5q.984 1.683 1 4a123 123 0 0 0-3.5 18q-3.959 8.445-12.5 12-1.964 6.225 0 12a9.86 9.86 0 0 1-1 6 106 106 0 0 1-13 5 62.6 62.6 0 0 1 11.5-6l1-29q2.784-4.584 5.5-9 1.083-.627 1.5-2 .747-4.975.5-10 1.453 3.244 2.5 7a44 44 0 0 0 4.5-7z"/>
  <path style="opacity:1" fill="#151515" d="M273.5 38.5h14q.356 1.936-1 3-12.181-3.124-16.5 9l-9 7q-1 2 0 4 2.601-2.925 6.5-3l-2 2a18.7 18.7 0 0 1-7 3q.428-2.682-1-5a227 227 0 0 1-31 16 262 262 0 0 0-2 7.5l-19 9.5-2-7a31.3 31.3 0 0 1-9 3.5q-1.642 3.404 1 6.5-1.26 1.852-3 3a279 279 0 0 0-21.5 8q-5.856-2.717-12.5-2-.042-3.123 2-5.5a1821 1821 0 0 0 33-12.5q18.85-5.94 36-15 18.87-7.432 35-19.5 4.42-3.654 7-8.5z"/>
  <path style="opacity:1" fill="#f6f6f6" d="m199.5 121.5 26-2q-.25-14.508.5-29a316 316 0 0 1 33.5-17q.25 23.505-.5 47a282 282 0 0 1-18.5 21.5q-12.5 1-25 0a95.8 95.8 0 0 1-16-20.5"/>
  <path style="opacity:.996" fill="#f9f9fa" d="M398.5 80.5q34.728-3.384 36 31.5-.158 28.653-28.5 31.5-28.018-3.025-29.5-31.5.43-23.604 22-31.5m3 14q13.982-2.127 15.5 12 2.511 12.209-5.5 21.5-8.035 3.393-14.5-2.5-6.197-12.281-1-25 2.04-3.784 5.5-6"/>
  <path style="opacity:.991" fill="#f9f9fa" d="M461.5 80.5q16.852-3.13 28.5 9 4.3 6.9 3.5 15h-15q-1.508-12.52-14-9.5-3.25 1.25-4.5 4.5-2.943 12.021 0 24 7.26 10.791 17 2 1.514-2.288 1.5-5h15q-.163 16.433-16 21.5-17.814 4.84-30.5-8.5-8.459-16.675-4-35 4.337-14.252 18.5-18"/>
  <path style="opacity:.996" fill="#d9d9d9" d="M566.5 80.5q1.063 1.356 3 1a41 41 0 0 1-.5 9q-.417 1.373-1.5 2-6.455-1.055-10.5 4-1.023 5.52 4.5 7.5a77 77 0 0 0 12 2.5 37.1 37.1 0 0 1-1.5 12q-1.006 1.128-2.5 1-15.818-1.513-27.5-12-4.595-28.174 24.5-27"/>
  <path style="opacity:1" fill="#3c3c3b" d="M128.5 46.5q2.062 20.53-5.5 40a2564 2564 0 0 0-12 8l-1-1a8.4 8.4 0 0 0-.5 4q-1.964-5.775 0-12 8.541-3.555 12.5-12a123 123 0 0 1 3.5-18q-.016-2.317-1-4a21.6 21.6 0 0 1 4-5"/>
  <path style="opacity:.976" fill="silver" d="M566.5 80.5q20.527-.033 23 20a65 65 0 0 1-16-1q-1.485-4.972-6-7 1.083-.627 1.5-2 .747-4.473.5-9-1.937.356-3-1"/>
  <path style="opacity:1" fill="#cfd0cf" d="M187.5 83.5q2.235 2.67 6 2a1821 1821 0 0 1-33 12.5q-2.042 2.377-2 5.5 6.644-.717 12.5 2a279 279 0 0 1 21.5-8q.71 2.11 3 2v1a828 828 0 0 1-38 14q-3.94.31-5-3.5 2.898-5.61 1-11.5 3.863-2.075-1-2.5 1.856-.348 3-1.5 5.481-9.96 11-20 4.618 4.135 7 10-2.874 2.726-7 3.5-1.817 1.34 0 2.5a201 201 0 0 1 21-8"/>
  <path style="opacity:1" fill="#8d8e8e" d="M138.5 106.5q-3.022 2.136-7 2-1.858 1.368-4 .5 2.494-6.426 1-13a204 204 0 0 0 2.5-22.5q3.138-4.31 3-10 1.735 2.24 2.5-.5-.901-2.407-3-4 1.606-8.162 0-16.5v-2q.975-.456 2-1 4.154 9.608 3.5 20a32.8 32.8 0 0 0-2.5 8.5q2.034 2.35 2 5.5h-4q.133 5.7-2 11a350 350 0 0 1 3 15.5q-4.87 6.29 3 6.5"/>
  <path style="opacity:1" fill="#696969" d="M133.5 42.5q1.606 8.338 0 16.5 2.099 1.593 3 4-.765 2.74-2.5.5.138 5.69-3 10a204 204 0 0 1-2.5 22.5q1.494 6.574-1 13 2.142.868 4-.5v2q-7.881.785-11 8a26.6 26.6 0 0 1-3.5 2q-.315 2.337-1.5 4v-10a53 53 0 0 0 7-1.5l-4-.5a134 134 0 0 1-20 1q-1.935-.837-2.5-3a10.5 10.5 0 0 0-2.5 3q0 1-1 1-7.437 5.067-7 13.5 14.826 3.435 29-1.5 1.064 1.356 3 1-16.407 5.427-34 4.5-5.53-4.794-.5-10.5a77.2 77.2 0 0 1 12.5-13 106 106 0 0 0 13-5 9.86 9.86 0 0 0 1-6 8.4 8.4 0 0 1 .5-4l1 1a2564 2564 0 0 1 12-8q7.562-19.47 5.5-40a275 275 0 0 1 5-4"/>
  <path style="opacity:1" fill="#ebebeb" d="M265.5 60.5q2.29-.11 3 2a783 783 0 0 1-57 31q-5.118.813-9 4a29.4 29.4 0 0 0-7 2q-2.29.11-3-2 1.74-1.148 3-3-2.642-3.096-1-6.5a31.3 31.3 0 0 0 9-3.5l2 7 19-9.5a262 262 0 0 1 2-7.5 227 227 0 0 0 31-16q1.428 2.318 1 5a18.7 18.7 0 0 0 7-3"/>
  <path style="opacity:.998" fill="#020202" d="M187.5 111.5q-1.5-.5-2-2 2.289-.907 3-3.5a118 118 0 0 0 8-3.5 44 44 0 0 1-1-2q3.689-.285 5 3l3 4q1.189-.4 1-3.5-.495-3.512-2-6.5 3.882-3.187 9-4 2.146.57 2.5 3 2.127-3.752 3 1 1.349-6.105 7.5-6v27q-10.548.495-21-1a15 15 0 0 0-3.5-3q-5.976-.824-11-4-1.147.105-1.5 1"/>
  <path style="opacity:1" fill="#31302f" d="M202.5 97.5q1.505 2.988 2 6.5.189 3.1-1 3.5a13.1 13.1 0 0 0-1-7q-2.128.757-2 3-1.311-3.285-5-3v-1a29.4 29.4 0 0 1 7-2"/>
  <path style="opacity:1" fill="#cacac9" d="m203.5 107.5-3-4q-.128-2.243 2-3a13.1 13.1 0 0 1 1 7"/>
  <path style="opacity:.989" fill="#bebebf" d="M573.5 106.5q23.948 7.129 12.5 29-18.403 13.968-38.5 3 2.94.957 5.5 0a176 176 0 0 1 3.5-10q6.721 2.823 14 1.5 6.246-5.993-1-10.5 1.494.128 2.5-1a37.1 37.1 0 0 0 1.5-12"/>
  <path style="opacity:1" fill="#11100f" d="M144.5 115.5a248 248 0 0 1-17 5 32.5 32.5 0 0 1 4-10v-2q3.978.136 7-2a127 127 0 0 1 12-4l2 1-5.5 11q-1.006 1.128-2.5 1"/>
  <path style="opacity:.969" fill="#151414" d="M195.5 100.5q.456.975 1 2a118 118 0 0 1-8 3.5q-.711 2.593-3 3.5a54.7 54.7 0 0 0-12.5 4l-1 27-2.5 2.5a110 110 0 0 1-20 1.5l-17-.5q-6.042-6.539-12-13a13771 13771 0 0 0-32 3.5q-11.426.17-8.5-11 5.602-9.853 15.5-15a77.2 77.2 0 0 0-12.5 13q-5.03 5.706.5 10.5 17.592.927 34-4.5 10.05-1.852 19-6 11.053-2.3 21-7a828 828 0 0 0 38-14m-102 13a54.1 54.1 0 0 0 21 2 25 25 0 0 1-.5 7q-.582 1.392-2 2a86 86 0 0 1-23.5 2.5 7.25 7.25 0 0 1-2-2.5q2.486-5.445 6-10 1 0 1-1"/>
  <path style="opacity:1" fill="#868686" d="M131.5 110.5a32.5 32.5 0 0 0-4 10 248 248 0 0 0 17-5q-5.42 2.248-8 6-8.95 4.148-19 6-1.936.356-3-1l1-2q1.185-1.663 1.5-4a26.6 26.6 0 0 0 3.5-2q3.119-7.215 11-8"/>
  <path style="opacity:.212" fill="#060606" d="m98.5 113.5 16 2a54.1 54.1 0 0 1-21-2 10.5 10.5 0 0 1 2.5-3q.565 2.163 2.5 3"/>
  <path style="opacity:.953" fill="#262626" d="m115.5 124.5-1 2q-14.174 4.935-29 1.5-.437-8.433 7-13.5-3.514 4.555-6 10a7.25 7.25 0 0 0 2 2.5 86 86 0 0 0 23.5-2.5q1.418-.608 2-2 .745-3.465.5-7l-16-2q10.038.248 20-1l4 .5a53 53 0 0 1-7 1.5z"/>
  <path style="opacity:1" fill="#c9c9c9" d="M150.5 142.5q-.94-6.111-5-10.5 4.234-4.928-1-8 2.73-.3 4-2.5a105.7 105.7 0 0 1 22-7q.25 12.51-.5 25-1.756 2.09-4.5 2.5a113 113 0 0 1-15 .5"/>
  <path style="opacity:1" fill="#ababaa" d="m225.5 119.5-26 2h-1q12.907-2.957 27-2"/>
  <path style="opacity:.985" fill="#d3d2d7" d="M556.5 128.5a176 176 0 0 0-3.5 10q-2.56.957-5.5 0-9.075-6.075-9-17a113 113 0 0 1 15 .5 79 79 0 0 0 3 6.5"/>
  <path style="opacity:1" fill="#b1b1b1" d="M148.5 121.5q-1.27 2.2-4 2.5 5.234 3.072 1 8 4.06 4.389 5 10.5a145 145 0 0 1-17-.5 179 179 0 0 1-11-11.5 193 193 0 0 1 26-9"/>
  <path style="opacity:.008" d="M123.5 141.5q2 1 0 0"/>
</svg>
