<svg xmlns="http://www.w3.org/2000/svg" width="600" height="131" viewBox="0 0 600 131" style="shape-rendering:geometricPrecision;text-rendering:geometricPrecision;image-rendering:optimizeQuality;fill-rule:evenodd;clip-rule:evenodd">
  
  <!-- Logo/Icon Section (Topi Santa Merah) -->
  <g id="santa-hat-logo">
    <!-- Bagian dalam topi (merah gelap) -->
    <path fill="#951e21" d="m145.5 11.5 2 2a23.95 23.95 0 0 0-9 3q-10.666 4.498-10 16 1.936-.356 3 1 .098.657-.5 1-4.882-.507-8.5-3 6.802-15.296 23-20"/>
    
    <!-- Bagian luar topi (merah terang) -->
    <path fill="#d4252c" opacity="0.9" d="M158.5 10.5q19.05 9.472 24 29-1.221 3.196-1.5 7a323 323 0 0 0-6.5-13q1.941 1.185 3.5 3 .828-4.38-2-8-7.016-10.524-18.5-15.5-4.794-1.207-9 .5h-1l-2-2q2.835.306 4.5-2 4.078 1.416 8.5 1"/>
    
    <!-- Highlight utama topi -->
    <path fill="#e30f19" d="M174.5 33.5q-5.947-9.942-15-17-.895-.958-2.5-1-2.493-.17-3.5 2 1.73 3.978 5.5 6 .886 1.475-1 2-7.61-2.108-10.5-9.5.365-1.353 1-2.5 4.206-1.707 9-.5 11.484 4.976 18.5 15.5 2.828 3.62 2 8a14.7 14.7 0 0 0-3.5-3"/>
    
    <!-- Shadow dan depth -->
    <path fill="#ab1a1a" d="M138.5 16.5q-2.8 3.613-6.5 7a16.24 16.24 0 0 0 0 8q4.981 2.205 10.5 2 6.977.915 14 3v1a1928 1928 0 0 0-25-4q-1.064-1.356-3-1-.666-11.502 10-16"/>
    
    <!-- Detail topi bagian atas -->
    <path fill="#e30d16" d="M156.5 36.5a90 90 0 0 0-14-3q-8.528-2.577-5-11a11.3 11.3 0 0 1 3.5-1q5.2 3.682 10.5 7.5 5.47 1.161 11 2 2.483 2.166 2 5.5z"/>
    
    <!-- Kontur utama -->
    <path fill="#c40a11" d="M147.5 13.5h1a11 11 0 0 0-1 2.5q2.89 7.392 10.5 9.5 1.886-.525 1-2-3.77-2.022-5.5-6 1.007-2.17 3.5-2 1.605.042 2.5 1-2.217-.393-4 1 9.42 9.375 15 21-1.311 1.538-3.5 2a43 43 0 0 0-10.5-3v-1h8q.483-3.334-2-5.5a190 190 0 0 1-11-2 1599 1599 0 0 0-10.5-7.5 11.3 11.3 0 0 0-3.5 1q-3.528 8.423 5 11-5.519.205-10.5-2a16.24 16.24 0 0 1 0-8q3.7-3.387 6.5-7a23.95 23.95 0 0 1 9-3"/>
    
    <!-- Detail gelap topi -->
    <path fill="#8a201f" d="M156.5 38.5v-1q5.4.816 10.5 3 2.189-.462 3.5-2 .09-.814 1-1a15.9 15.9 0 0 1 6.5 5q.209 4.418 3.5 7-.09.814-1 1-1.713-1.989-4-3-1.98-4.995-6-6a5.73 5.73 0 0 1-3 1q-5.158-2.556-11-4"/>
    
    <!-- Bulu putih/trim topi -->
    <path fill="#fdfcfc" d="M156.5 38.5q5.842 1.444 11 4-.436 1.724-2.5 2a157 157 0 0 1-8.5-2q-2.503 1.616-5 .5a48.5 48.5 0 0 0 7 4.5q2.046 2.387 2.5 5-10.27-4.237-21.5-5.5a77 77 0 0 0-9-4q-2-2 0-4a8.9 8.9 0 0 1-4-3q15.225.102 30 2.5"/>
    
    <!-- Shading topi -->
    <path fill="#960a0e" d="M159.5 16.5q9.053 7.058 15 17 3.39 6.414 6.5 13 .279-3.804 1.5-7h1q-1.674 3.647 0 7.5-.276 2.064-2 2.5-3.291-2.582-3.5-7a15.9 15.9 0 0 0-6.5-5q-.91.186-1 1-5.58-11.625-15-21 1.783-1.393 4-1"/>
    
    <!-- Pompom atas topi (abu-abu) -->
    <path fill="#959ea6" d="M133.5 48.5q5.203.07 10 2-12.89 1.773-25.5 0-4.888-1.581-2.5-6a62.3 62.3 0 0 0 18 4"/>
    
    <!-- Detail tambahan putih -->
    <path fill="#e8e8ea" d="M122.5 31.5q3.618 2.493 8.5 3 .598-.343.5-1a1928 1928 0 0 1 25 4v1a195 195 0 0 0-30-2.5 8.9 8.9 0 0 0 4 3q-2 2 0 4a77 77 0 0 1 9 4q11.23 1.263 21.5 5.5-.454-2.613-2.5-5a48.5 48.5 0 0 1-7-4.5q2.497 1.116 5-.5 4.223 1.118 8.5 2 2.064-.276 2.5-2a5.73 5.73 0 0 0 3-1 33 33 0 0 1 4 5.5 39.5 39.5 0 0 0-2.5 10.5 72 72 0 0 1-3.5 5q-1.356-1.064-1-3a2.43 2.43 0 0 0 2-.5q-3.245-.367-5-3a149 149 0 0 0-21-5.5 27.6 27.6 0 0 0-10-2q-5.448-3.06-12-3.5-.441-5.213-4.5-8.5-1.63 3.648-1.5-1 3.05-3.714 7-4"/>
    
    <!-- Bola/ornamen putih bawah -->
    <path fill="#fcfcfc" d="M116.5 51.5a175 175 0 0 0 18 3q-5.471 9.812-.5 20 6.515 7.405 14 1 4.058-8.688 1.5-18 .895-.958 2.5-1a77.7 77.7 0 0 0 15.5 3q-.356 1.936 1 3 1.842 16.473-11 27-15.234 9.343-31 1-15.656-11.586-14-31.5a40.4 40.4 0 0 0 4-7.5"/>
    
    <!-- Shadow halus -->
    <path fill="#b3babf" opacity="0.5" d="M115.5 35.5q-.13 4.648 1.5 1 4.059 3.287 4.5 8.5 6.552.44 12 3.5a62.3 62.3 0 0 1-18-4q-2.388 4.419 2.5 6 12.61 1.773 25.5 0a149 149 0 0 1 21 5.5q1.755 2.633 5 3a2.43 2.43 0 0 1-2 .5 77.7 77.7 0 0 1-15.5-3q-1.605.042-2.5 1-6.015-8.01-15-3a175 175 0 0 1-18-3 302 302 0 0 0-4-3 124 124 0 0 0 3-13"/>
    
    <!-- Highlight akhir -->
    <path fill="#b5babf" d="M177.5 62.5q-2.2-1.27-2.5-4-1.183-3.318.5-6a8.4 8.4 0 0 0 .5 4q.324-2.825 2-5 .004 4.824 3.5 8 5.068 1.561 9 0-4.03 5.72-11 3.5-1.133-2.07-2-.5"/>
  </g>
  
  <!-- Text Sections (White letters) -->
  <g id="text">
    <path style="opacity:.954" fill="#fdfdfd" d="M28.5 47.5q-.11 2.29 2 3a80.5 80.5 0 0 0 6.5 10q-.05-11.274.5-23a71 71 0 0 0 16.5-1l1.5 1.5a778 778 0 0 0-1 55.5q-7.517.25-15-.5A1316 1316 0 0 1 20 64.5q-.75 14.491-.5 29h-17v-56q9.513-.25 19 .5a49 49 0 0 0 7 9.5"/>
    <path style="opacity:.911" fill="#fefdfd" d="M105.5 36.5q1.812 1.1 4 1a98.4 98.4 0 0 1-.5 14l-2 2q-12.688-1.43-25-1-1.174 2.901 1.5 4.5 7.12-1.218 13.5.5.75 6.983.5 14h-16v7h30v15h-48v-56q21.265.495 42-1"/>
    <path style="opacity:.959" fill="#fcfcfc" d="M217.5 42.5a38 38 0 0 1 6 10q-12.635 2.62-24.5-2a59 59 0 0 1-6.5 3q2.58 2.15 6 2.5 12.723-.185 23 8.5 9.073 17.696-8 27.5-25.574 10.297-40-12.5v-4q10.427-.85 20 2 .626 1.083 2 1.5 4.5 1 9 0 4-2.5 0-5a98 98 0 0 1-9-1.5 4.94 4.94 0 0 0-2.5 1q-5.334-3.204-11.5-5a17.9 17.9 0 0 1-4-6q.867-1.57 2 .5 6.97 2.22 11-3.5-3.932 1.561-9 0-3.496-3.176-3.5-8-1.676 2.175-2 5a8.4 8.4 0 0 1-.5-4q-.201-2.687 1-5 2.287 1.011 4 3 .91-.186 1-1 1.724-.436 2-2.5-1.674-3.853 0-7.5 2.243-.733 4-2 16.21-3.834 30 5"/>
    <path style="opacity:.959" fill="#fcfcfc" d="M241.5 79.5q-2.992 6.659-5.5 15-4.078 1.416-8.5 1 8.318-26.688 18.5-54 4.338-3.26 9.5-1-7.782 19.893-14 39"/>
    <path style="opacity:.959" fill="#fcfcfc" d="M306.5 91.5q.116 1.875 2 2.5-5.775 2.633-12 .5a429 429 0 0 0-10-25 252 252 0 0 0-11-28 54.4 54.4 0 0 0-4 11 11697 11697 0 0 0-14 39q-1.356 1.064-1 3-4.337 1.354-9 1a626 626 0 0 1 16-46 3.65 3.65 0 0 0-1-1.5 64 64 0 0 0 5-8q9.374-1.213 18.5.5a4268 4268 0 0 0 20.5 51"/>
    <path style="opacity:.942" fill="#fdfdfd" d="M554.5 48.5q2.358-4.073 3-9a108.4 108.4 0 0 1 20.5 1q8.135 19.354 15 40 1.047 1.785 2.5 3-.814.09-1 1 .741 2.288 2 4 .116 1.875 2 2.5-2 1.5 0 3a90.5 90.5 0 0 1-19 0 14.8 14.8 0 0 1-2-6.5q-9.513-.25-19 .5a14.8 14.8 0 0 0-2 6.5 343 343 0 0 1-37-1q-4.39-7.248-9-16a21.1 21.1 0 0 0-9-1v18q-8.26.456-17 0a750 750 0 0 0-1-54.5 361 361 0 0 1 38 0q17.33 5.385 13.5 23.5-1.926 6.346-7.5 10 5.126 9.849 10.5 18 3.776-4.29 2.5-9.5 4-1 0-2 2.342-.476 3.5-2.5 5.232-14.472 10.5-29m-53 6q7.517-.25 15 .5.686.621 1 1.5-1.711 1.388 0 2.5l-2 2q-6.982.75-14 .5zm69 17q-3.357 1.555-7 .5a457 457 0 0 1 3-4q-1.33-2.852 1-5.5a24 24 0 0 1 3 9m-257-32q10.013-.25 20 .5L349 63.5l.5-11.5q-.059-6.39-2-12 9.487-.75 19-.5v56a57 57 0 0 1-15-1 711 711 0 0 1-18.5-26q-1.958 13.257-2 27a79.5 79.5 0 0 0-17.5-1z"/>
    <path style="opacity:.948" fill="#fdfdfd" d="M389.5 94.5v-40h-18q-.928-7.716 0-15h53a57.2 57.2 0 0 1-1 15q-7.728.181-16 0v40z"/>
    <path style="opacity:.943" fill="#fdfdfd" d="M459.5 89.5q-4.136-1.977-9.5-2l-9.5 1-2 5q-9 2-18 0a788 788 0 0 0 15-42q2.65-3.437 3-8 1.258-.513 1-2 10.122-3.35 21-1a1786 1786 0 0 1 20 54h-19q.147-3.08-2-5m-10-28a178 178 0 0 1 5 10.5 32.4 32.4 0 0 1-8 .5 103 103 0 0 1 3-11"/>
    <path style="opacity:.142" fill="#e8e8e8" d="M579.5 119.5q2.16 1.294 4 0a4.46 4.46 0 0 1 1.5 2q4.14.121 8.5-1 3.41 1.313 3 5-6.4.446-12.5-1-3.202 2.667-7.5 2-.887-4.763 3-7"/>
  </g>
  
</svg>