<svg xmlns="http://www.w3.org/2000/svg" width="354" height="48" style="shape-rendering:geometricPrecision;text-rendering:geometricPrecision;image-rendering:optimizeQuality;fill-rule:evenodd;clip-rule:evenodd">
  <path style="opacity:1" fill="#eaeae9" d="M41.5 17.5q2.163 4.095 3 9 .91-.186 1-1a16 16 0 0 0 5-2 57 57 0 0 0 1-15h-8q1.716-11.355 13-7.5l7 7q-.623 3.039-3 4.5-5.679.207 0 2h2q2.975-.515 4 2a6.54 6.54 0 0 0-3 3q-5.325 1.029-.5 3 .598-.343.5-1a16.3 16.3 0 0 1 5-2l-2 3q-2.29-.11-3 2-1.487-.258-2 1-15.103 7.055-30 14-2.571 1.857-6 2t-6 2q-3.285 1.185-6 0 2.235-2.85 5-2 7.043.5 7.5-6a18.2 18.2 0 0 1-5.5 2q-.258-1.487 1-2 7.864-1.11 9.5-9 2.453 6.405 7.5 2-1.943-9.125-11-6.5a71.5 71.5 0 0 0-6 12.5 279 279 0 0 1 0-18.5l-1-1.5q-2.51 2.38-6 2v-10q5.13-8.557 15-5.5a294 294 0 0 1 12 16.5"/>
  <path style="opacity:.031" d="M36.5 2.5q2 1 0 0"/>
  <path style="opacity:.043" fill="#a9a9a9" d="M77.5 9.5q1.125-1.61 3-.5a4.93 4.93 0 0 1-3 .5"/>
  <path style="opacity:.971" fill="#0a0908" d="M46.5 8.5h5a57 57 0 0 1-1 15 16 16 0 0 1-5 2l-2-8q.44-6.493 6-4 .285-3.689-3-5"/>
  <path style="opacity:.813" fill="#191919" d="M60.5 12.5v2q-5.679-1.793 0-2"/>
  <path style="opacity:1" fill="#6d6e6d" d="M62.5 14.5q1.602-1.402 4-1h1q.513 1.258 2 1-1.185 1.352-3 2-1.025-2.515-4-2"/>
  <path style="opacity:.02" fill="#e0e0e0" d="M77.5 12.5q1.538.595.5 2a2.43 2.43 0 0 1-.5-2"/>
  <path style="opacity:1" fill="#dfdfdf" d="M67.5 13.5h6q-.319 4.818-5 6a493 493 0 0 1 3-4q-.686-1.195-2-1-1.487.258-2-1"/>
  <path style="opacity:.004" fill="#979797" d="M81.5 13.5q1.91.865 0 2-1.444-.705 0-2"/>
  <path style="opacity:.798" fill="#181818" d="M66.5 13.5q3.672-1.46 8-1-.047 8.058-8 10l2-3q4.681-1.182 5-6z"/>
  <path style="opacity:.486" fill="#131213" d="M66.5 16.5q0 3-3 3a6.54 6.54 0 0 1 3-3"/>
  <path style="opacity:1" fill="#595958" d="M41.5 17.5h2l2 8q-.09.814-1 1-.837-4.905-3-9"/>
  <path style="opacity:.014" fill="#212121" d="M63.5 19.5v2q.098.657-.5 1-4.825-1.971.5-3"/>
  <path style="opacity:1" fill="#0f0f0e" d="M21.5 35.5v-1a71.5 71.5 0 0 1 6-12.5q9.057-2.625 11 6.5-5.047 4.405-7.5-2-1.636 7.89-9.5 9"/>
  <path style="opacity:.906" fill="#080808" d="M66.5 22.5q-.71 2.11-3 2 .71-2.11 3-2"/>
  <path style="opacity:1" fill="#858485" d="M52.5 25.5q2.519-2.512 6-2.5-2.487 2.494-6 2.5"/>
  <path style="opacity:.349" d="M61.5 25.5q.513-1.258 2-1 .485 9.285-1 18 .483-8.787-1-17"/>
  <path style="opacity:1" fill="#1d1c1b" d="M13.5 17.5q1.152 1.143 1.5 3 .575-.835 1.5-1a100 100 0 0 0-1.5 8q-1.224 1.985-3.5 2a40.8 40.8 0 0 0 2-12"/>
  <path style="opacity:1" fill="#f0f1f0" d="M61.5 25.5q1.483 8.213 1 17-4.865 10.082-16 6.5-2.598-2.958-4-6.5 4.18-1.465 9-1-.247-5.025.5-10 5.226-2.475 9.5-6"/>
  <path style="opacity:1" fill="#101010" d="M52.5 25.5q-1.87 4.715-7 6a31 31 0 0 0-2-2 55.5 55.5 0 0 1 9-4"/>
  <path style="opacity:1" fill="#565656" d="M11.5 32.5v-3q2.276-.015 3.5-2a100 100 0 0 1 1.5-8q2.306-3.75 2 1.5a38.2 38.2 0 0 1-2.5 9.5 9.17 9.17 0 0 1-4.5 2"/>
  <path style="opacity:1" fill="#161616" d="M43.5 29.5q-5.282 8.265-15 6a51.8 51.8 0 0 1 15-6"/>
  <path style="opacity:.998" fill="#0e0d0d" d="M61.5 25.5q-4.274 3.525-9.5 6a50.4 50.4 0 0 0-.5 10q-4.82-.465-9 1a19.6 19.6 0 0 1-4-3.5q-3.068-.736-6 .5h-1q14.897-6.945 30-14"/>
  <path style="opacity:1" fill="#9c9c9c" d="M14.5 6.5v10q3.49.38 6-2l1 1.5a279 279 0 0 0 0 18.5v1q-1.258.513-1 2-1.76 1.52-2 4-2.765-.85-5 2v-3q-3.44.384-6.5-1-2.824 1.73-2.5 5h4q2.398-.401 4 1-4.918 1.488-10 .5a3.94 3.94 0 0 1-1-2q3.315-5.812 9.5-8.5.725-1.422.5-3a9.17 9.17 0 0 0 4.5-2 38.2 38.2 0 0 0 2.5-9.5q.306-5.25-2-1.5-.925.165-1.5 1-.348-1.857-1.5-3-.473-5.807 1-11"/>
  <path style="opacity:1" fill="#181717" d="M18.5 41.5q.24-2.48 2-4a18.2 18.2 0 0 0 5.5-2q-.457 6.5-7.5 6"/>
  <path style="opacity:1" fill="#d8d8d8" d="M31.5 39.5h1q2.936 15.621-13 10.5-1.32-1.062-2-2.5.04-2.55 2-4 3.597.36 6-2 3.429-.143 6-2"/>
  <path style="opacity:1" fill="#373737" d="M25.5 41.5q-2.403 2.36-6 2 2.571-1.857 6-2"/>
  <path style="opacity:.902" fill="#2f2f2f" d="M8.5 44.5q2.128-1.427 5-1 2.715 1.185 6 0-1.96 1.45-2 4-1.98-2.162-5-2-1.602-1.401-4-1"/>
</svg>
