<svg xmlns="http://www.w3.org/2000/svg" width="1200" height="510" style="shape-rendering:geometricPrecision;text-rendering:geometricPrecision;image-rendering:optimizeQuality;fill-rule:evenodd;clip-rule:evenodd">
  <path style="opacity:.793" fill="#282320" d="M195.5 179.5a355 355 0 0 1 47 2.5 107 107 0 0 1 8.5 6.5q4.206 9.716 12 17a10.1 10.1 0 0 1 1.5 6q-2.585-2.63-4.5-6-1.006-1.129-2.5-1a153 153 0 0 0-8.5-13q-3.625-4.385-8.5-7 0-1-1-1a1192 1192 0 0 0-49-1.5q2.987-.56 5-2.5"/>
  <path style="opacity:1" fill="#4a4540" d="M195.5 179.5q-2.013 1.94-5 2.5 24.757.254 49 1.5h-52v-2q3.608-1.902 8-2"/>
  <path style="opacity:1" fill="#a6a39f" d="M187.5 183.5h52q1 0 1 1h-4a705 705 0 0 0-52 1q.71-2.11 3-2"/>
  <path style="opacity:1" fill="#a6a4a3" d="M392.5 183.5q1.488-.257 2 1a603 603 0 0 0-48 1q.166-.925 1-1.5 22.494-.75 45-.5"/>
  <path style="opacity:1" fill="#fafafa" d="M236.5 184.5q1.663 1.185 4 1.5l-3 1a109 109 0 0 0 7.5 6.5q.907-2.972 3-1 1 1.5 0 3-.981-1.794-1.5 0a84 84 0 0 0 6.5 4q.892 2.098-.5 4 1.5 4 3 0 1.025.544 2 1 3.41 3.443 0 6.5l4 1q1.242 2.988 4 4.5 1.258.513 1 2 1.418 3.96.5 8a140 140 0 0 1 12 16 4.46 4.46 0 0 1 1.5-2q.894 1.824.5 4a20.3 20.3 0 0 1 6.5 3l5 6a291 291 0 0 0 16 24 14 14 0 0 0 1 3.5q-.588 1.517-2 1.5a7.3 7.3 0 0 0 2 3 305 305 0 0 0 8-.5q3.288-1.6 5-4.5l2 48q1.937.356 3-1 .512-1.258 2-1 3.7-.382 6-3a53 53 0 0 0 9-4q3.297.57 5-2a34.5 34.5 0 0 0 13-6q1.185-1.352 3-2 1.02-25.853 2-52 1.492-16.231 1-33h-28a61 61 0 0 1-11-.5q-1.083-2.627-3-4.5a85 85 0 0 1 .5-13q3.68-2.912 5.5-7a139 139 0 0 1 14-14 603 603 0 0 1 48-1q3 2 5 5 1.885 4.391 6 7-1.205 1.385-.5 3 6.257 4.547 12.5 9 1.299 2.466 1.5 5-1.256-2.26-3.5-1.5l10.5 10.5a60 60 0 0 1-1 18 15.3 15.3 0 0 1-4.5 1.5q3.34 1.056 1 3.5a99 99 0 0 0-13 3q-1.602 1.401-4 1v3a20.7 20.7 0 0 1 5 1 10.2 10.2 0 0 0 3 3q1.5 2.5 4 4a124 124 0 0 1 3.5 3 29.8 29.8 0 0 1 8.5-3q5.473-1.15 10-4h14a23 23 0 0 1 4 3h1q-.621 4.865-3 9v1q-5.105 3.6-8 9-3.442.954-5 4-1.488-.258-2 1-2.29-.11-3 2-3.442.954-5 4a124 124 0 0 0-12 6.5q-1.321 1.063-2 2.5-3.261.375-5 3-1.488-.258-2 1a1163 1163 0 0 1-17 9q-3.8-.361-5 3l-8 3a31.7 31.7 0 0 0-6 2q-15.042.818-30 10 1.337 1.635 3 0 1.197.686 1 2l-7 4q-8.367 1.28-15 6a111 111 0 0 0-13 5h-2q-7.64-.168 0-2.5 2.082-1.333-.5-1.5-14.056 3.843-24 12-9.018-1.255-15 6-2.082-1.58-4.5-.5-4.46.737-5.5 3.5-.159-1.941-3-2a3953 3953 0 0 0-9 3q-1.545-.504-1.5-2 4.559-1.168 8-4 1.063-1.356 3-1 3.7-.382 6-3h1a114 114 0 0 0 13-5q4.724.127 8-3 .512-1.258 2-1 2.722-1.694 6-2 .356-1.937-1-3a90 90 0 0 1-6-11q.11-2.29-2-3a50.6 50.6 0 0 1-6-12q.11-2.29-2-3-2.505-4.012-5-8 .258-1.488-1-2a463 463 0 0 0-43-1 92 92 0 0 1-4 10q-3.653 5.444-5 12-3.663 2.431-4 7-1.875-.116-2.5-2-6.566 7.406-9.5 17a107 107 0 0 0-4.5 7q-2.05 1.536-2.5-1.5a230 230 0 0 1 6-12.5q-2.024-4.236 1-8a33 33 0 0 1-2-4.5q2.577-3.843 3-8.5h-3q.213-4.676 4-7.5-1.02-5.288 3-9.5-1.95-4.398 2-7.5a155 155 0 0 1-1.5-15.5q-3.075-3.972-3.5-9l-6-1q-.384-3.618 3-5-1.75-4.05.5-8 2.513-1.642 3.5-4.5-1.144-1.416-3-1.5a61 61 0 0 1-12 9 3.65 3.65 0 0 1-1.5-1 1638 1638 0 0 0-32 11q-2.093-1.972-3 1-.575-.834-1.5-1v-47a5.73 5.73 0 0 0 1-3 989 989 0 0 0 24.5-28q2.1-1.872 4.5-3a705 705 0 0 1 52-1"/>
  <path style="opacity:.778" fill="#312e2b" d="m361.5 181.5 31 2q-22.506-.25-45 .5-.834.575-1 1.5a139 139 0 0 0-14 14q-9.75 5.688-7 17-.783-2.578-3-4-.446-6.616 3.5-12a157 157 0 0 0 18.5-18 73 73 0 0 1 17-1"/>
  <path style="opacity:1" fill="#aeaead" d="M399.5 189.5q4.115 2.609 6 7-4.115-2.609-6-7"/>
  <path style="opacity:.224" fill="#1b1618" d="M284.5 194.5q1.126-1.61 3-.5a4.93 4.93 0 0 1-3 .5"/>
  <path style="opacity:.38" fill="#141313" d="M433.5 242.5h-2q.487-10.78-1-21-6-7-13-13a102 102 0 0 0-12-12q-1.885-4.391-6-7-2-3-5-5-.512-1.257-2-1l-31-2q11.798.378 23.5-1 5.719.969 11.5 1.5 17.033 20.042 36.5 38.5.561 1.375 1.5 2.5-1.317 9.206-1 19.5"/>
  <path style="opacity:1" fill="#e1e0df" d="M236.5 184.5h4q4.875 2.615 8.5 7a153 153 0 0 1 8.5 13 44 44 0 0 1-2-1q-1.5 4-3 0 1.392-1.902.5-4a84 84 0 0 1-6.5-4q.519-1.794 1.5 0 1-1.5 0-3-2.093-1.972-3 1a109 109 0 0 1-7.5-6.5l3-1q-2.337-.315-4-1.5"/>
  <path style="opacity:1" fill="#d7d6d6" d="M405.5 196.5a102 102 0 0 1 12 12 1755 1755 0 0 1-12.5-9q-.705-1.615.5-3"/>
  <path style="opacity:.998" fill="#cbcac9" d="M257.5 204.5q1.494-.129 2.5 1 1.915 3.37 4.5 6a20.7 20.7 0 0 0 1 5q-2.758-1.512-4-4.5l-4-1q3.41-3.057 0-6.5"/>
  <path style="opacity:.98" fill="#282524" d="M187.5 181.5v2q-2.29-.11-3 2-2.4 1.128-4.5 3a989 989 0 0 1-24.5 28q-1.437.679-2.5 2-1.243 25.758.5 51v16h-2a3683 3683 0 0 0-1-67.5 118 118 0 0 1 11.5-14.5 164 164 0 0 0 21.5-21.5 8.4 8.4 0 0 1 4-.5"/>
  <path style="opacity:1" fill="#878482" d="M332.5 199.5q-1.82 4.088-5.5 7a85 85 0 0 0-.5 13q-1.356-1.063-1-3-2.75-11.312 7-17"/>
  <path style="opacity:1" fill="#e8e8e7" d="M417.5 208.5q7 6 13 13 .25 11.011-.5 22a61 61 0 0 0-5.5 2h-3q2.34-2.444-1-3.5a15.3 15.3 0 0 0 4.5-1.5 60 60 0 0 0 1-18L415.5 212q2.244-.76 3.5 1.5-.201-2.534-1.5-5"/>
  <path style="opacity:1" fill="#1d1916" d="M322.5 212.5q2.217 1.422 3 4-.356 1.937 1 3 1.917 1.873 3 4.5 5.477.748 11 .5v1q12.726 1.49 26 1 .491 15.77-1 31-.512-1.258-2-1-8.52-12.309-11.5-27a144 144 0 0 1-25.5-4.5q-3.958-5.625-4-12.5"/>
  <path style="opacity:1" fill="#676462" d="M340.5 225.5h27v32q-.98 26.147-2 52v-52q1.491-15.23 1-31-13.274.49-26-1"/>
  <path style="opacity:1" fill="#b1b0ae" d="M340.5 225.5v-1h28q.492 16.769-1 33v-32z"/>
  <path style="opacity:1" fill="#e5e5e5" d="M266.5 218.5a450 450 0 0 1 21 29 20.3 20.3 0 0 0-6.5-3q.394-2.176-.5-4a4.46 4.46 0 0 0-1.5 2 140 140 0 0 0-12-16q.918-4.04-.5-8"/>
  <path style="opacity:1" fill="#595858" d="M430.5 221.5q1.487 10.22 1 21v3h-7a61 61 0 0 1 5.5-2q.75-10.989.5-22"/>
  <path style="opacity:.373" fill="#1e1d1d" d="M264.5 211.5a255.5 255.5 0 0 1 27 38l1 4-5-6a450 450 0 0 0-21-29q.258-1.487-1-2a20.7 20.7 0 0 1-1-5"/>
  <path style="opacity:.98" fill="#363434" d="M431.5 242.5h2q1.937 1.563 0 3.5a68.5 68.5 0 0 1-14 4.5q-1.578-2.634-5-2a48.3 48.3 0 0 0 10-3h7z"/>
  <path style="opacity:.039" d="M331.5 247.5q2 1 0 0"/>
  <path style="opacity:1" fill="#939292" d="M421.5 245.5h3a48.3 48.3 0 0 1-10 3h-6a99 99 0 0 1 13-3"/>
  <path style="opacity:.776" fill="#0c0c0c" d="M460.5 304.5q-.306-3.278-2-6 .512-1.258 2-1 2.596-.789 4-3 3.381-.936 5-4a229.4 229.4 0 0 0 26-25q1.628-4.91.5-10a55 55 0 0 1-5.5-4q-7.224-1.725-15-.5-3.229.149-5 2.5-4.663-.354-9 1a397 397 0 0 0-22 2h-1q-5.787.405-10 4a29.8 29.8 0 0 0-8.5 3 124 124 0 0 0-3.5-3q-.5-3.5-4-4a10.2 10.2 0 0 1-3-3q-.837-1.935-3-2.5 3.335-.85 6-2.5h2q3.422-.634 5 2a24 24 0 0 1-6 2.5q5.61 1.935 9.5 6.5 34.608-13.222 71.5-10.5a144 144 0 0 1 6.5 8.5q.501 10.767-5.5 20a449 449 0 0 1-20 17.5 86.5 86.5 0 0 0-15 9.5"/>
  <path style="opacity:.973" fill="#040403" d="M291.5 249.5a119 119 0 0 1 9.5 12l1 4q5.681 2.694 7 9 2.681 3.687 7 5a40.5 40.5 0 0 0 9-6 144 144 0 0 1 5-16q1.875-5.124 6.5-8 13.032 6.786 27 7 1.488-.258 2 1v52q-1.815.648-3 2-7.504 1.047-13 6-3.297-.57-5 2a53 53 0 0 1-9 4q-3.7.382-6 3-1.488-.258-2 1-2.978-24.45-2-50-4.188.183-6 4-2.29-.11-3 2-3.02.163-5-2-.357-2.856-3-4a291 291 0 0 1-16-24z"/>
  <path style="opacity:1" fill="#4c4c4c" d="M408.5 248.5h4q-2.665 1.65-6 2.5 2.163.565 3 2.5a20.7 20.7 0 0 0-5-1v-3q2.398.401 4-1"/>
  <path style="opacity:1" fill="#3d3d3d" d="M490.5 251.5q-8.398-.516-16 2h-4q1.771-2.351 5-2.5 7.776-1.225 15 .5"/>
  <path style="opacity:.984" fill="#7c7875" d="M155.5 216.5a5.73 5.73 0 0 1-1 3 625 625 0 0 0-1 50q-1.743-25.242-.5-51 1.063-1.321 2.5-2"/>
  <path style="opacity:.016" d="M417.5 252.5q2 1 0 0"/>
  <path style="opacity:1" fill="#f8f7f7" d="M470.5 253.5h4a65 65 0 0 1 16 1 3.65 3.65 0 0 1-1 1.5q-12.99.75-26 .5a24.6 24.6 0 0 1 7-3"/>
  <path style="opacity:1" fill="#575756" d="M461.5 254.5q-4.078 2.12-9 2h-13a397 397 0 0 1 22-2"/>
  <path style="opacity:1" fill="#636262" d="M412.5 256.5q3.5.5 4 4-2.5-1.5-4-4"/>
  <path style="opacity:1" fill="#9d9c9c" d="M470.5 253.5a24.6 24.6 0 0 0-7 3v1q-4.332-.765-7 2a23 23 0 0 0-4-3q4.922.12 9-2 4.337-1.354 9-1"/>
  <path style="opacity:1" fill="#898987" d="M438.5 256.5q-4.527 2.85-10 4 4.213-3.595 10-4"/>
  <path style="opacity:1" fill="#757676" d="M463.5 257.5q11.511-.25 23 .5 1.524.779 2 2.5-.091 3.23-3 4l1-2v-3q-14.711-1.9-29 0h-1q2.668-2.765 7-2"/>
  <path style="opacity:.937" fill="#111" d="M457.5 259.5q14.289-1.9 29 0v3q-14.156-3.75-26 4.5-8.045 15.54-23 24-5.788 4.652-3 11.5a31 31 0 0 0 9-5.5 8.4 8.4 0 0 1 4-.5l-8 6q-3.426.713-6 3-2.853-4.256-2-10-1.937-.356-3 1-2.29-.11-3 2-3.9 1.452-7 4a82 82 0 0 0-11 5 2.43 2.43 0 0 1-2-.5q3.288-1.6 5-4.5.512-1.258 2-1 3.522-.138 5-3 .679-1.437 2-2.5a124 124 0 0 1 12-6.5q3.584-.718 5-4 2.29.11 3-2 .512-1.258 2-1 3.381-.936 5-4 5.105-3.6 8-9v-1q5.462-3.393 3-9"/>
  <path style="opacity:1" fill="#d8d8d8" d="M154.5 219.5v47q-.175 2.976 2 5a34.3 34.3 0 0 1 10.5-6 9.8 9.8 0 0 1 4 1 163 163 0 0 1 11-4q1.707.733 3.5 1l-2 3q-4 3-7 7a65 65 0 0 0-18 3 7.9 7.9 0 0 1-3.5-1q-.297-2.822-1.5-5v-1a625 625 0 0 1 1-50"/>
  <path style="opacity:1" fill="#4a4a4a" d="M457.5 259.5q2.462 5.607-3 9 2.379-4.135 3-9"/>
  <path style="opacity:1" fill="#5b5c5c" d="M454.5 269.5q-2.895 5.4-8 9 2.895-5.4 8-9"/>
  <path style="opacity:.635" fill="#909095" d="M485.5 265.5q-.95 4.714-5 7.5a77.7 77.7 0 0 0-11 10 17.34 17.34 0 0 1-7 3.5 343 343 0 0 0 23-21"/>
  <path style="opacity:1" fill="#b1b1b1" d="M153.5 270.5q1.203 2.178 1.5 5a7.9 7.9 0 0 0 3.5 1 65 65 0 0 1 18-3v1q-3 0-3 3h-1q-8.88 1.375-16.5 6-.417-1.374-1.5-2 .356-1.937-1-3z"/>
  <path style="opacity:1" fill="#aaa" d="M191.5 300.5q-.925-.166-1.5-1l-1-10a101 101 0 0 1-4.5-11 52 52 0 0 1-1.5-10 10.5 10.5 0 0 0-2.5 3q-1.657 1.65-4 2 3-4 7-7 2.276-.016 3.5-2 2.473 3.656.5 7.5 5.071 13.709 4 28.5"/>
  <path style="opacity:1" fill="#5b5b5b" d="M446.5 278.5q-1.619 3.064-5 4 1.558-3.046 5-4"/>
  <path style="opacity:1" fill="#d5d5d5" d="M308.5 277.5q2.643 1.144 3 4-.129 1.494 1 2.5 2.349 1.147 4-.5.71-2.11 3-2a5.73 5.73 0 0 0 3-1q-1.712 2.9-5 4.5a305 305 0 0 1-8 .5 7.3 7.3 0 0 1-2-3q1.412.017 2-1.5a14 14 0 0 1-1-3.5"/>
  <path style="opacity:1" fill="#908f90" d="m172.5 277.5-3 4q-1.5 2.5-4 4-5.005-1.858-10 0-1.393-1.783-1-4 1.083.626 1.5 2 7.62-4.625 16.5-6"/>
  <path style="opacity:1" fill="#787978" d="M311.5 281.5q1.98 2.163 5 2-1.651 1.647-4 .5-1.129-1.006-1-2.5"/>
  <path style="opacity:1" fill="#797979" d="M439.5 283.5q-.71 2.11-3 2 .71-2.11 3-2"/>
  <path style="opacity:.573" fill="#060504" d="M151.5 285.5h2v1a39.6 39.6 0 0 0 1 11.5q-.372 2.623-3 2.5z"/>
  <path style="opacity:1" fill="#4b4b4b" d="M436.5 285.5q-1.416 3.282-5 4 1.558-3.046 5-4"/>
  <path style="opacity:1" fill="#d0d0d0" d="M322.5 280.5q.09-.814 1-1a601 601 0 0 1 1 49z"/>
  <path style="opacity:1" fill="#686767" d="M153.5 278.5q1.356 1.063 1 3-.393 2.217 1 4 4.995-1.858 10 0a5.73 5.73 0 0 0-1 3q-2.643 1.144-3 4a45.5 45.5 0 0 1-5.5 6 158 158 0 0 0-2.5-12z"/>
  <path style="opacity:.996" fill="#4a4b4b" d="M469.5 290.5q-1.619 3.064-5 4 1.558-3.046 5-4"/>
  <path style="opacity:1" fill="#8e8e8e" d="M191.5 300.5q1.303 3.325 1 7-2.549-.04-4-2 .1-2.188-1-4 .895-.353 1-1.5a39.4 39.4 0 0 1-5-5.5q2.26-1.858 3.5 1-.552-5.45-1.5-11-4.534.592-3-3a44.4 44.4 0 0 1-2-10 10.5 10.5 0 0 1 2.5-3 52 52 0 0 0 1.5 10 101 101 0 0 0 4.5 11l1 10q.575.834 1.5 1"/>
  <path style="opacity:1" fill="#4d4d4d" d="M138.5 354.5v-6q6.927-4.149 15-6a4.93 4.93 0 0 1 .5-3 49.2 49.2 0 0 0 7.5-11q1.237-1.329 3-1-1.44-11.454 4.5-21a517 517 0 0 0 4-27q-1.224 1.984-3.5 2l3-4h1q1.612-1.593 3 0a108.6 108.6 0 0 0-3 17.5 4.93 4.93 0 0 1 1 2.5q-7.774 15.274-7 33h-3q-1.876 11.516-11 18.5-4.822.41-8 4-3.63.435-7 1.5"/>
  <path style="opacity:.753" fill="#2c2d2f" d="M451.5 293.5q-1.144 2.643-4 3 .802-2.919 4-3"/>
  <path style="opacity:1" fill="#5e5d5e" d="M464.5 294.5q-1.404 2.211-4 3 .802-2.919 4-3"/>
  <path style="opacity:1" fill="#626261" d="M327.5 327.5q-1.063 1.356-3 1a601 601 0 0 0-1-49q-.91.186-1 1a5.73 5.73 0 0 1-3 1q1.812-3.817 6-4-.978 25.55 2 50"/>
  <path style="opacity:1" fill="#e9e9e8" d="M490.5 251.5a55 55 0 0 0 5.5 4q1.128 5.09-.5 10a229.4 229.4 0 0 1-26 25q-3.442.954-5 4-3.198.081-4 3-1.488-.258-2 1a59.6 59.6 0 0 1-9 5q.329-1.763-1-3-4.317.234-9 2l8-6q2.856-.357 4-3a44.5 44.5 0 0 0 11-7 17.34 17.34 0 0 0 7-3.5 77.7 77.7 0 0 1 11-10q4.05-2.786 5-7.5v-1q2.909-.77 3-4-.476-1.721-2-2.5-11.489-.75-23-.5v-1q13.01.25 26-.5a3.65 3.65 0 0 0 1-1.5 65 65 0 0 0-16-1q7.602-2.516 16-2"/>
  <path style="opacity:1" fill="#bdbdbc" d="M428.5 296.5q2.832 3.732 2 9-1.452-3.161-1-7h-4q.71-2.11 3-2"/>
  <path style="opacity:.974" fill="#fbfbfb" d="M920.5 297.5a241 241 0 0 1 31 1 5126 5126 0 0 0-5 56h-22a5319 5319 0 0 0-4-57"/>
  <path style="opacity:1" fill="#dcdddd" d="M199.5 363.5v2q-3.044 4.572-5 10-.936.626-1 2 .37 1.82 2 2-3.856.714-6 4 .962-5.885 0-11.5a4.93 4.93 0 0 1 3-.5 4.93 4.93 0 0 0-.5-3q-1 2-2 0 .29-5.64-3.5-9.5 1.667-6.054-1-12 4.09-7.157 5.5-15.5 4.875-2.558-.5-4.5 2.337-.315 4-1.5 2.898-2.214 1-5-.797-3.186-4-4.5 3.76-7.786 4.5-16.5 1.737-.747 2.5-2.5a135 135 0 0 0-4-16l1-1a67 67 0 0 1-4-12.5 23.3 23.3 0 0 1 1-6.5q-1.979-.292-4 .5 1.978-3.351 6-4-.398 7.245 2 14.5 4.565 6.41 5.5 14.5.48 9.474.5 18.5-.6 4.35-2 8.5a7.25 7.25 0 0 1-2.5-2q-.895 3.636 2.5 5.5-4.794 5.733-2 13-.383 1.989-2 3 1.972 2.092-1 3 1.58 2.082.5 4.5a21.3 21.3 0 0 0-4 5 77 77 0 0 1-1.5 11 36.4 36.4 0 0 1 7 4q-2.058 3.18 2 3"/>
  <path style="opacity:1" fill="#828282" d="M272.5 301.5a442 442 0 0 0-42 1q-1.404 4.757-5 8a92 92 0 0 0 4-10q21.765-.494 43 1"/>
  <path style="opacity:1" fill="#545353" d="M417.5 298.5q-1.478 2.862-5 3 1.739-2.625 5-3"/>
  <path style="opacity:1" fill="#302f2f" d="M230.5 302.5a442 442 0 0 1 42-1q1.258.512 1 2a474 474 0 0 0-43-1"/>
  <path style="opacity:1" fill="#878787" d="M425.5 298.5q-2.431 3.663-7 4 3.1-2.548 7-4"/>
  <path style="opacity:.979" fill="#fbfbfb" d="M522.5 301.5q29.005-.25 58 .5 49.563 7.563 60.5 56.5 5.268 31.88-6 62-17.643 33.464-55.5 37.5-28.495.75-57 .5zm33 27q11.511-.25 23 .5 21.742 3.24 27.5 24.5 7.304 27.65-1 55-6.858 18.864-26.5 22.5-11.489.75-23 .5z"/>
  <path style="opacity:1" fill="#060606" d="M230.5 302.5a474 474 0 0 1 43 1q2.495 3.988 5 8-.11 2.29 2 3a50.6 50.6 0 0 0 6 12q-.11 2.29 2 3a90 90 0 0 0 6 11 53 53 0 0 0-5 5q-1.488-.258-2 1-4.724-.127-8 3a60.8 60.8 0 0 0-12 3l-2-4a6.55 6.55 0 0 0-3-3q-1.735-6.713-7-11-.35-2.343-2-4-1.056-2.766-4-1.5-2.506 2.764-3 6.5a32.5 32.5 0 0 1-3 7 117 117 0 0 0-6 13q-1.257.512-1 2a4.93 4.93 0 0 1-3-.5q2.817-2.989 1-6.5l-5 4.5q-5.381.917-3.5-4.5a14.3 14.3 0 0 1 6.5-2.5 12.5 12.5 0 0 0-7 0q-1.468 3.206-4 5.5-1.428-1.55 0-3.5a605 605 0 0 0 3-3.5q-2.752-1.392-1-3.5-3.14-2.89-6 .5-.58-3.346-.5-7-1.257 2.248-2.5 1l2-6v-2q2.548-3.1 4-7 3.653-5.444 5-12 3.596-3.243 5-8"/>
  <path style="opacity:1" fill="#696969" d="M428.5 296.5q1.063-1.356 3-1-.853 5.744 2 10v1q-1.937.356-3-1 .832-5.268-2-9"/>
  <path style="opacity:.925" fill="#252525" d="M458.5 298.5q1.694 2.722 2 6-2.272 3.893-7 4v-4h-3a8.4 8.4 0 0 1-.5 4q-2.452-2.023-4.5.5 5.814-.524 0 2.5a66 66 0 0 0-15 5 727 727 0 0 1 8-5q2.29.11 3-2a36 36 0 0 0 8-6 59.6 59.6 0 0 0 9-5"/>
  <path style="opacity:.012" d="M145.5 306.5q2.755.209 1 2-1.197-.686-1-2"/>
  <path style="opacity:1" fill="#171615" d="M153.5 286.5a158 158 0 0 1 2.5 12 45.5 45.5 0 0 0 5.5-6q1.438-.679 2.5-2a275 275 0 0 1-7 32q-1.065 2.21-3.5 2a373 373 0 0 1-4 8.5q-5.449 1.756-10 4.5.147 3.08-2 5a14 14 0 0 0-1-3.5 109 109 0 0 0 1.5-12.5 152 152 0 0 1 11-17 23.9 23.9 0 0 0 2.5-9q2.628.123 3-2.5a39.6 39.6 0 0 1-1-11.5"/>
  <path style="opacity:1" fill="#b1b1b0" d="M418.5 302.5q-4.553 5.784-12 7l1-2a82 82 0 0 1 11-5"/>
  <path style="opacity:.551" fill="#080808" d="M453.5 308.5q.129 1.494-1 2.5a162 162 0 0 0-17.5 11.5 14697 14697 0 0 1-1 96q-3.274 8.307-10.5 13.5l1 1q-2.136 3.327-6 4.5a142 142 0 0 1-19 20l4-7q4.72-3.068 7-8 0-1 1-1 4.115-2.609 6-7 2-3 5-5 6.355-3.846 8-11v-2q1.356-1.063 1-3a1982 1982 0 0 0 1-89q-2.872-.426-5 1a16.3 16.3 0 0 0-5 2 2.43 2.43 0 0 1-2-.5q2-1.5 0-3 3.814-2.073 6-5.5 2.29.11 3-2h1a66 66 0 0 1 15-5q5.814-3.024 0-2.5 2.048-2.523 4.5-.5a8.4 8.4 0 0 0 .5-4h3z"/>
  <path style="opacity:1" fill="#808181" d="M441.5 309.5q-.71 2.11-3 2 .71-2.11 3-2"/>
  <path style="opacity:1" fill="#c2c3c3" d="M195.5 320.5q-2.802-1.886-5 1a231 231 0 0 1-2-11.5q.956-2.569 3-.5 1.197-.686 1-2 .303-3.675-1-7 1.071-14.791-4-28.5 1.973-3.844-.5-7.5-1.224 1.984-3.5 2l2-3 3-2q2.021-.792 4-.5a23.3 23.3 0 0 0-1 6.5 67 67 0 0 0 4 12.5l-1 1a135 135 0 0 1 4 16q-.763 1.753-2.5 2.5-.74 8.714-4.5 16.5 3.203 1.314 4 4.5"/>
  <path style="opacity:1" fill="#959494" d="M406.5 309.5q-2.3 2.618-6 3 2.3-2.618 6-3"/>
  <path style="opacity:1" fill="#6a6a6a" d="M393.5 311.5q-1.739 2.625-5 3 1.2-3.361 5-3"/>
  <path style="opacity:1" fill="#656565" d="M225.5 310.5q-1.347 6.556-5 12 1.347-6.556 5-12"/>
  <path style="opacity:1" fill="#8b8b8a" d="M278.5 311.5q2.11.71 2 3-2.11-.71-2-3"/>
  <path style="opacity:1" fill="#edeeee" d="M216.5 329.5v2q-3.703 1.66-3 6-2.514 1.025-2 4-1.314-.197-2 1a3532 3532 0 0 0-8 17q-1.76 1.52-2 4-4.058.18-2-3a36.4 36.4 0 0 0-7-4 77 77 0 0 0 1.5-11 21.3 21.3 0 0 1 4-5q1.08-2.418-.5-4.5 2.972-.908 1-3 1.617-1.011 2-3-2.794-7.267 2-13-3.395-1.864-2.5-5.5a7.25 7.25 0 0 0 2.5 2q1.4-4.15 2-8.5a382 382 0 0 0-.5-18.5q-.935-8.09-5.5-14.5-2.398-7.255-2-14.5-4.022.649-6 4l-3 2a14 14 0 0 1-3.5-1 163 163 0 0 0-11 4 9.8 9.8 0 0 0-4-1 34.3 34.3 0 0 0-10.5 6q-2.175-2.024-2-5 .925.166 1.5 1 .907-2.972 3-1a1638 1638 0 0 1 32-11q.621.686 1.5 1a61 61 0 0 0 12-9q1.856.084 3 1.5-.987 2.858-3.5 4.5-2.25 3.95-.5 8-3.384 1.382-3 5l6 1q.425 5.028 3.5 9 .362 7.808 1.5 15.5-3.95 3.102-2 7.5-4.02 4.212-3 9.5-3.787 2.824-4 7.5h3q-.423 4.657-3 8.5a33 33 0 0 0 2 4.5q-3.024 3.764-1 8a230 230 0 0 0-6 12.5q.45 3.036 2.5 1.5a107 107 0 0 1 4.5-7q2.934-9.594 9.5-17 .625 1.884 2.5 2"/>
  <path style="opacity:1" fill="#c0c0bf" d="M362.5 311.5a34.5 34.5 0 0 1-13 6q5.496-4.953 13-6"/>
  <path style="opacity:1" fill="#272727" d="M410.5 302.5q-1.712 2.9-5 4.5a2.43 2.43 0 0 0 2 .5l-1 2q-3.7.382-6 3a5.73 5.73 0 0 1-3 1q-3.9 1.452-7 4a352 352 0 0 0-23 10q-1 7.225-2 14v-15h-3l12-6q3.7-.382 6-3l8-3q3.261-.375 5-3a1163 1163 0 0 0 17-9"/>
  <path style="opacity:1" fill="#ababab" d="M397.5 313.5q-2.032 4.527-7 4 3.1-2.548 7-4"/>
  <path style="opacity:1" fill="#7a7a7a" d="M429.5 316.5q-.71 2.11-3 2 .71-2.11 3-2"/>
  <path style="opacity:1" fill="#292928" d="M138.5 348.5v24h-1q-1.637-14.362 0-30 2.147-1.92 2-5 4.551-2.744 10-4.5a373 373 0 0 0 4-8.5q2.435.21 3.5-2a275 275 0 0 0 7-32q-1.062 1.321-2.5 2 .357-2.856 3-4a25 25 0 0 0 4.5-4q1.184 9.294-5 16a870 870 0 0 0-4 26 203 203 0 0 1-13.5 16q-3.767.015-8 1z"/>
  <path style="opacity:1" fill="#a5a5a5" d="M349.5 317.5q-1.703 2.57-5 2 1.703-2.57 5-2"/>
  <path style="opacity:1" fill="#7a7b7b" d="M380.5 317.5q-2.3 2.618-6 3v-1a31.7 31.7 0 0 1 6-2"/>
  <path style="opacity:1" fill="#e6e6e7" d="M374.5 319.5v1l-12 6q-6.265 1.625-12 5h-2q.197-1.314-1-2-1.663 1.635-3 0 14.958-9.182 30-10"/>
  <path style="opacity:1" fill="#858585" d="M335.5 323.5q-2.3 2.618-6 3 2.3-2.618 6-3"/>
  <path style="opacity:1" fill="#3b3b3b" d="M138.5 348.5v-5q4.233-.985 8-1a203 203 0 0 0 13.5-16 870 870 0 0 1 4-26q6.184-6.706 5-16a25 25 0 0 1-4.5 4 5.73 5.73 0 0 1 1-3q2.5-1.5 4-4 2.276-.016 3.5-2a517 517 0 0 1-4 27q-5.94 9.546-4.5 21-1.763-.329-3 1a49.2 49.2 0 0 1-7.5 11 4.93 4.93 0 0 0-.5 3q-8.073 1.851-15 6"/>
  <path style="opacity:1" fill="#cecece" d="M194.5 325.5q-1.663 1.185-4 1.5 5.375 1.942.5 4.5-1.41 8.343-5.5 15.5 2.667 5.946 1 12 3.79 3.86 3.5 9.5 1 2 2 0 .724 1.422.5 3a4.93 4.93 0 0 0-3 .5q.962 5.615 0 11.5-1.755 3.225-3 7 1.783 1.393 4 1v1l-6 1q-1.724-.436-2-2.5 3.297-10.718 4-21.5-3.78-15.887-1.5-32a32.1 32.1 0 0 0 4.5-11q2.128-1.426 5-1"/>
  <path style="opacity:1" fill="#7c7c7d" d="M220.5 322.5q-1.452 3.9-4 7 .337-4.569 4-7"/>
  <path style="opacity:1" fill="#79797a" d="M253.5 330.5q-1.385-1.205-3-.5a50 50 0 0 1-4 5.5q.494-3.736 3-6.5 2.944-1.266 4 1.5"/>
  <path style="opacity:1" fill="#848484" d="M286.5 326.5q2.11.71 2 3-2.11-.71-2-3"/>
  <path style="opacity:1" fill="#5a5a5a" d="M413.5 325.5q-2.032 4.527-7 4 3.1-2.548 7-4"/>
  <path style="opacity:1" fill="#131312" d="M426.5 318.5q-2.186 3.427-6 5.5 2 1.5 0 3a2.43 2.43 0 0 0 2 .5v1q-4.246.868-7 4-3.368.894-6 3-2.29-.11-3 2a36 36 0 0 0-7 4q-3.7.382-6 3h-1q-2.29-.11-3 2-3.699 1.197-6 4a115 115 0 0 0-14 6q-2.276.016-3.5 2-.75 12.49-.5 25-1-11.265-2-23a6.8 6.8 0 0 0-1.5 3l-2-4a19.8 19.8 0 0 0-5.5 5q1.55 1.428 3.5 0 1.886.525 1 2-8.387 2.252-9 11-3.744-3.47-1.5-8-3.138-6.254-4 1-2.397-1.477-5-.5-6.509 4.508-14 6.5v15h-1a57.2 57.2 0 0 0-1-15q-2.289.741-4 2-1.167.984-2 2.5a20.7 20.7 0 0 1 3 7.5 39.8 39.8 0 0 0-7-8q-9.15 3.322-18 7.5-5.74 4.643 0 9a31.8 31.8 0 0 0 7 2.5q-.329 1.763 1 3l1-2a310 310 0 0 1 10.5 6q4.758-2.245 5.5 3 4.5-.5 4 4 7.793-.481 15 1-13.274-.49-26 1-.406 2.82 2 4a96.8 96.8 0 0 0 14 19 11.74 11.74 0 0 0 3 5q3.944 7.934 11 13 1.264 2.51 4 3.5 23.758 1.242 47-.5.512-1.258 2-1a5.73 5.73 0 0 0 3-1q-1.527 4.774-6.5 6-22.528-.42-45.5-1.5-7.531-3.027-12.5-9.5a199 199 0 0 0-14-19q-4.021-7.048-8-14a489 489 0 0 0-25.5-24.5 4.93 4.93 0 0 0-3-.5q1.063-1.356 3-1 .21-2.436-2-3.5 2.097-5.026 7-3l-1-1q1.321-1.062 2-2.5 4.246-.868 7-4 1.488.258 2-1 8.463-.995 15-6 5.539-2.04 11-4 3.261-.375 5-3h1q7.148-1.029 12-6 4.866-1.444 9-4a8.4 8.4 0 0 0 4-.5 119 119 0 0 1 12-7.5q5.066-2.513 10-5a8.4 8.4 0 0 0 4-.5 268 268 0 0 0 10-6.5h2q5.625-1.366 9-6 4.968.527 7-4a77 77 0 0 1 13-7"/>
  <path style="opacity:1" fill="#fafbfa" d="m346.5 457.5-2-1q-1.653-2.388 2-2.5-4.342-2.91-7-7.5a76 76 0 0 1-7-3 11.74 11.74 0 0 1-3-5q.116-1.875 2-2.5a251 251 0 0 0-12-18 1096 1096 0 0 0 47-1.5v-1q-.25-28.005.5-56a10.5 10.5 0 0 0 2.5-3 115 115 0 0 1 14-6q4.047-.517 6-4 2.29.11 3-2h1q3.7-.382 6-3a36 36 0 0 1 7-4q2.29.11 3-2 2.632-2.106 6-3a77 77 0 0 1 11-3q.482 44.797-1 89.5a119387 119387 0 0 1-32 36q1.712 1.112 0 2.5a290 290 0 0 1-47 0"/>
  <path style="opacity:1" fill="#454544" d="M406.5 329.5q-3.375 4.634-9 6 3.375-4.634 9-6"/>
  <path style="opacity:1" fill="#4c4c4c" d="m216.5 331.5-2 6h-1q-.703-4.34 3-6"/>
  <path style="opacity:1" fill="#5e5e5e" d="M427.5 325.5q2.128-1.426 5-1 .497 44.757-1 89v-88z"/>
  <path style="opacity:1" fill="#bababa" d="M427.5 325.5h4v88q.356 1.937-1 3v-90a54 54 0 0 0-8 2v-1a16.3 16.3 0 0 1 5-2"/>
  <path style="opacity:1" fill="#767575" d="M409.5 335.5q-.71 2.11-3 2 .71-2.11 3-2"/>
  <path style="opacity:1" fill="#5e5e5d" d="M176.5 274.5q1.916 1.79 2 5a193 193 0 0 0-2.5 28q-4.944 12.967-5.5 27-1.763-.329-3 1-2.093 6.31-6 11.5a360 360 0 0 1-19 10.5q-1.388-1.712-2.5 0a113 113 0 0 0-.5 15h-1v-18q3.37-1.065 7-1.5 3.178-3.59 8-4 9.124-6.984 11-18.5h3q-.774-17.726 7-33a4.93 4.93 0 0 0-1-2.5 108.6 108.6 0 0 1 3-17.5q-1.388-1.593-3 0 0-3 3-3"/>
  <path style="opacity:.981" fill="#fbfbfb" d="M708.5 339.5q49.329-4.246 62.5 43 7.327 34.077-13 62-20.778 19.891-49.5 15.5-37.965-6.462-45.5-44.5-6.117-32.426 13-59 13.138-14.692 32.5-17m3 26q17.937-3.16 25.5 13 6.951 21.491 0 43-7.555 16.401-25.5 12.5-14.808-4.822-16.5-20.5-3.206-18.369 3-36 4.25-9.01 13.5-12"/>
  <path style="opacity:.978" fill="#fbfbfb" d="M831.5 339.5q29.628-3.879 49.5 18 8.401 12.76 7.5 28h-30q-2.572-26.058-28-18.5-11.412 8.164-11.5 22.5-2.945 20.382 5.5 39 13.015 10.502 28 2.5 6.483-5.216 6-13.5h30q-.982 31.246-31 40.5-59.466 12.918-70.5-46.5-5.074-34.487 17.5-60.5 12.051-9.425 27-11.5"/>
  <path style="opacity:.976" fill="#fbfbfb" d="M1017.5 339.5c19.47-2.488 36.3 2.845 50.5 16q6.735 9.414 7.5 21a257 257 0 0 1-32 1c-1.07-10.566-6.9-15.566-17.5-15q-16.5-.01-15 16c2.36 3.369 5.53 5.536 9.5 6.5q24.12 3.648 45 16c9.16 9.458 11.99 20.625 8.5 33.5-5.4 12.059-14.57 19.892-27.5 23.5-19.37 5.121-37.7 2.788-55-7q-14.161-12.075-16-30.5h31c.08 9.256 4.75 14.756 14 16.5 5.75.851 11.42.517 17-1q10.5-6.007 4.5-16.5a15.8 15.8 0 0 0-5.5-3.5 303 303 0 0 1-40-13q-27.338-18.108-10.5-46.5c8.295-9.919 18.8-15.585 31.5-17"/>
  <path style="opacity:1" fill="#b2b3b3" d="M188.5 305.5q1.451 1.96 4 2 .197 1.314-1 2-2.044-2.069-3 .5a231 231 0 0 0 2 11.5q2.198-2.886 5-1 1.898 2.786-1 5-2.872-.426-5 1a20.7 20.7 0 0 1-5 1q.126 4.872-2.5 9-1.213 9.374.5 18.5l-2 16a14.4 14.4 0 0 1 1 5q-2.534 8.963-3 18.5h3q-9.43 4.365-20 6a18.5 18.5 0 0 1-6-.5 77.6 77.6 0 0 0 15-5q-7.293-1.034 0-3.5a4.93 4.93 0 0 0-.5-3q-.981 1.794-1.5 0 2.118-1.96 5-2.5-3.275-2.894 1-5.5-1.477-2.397-.5-5 1.597 2.844 2.5.5a14.8 14.8 0 0 0-3-5.5q1.543.306 3-1.5a3.94 3.94 0 0 1-1-2q3.226-15.291 4.5-31.5a75.5 75.5 0 0 0 6.5-16 171 171 0 0 0 0-13q.686-1.197 2-1"/>
  <path style="opacity:1" fill="#626262" d="M395.5 335.5a268 268 0 0 1-10 6.5 8.4 8.4 0 0 1-4 .5q6.287-4.753 14-7"/>
  <path style="opacity:1" fill="#818181" d="M399.5 341.5q-2.3 2.618-6 3 2.3-2.618 6-3"/>
  <path style="opacity:1" fill="#6d6d6c" d="M211.5 341.5q-3.614 9.917-10 18a3532 3532 0 0 1 8-17q.686-1.197 2-1"/>
  <path style="opacity:1" fill="#686868" d="M392.5 344.5q-.71 2.11-3 2 .71-2.11 3-2"/>
  <path style="opacity:1" fill="#b0b1b0" d="M389.5 346.5q-1.953 3.483-6 4 2.301-2.803 6-4"/>
  <path style="opacity:1" fill="#8a8b8b" d="M371.5 347.5a119 119 0 0 0-12 7.5 8.4 8.4 0 0 1-4 .5q7.057-5.53 16-8"/>
  <path style="opacity:1" fill="#717171" d="M180.5 271.5a44.4 44.4 0 0 0 2 10q-1.534 3.592 3 3 .948 5.55 1.5 11-1.24-2.858-3.5-1a39.4 39.4 0 0 0 5 5.5q-.105 1.147-1 1.5-1.5-.5-2-2-6.512-6.672-3 1.5-.48 2.48-3 3a4.93 4.93 0 0 0 3 .5q.1 2.188-1 4a97 97 0 0 1-6 12 186 186 0 0 1-7.5 30q-8.869 2.16-15.5 8.5a23.9 23.9 0 0 1-9 2.5v3h-3v3q.482 8.29-1 16v-11a113 113 0 0 1 .5-15q1.112-1.712 2.5 0a360 360 0 0 0 19-10.5q3.907-5.19 6-11.5 1.237-1.329 3-1 .556-14.033 5.5-27 .23-14.113 2.5-28-.084-3.21-2-5v-1q2.343-.35 4-2"/>
  <path style="opacity:1" fill="#939393" d="M185.5 299.5q-1.496-.045-2 1.5 1.525 3.71 0 7.5a4.93 4.93 0 0 1 3 .5 905 905 0 0 0-13.5 44.5 48 48 0 0 1-9.5 13.5q.686.621 1 1.5a82 82 0 0 1-7 2 3.65 3.65 0 0 1-1.5-1 18.5 18.5 0 0 0-.5 6q-6.004-.03-10 4a9.4 9.4 0 0 1-3-3 16.9 16.9 0 0 0-1 8 20.7 20.7 0 0 0-5 1q.71-2.11 3-2 1.482-7.71 1-16 5.88 4.287 10-2 16.62-6.238 22.5-23a262 262 0 0 1 8.5-34q1.1-1.812 1-4a4.93 4.93 0 0 1-3-.5q2.52-.52 3-3-3.512-8.172 3-1.5"/>
  <path style="opacity:1" fill="#969695" d="M243.5 342.5a23.9 23.9 0 0 1-2.5 9q-.747 3.067-3.5 4a117 117 0 0 1 6-13"/>
  <path style="opacity:1" fill="#080808" d="M362.5 326.5h3v15q-2.29-.11-3 2-3.297-.57-5 2-3.522.138-5 3-1.488-.258-2 1-3.297-.57-5 2-5.897.948-10 5-3.297.563-6 2h-3q.473-5.807-1-11-5.365-.533-9 3-2.855.444-5 2-13.902.732-6 12 1.792.549 2 2.5-1.963 3.037-5 4.5-11.323 2.268-21 8a5.73 5.73 0 0 1-3 1q-7.143 1.824-13 6-3.474.99-7 2-1.82-.37-2-2a5.6 5.6 0 0 0-1-3 31.1 31.1 0 0 0-11-1q.416-4.422-1-8.5 1.321-1.062 2-2.5 7.525-1.34 14-5 2.855-.444 5-2 5.033-.285 9-3 5.787-.405 10-4h1q4.346-.944 8-3 11.323-2.268 21-8a111 111 0 0 1 13-5 131 131 0 0 1 14-4.5q.834-.574 1-1.5a8.4 8.4 0 0 0 4-.5q2.896-1.353 5-3.5 5.735-3.375 12-5"/>
  <path style="opacity:.998" fill="#010101" d="M365.5 383.5v31h-26q-7.207-1.481-15-1 .5-4.5-4-4-.742-5.245-5.5-3a310 310 0 0 0-10.5-6l-1 2q-1.329-1.237-1-3a31.8 31.8 0 0 1-7-2.5q-5.74-4.357 0-9 8.85-4.178 18-7.5a39.8 39.8 0 0 1 7 8q1.556 2.145 2 5 1.063 1.356 3 1v-18q7.491-1.992 14-6.5 2.603-.977 5 .5.862-7.254 4-1-2.244 4.53 1.5 8 .613-8.748 9-11 .886-1.475-1-2-1.95 1.428-3.5 0a19.8 19.8 0 0 1 5.5-5l2 4a6.8 6.8 0 0 1 1.5-3q1 11.735 2 23"/>
  <path style="opacity:1" fill="#838383" d="M181.5 308.5a262 262 0 0 0-8.5 34q-5.88 16.762-22.5 23-4.12 6.287-10 2v-3h3v-3a23.9 23.9 0 0 0 9-2.5q6.631-6.34 15.5-8.5a186 186 0 0 0 7.5-30 97 97 0 0 0 6-12"/>
  <path style="opacity:1" fill="#bfc0c0" d="M189.5 326.5a32.1 32.1 0 0 1-4.5 11q-2.28 16.113 1.5 32-.703 10.782-4 21.5.276 2.064 2 2.5v1h-6q.466-9.537 3-18.5a14.4 14.4 0 0 0-1-5l2-16q-1.713-9.126-.5-18.5 2.626-4.128 2.5-9a20.7 20.7 0 0 0 5-1"/>
  <path style="opacity:1" fill="#565655" d="M201.5 359.5q.361 3.597-2 6v-2q.24-2.48 2-4"/>
  <path style="opacity:1" fill="#f2f3f2" d="M425.5 298.5h4q-.452 3.839 1 7 1.063 1.356 3 1 3.699-1.197 6-4 4.683-1.766 9-2 1.329 1.237 1 3a36 36 0 0 1-8 6q-2.29-.11-3 2a727 727 0 0 0-8 5h-1q-2.29-.11-3 2a77 77 0 0 0-13 7q-3.9 1.452-7 4-5.625 1.366-9 6h-2q-7.713 2.247-14 7a1725 1725 0 0 1-10 5q-8.943 2.47-16 8-4.134 2.556-9 4a129 129 0 0 0-12 6h-1q-3.522.138-5 3-5.461 1.96-11 4a102 102 0 0 0-15 6q-.512 1.258-2 1-4.569.337-7 4a194 194 0 0 1-18 7q-3.429.143-6 2a266 266 0 0 1-17 7q-2.855.444-5 2-8.123 1.04-15 5a43.4 43.4 0 0 0-7 3 161 161 0 0 0-17 4.5q-.834.574-1 1.5a61.7 61.7 0 0 1-14 5q-5.89.639-11 3-2.398-.401-4 1-7.56.526-14 4a35.9 35.9 0 0 0-10.5 2q-2.064-.276-2.5-2 13.375-3.436 25-10a46.7 46.7 0 0 0 8-3q3.978.135 7-2 3.597.361 6-2 6.428-1.143 12-4a5.73 5.73 0 0 1 3-1q1.494.129 2.5-1a100 100 0 0 0 4.5-13q2.11-.71 2-3 1.694-2.722 2-6 1.356-1.063 1-3-4.996-.723-8 3-6.603.64-12 4a56.4 56.4 0 0 1-14 4q-2.217.393-4-1 1.245-3.775 3-7 2.144-3.286 6-4 6.055-.848 11-4a54 54 0 0 1 8-2q10.843-1.476 19-8a28.8 28.8 0 0 0 3-8q-.257-1.488 1-2 2.753-.933 3.5-4a23.9 23.9 0 0 0 2.5-9 32.5 32.5 0 0 0 3-7 50 50 0 0 0 4-5.5q1.615-.705 3 .5 1.65 1.657 2 4 .016 2.276 2 3.5-2.184.634-1.5 2.5a52.6 52.6 0 0 1 6.5 5q1.694 2.722 2 6-7.356 1.949-14 5-4.274 2.13-2 6-.045 1.496 1.5 2a3953 3953 0 0 1 9-3q2.841.059 3 2 1.04-2.763 5.5-3.5 2.418-1.08 4.5.5 5.982-7.255 15-6 9.944-8.157 24-12 2.582.167.5 1.5-7.64 2.332 0 2.5l-19 8q-4.824-.232-8 3h-1q-5.473 1.15-10 4-5.124.042-9 3-3.297-.57-5 2-7.525 1.34-14 5-8.313 1.582-10 10-1.356 1.063-1 3h20q.5 1.5 2 2 .18 1.63 2 2 3.526-1.01 7-2 7.509-1.006 13-6a5.73 5.73 0 0 0 3-1q11.13-2.702 21-8 3.037-1.463 5-4.5-.208-1.951-2-2.5.156-3.885-2-7l1-2q3.774-1.245 7-3 2.145-1.556 5-2 4.245-.291 8-2v12q2.398.401 4-1 1 0 1-1 2.703-1.437 6-2 5.897-.948 10-5 3.297.57 5-2 .512-1.258 2-1 3.261-.375 5-3 3.297.57 5-2 .71-2.11 3-2 1-6.775 2-14a352 352 0 0 1 23-10q4.968.527 7-4a5.73 5.73 0 0 0 3-1q3.7-.382 6-3 7.447-1.216 12-7 4.569-.337 7-4"/>
  <path style="opacity:1" fill="#626262" d="M273.5 361.5q-3.967 2.715-9 3 3.876-2.958 9-3"/>
  <path style="opacity:1" fill="#a2a2a2" d="M250.5 356.5q-.016 2.276-2 3.5 4.08.067 8-1.5-3.441 2.832-8 4-2.274-3.87 2-6"/>
  <path style="opacity:1" fill="#575755" d="M311.5 352.5q-3.226 1.755-7 3l-1 2q2.156 3.115 2 7-7.902-11.268 6-12"/>
  <path style="opacity:1" fill="#444544" d="M283.5 357.5q-4.213 3.595-10 4 4.527-2.85 10-4"/>
  <path style="opacity:1" fill="#303030" d="m265.5 348.5 2 4-1 2h-1q-3.7.382-6 3-1.937-.356-3 1-3.92 1.567-8 1.5 1.984-1.224 2-3.5 6.644-3.051 14-5 1.356-1.063 1-3"/>
  <path style="opacity:1" fill="#686968" d="M292.5 354.5q-3.654 2.056-8 3 3.176-3.232 8-3"/>
  <path style="opacity:1" fill="#8e8e8e" d="M265.5 354.5q-2.3 2.618-6 3 2.3-2.618 6-3"/>
  <path style="opacity:1" fill="#9f9f9f" d="M345.5 351.5q-4.103 4.052-10 5 4.103-4.052 10-5"/>
  <path style="opacity:1" fill="#444443" d="M325.5 347.5q1.473 5.193 1 11h3q0 1-1 1h-3z"/>
  <path style="opacity:1" fill="#747475" d="M279.5 349.5a114 114 0 0 1-13 5l1-2a60.8 60.8 0 0 1 12-3"/>
  <path style="opacity:1" fill="#a7a7a6" d="M350.5 349.5q-1.703 2.57-5 2 1.703-2.57 5-2"/>
  <path style="opacity:1" fill="#3f3f3f" d="M311.5 346.5h2q-9.677 5.732-21 8z"/>
  <path style="opacity:1" fill="#9d9d9d" d="M262.5 345.5a6.55 6.55 0 0 1 3 3q.356 1.937-1 3-.306-3.278-2-6"/>
  <path style="opacity:1" fill="#a1a0a0" d="M325.5 347.5v12h3q-1.602 1.401-4 1v-12q-3.755 1.709-8 2 3.635-3.533 9-3"/>
  <path style="opacity:1" fill="#aaa" d="M287.5 346.5q-3.276 3.127-8 3 3.276-3.127 8-3"/>
  <path style="opacity:1" fill="#8e8e8e" d="M357.5 345.5q-1.739 2.625-5 3 1.478-2.862 5-3"/>
  <path style="opacity:1" fill="#adadad" d="M362.5 343.5q-1.703 2.57-5 2 1.703-2.57 5-2"/>
  <path style="opacity:1" fill="#535353" d="M294.5 340.5q1.356 1.063 1 3-3.278.306-6 2a53 53 0 0 1 5-5"/>
  <path style="opacity:1" fill="#c1c2c1" d="M255.5 334.5q5.265 4.287 7 11a52.6 52.6 0 0 0-6.5-5q-.684-1.866 1.5-2.5-1.984-1.224-2-3.5"/>
  <path style="opacity:1" fill="#676768" d="M341.5 335.5q-.166.926-1 1.5a131 131 0 0 0-14 4.5q6.633-4.72 15-6"/>
  <path style="opacity:1" fill="#515252" d="M348.5 331.5h2q-2.104 2.147-5 3.5a8.4 8.4 0 0 1-4 .5z"/>
  <path style="opacity:1" fill="#acacac" d="M439.5 302.5q-2.301 2.803-6 4v-1q2.574-2.287 6-3"/>
  <path style="opacity:1" fill="#767776" d="M346.5 359.5q-4.852 4.971-12 6a129 129 0 0 1 12-6"/>
  <path style="opacity:1" fill="#161514" d="M236.5 357.5a28.8 28.8 0 0 1-3 8 227 227 0 0 0-16 6q-6.311.265-11 4a52 52 0 0 0-7 1 2.43 2.43 0 0 1-2-.5q2.091-1.434 2-4-1.808-3.31 0-6.5 2.361-2.403 2-6 6.386-8.083 10-18-.514-2.975 2-4h1q1.243 1.248 2.5-1-.08 3.654.5 7 2.86-3.39 6-.5-1.752 2.108 1 3.5a605 605 0 0 1-3 3.5q-1.428 1.95 0 3.5 2.532-2.294 4-5.5a12.5 12.5 0 0 1 7 0 14.3 14.3 0 0 0-6.5 2.5q-1.881 5.417 3.5 4.5l5-4.5q1.817 3.511-1 6.5a4.93 4.93 0 0 0 3 .5"/>
  <path style="opacity:1" fill="#747576" d="M264.5 364.5q-2.145 1.556-5 2 1.703-2.57 5-2"/>
  <path style="opacity:1" fill="#777" d="M333.5 365.5q-1.739 2.625-5 3 1.478-2.862 5-3"/>
  <path style="opacity:1" fill="#535353" d="M259.5 366.5q-6.475 3.66-14 5 6.475-3.66 14-5"/>
  <path style="opacity:1" fill="#c6c6c5" d="M233.5 365.5q-8.157 6.524-19 8l3-2a227 227 0 0 1 16-6"/>
  <path style="opacity:1" fill="#484847" d="M199.5 365.5q-1.808 3.19 0 6.5.091 2.566-2 4a2.43 2.43 0 0 0 2 .5q-1.92 2.147-5 2v-3q1.956-5.428 5-10"/>
  <path style="opacity:1" fill="#acabac" d="M317.5 372.5q-6.537 5.005-15 6a102 102 0 0 1 15-6"/>
  <path style="opacity:1" fill="#6d6d6c" d="m217.5 371.5-3 2a54 54 0 0 0-8 2q4.689-3.735 11-4"/>
  <path style="opacity:1" fill="#9b9b9b" d="M302.5 371.5q-9.87 5.298-21 8 9.677-5.732 21-8"/>
  <path style="opacity:1" fill="#a8a8a8" d="M185.5 299.5q.5 1.5 2 2 1.1 1.812 1 4-1.314-.197-2 1a171 171 0 0 1 0 13 75.5 75.5 0 0 1-6.5 16q-1.274 16.209-4.5 31.5a3.94 3.94 0 0 0 1 2q-1.457 1.806-3 1.5a14.8 14.8 0 0 1 3 5.5q-.903 2.344-2.5-.5-.977 2.603.5 5-4.275 2.606-1 5.5-2.882.54-5 2.5.519 1.794 1.5 0 .724 1.422.5 3-7.293 2.466 0 3.5a77.6 77.6 0 0 1-15 5q2.96.743 6 .5-7.707 2.146-16 3 1.647-1.345 0-2.5 5.298-4.942 3-11.5h-3a8.4 8.4 0 0 0-.5-4q-2.634 2.228-3.5-1a16.9 16.9 0 0 1 1-8 9.4 9.4 0 0 0 3 3q3.996-4.03 10-4a18.5 18.5 0 0 1 .5-6q.621.686 1.5 1a82 82 0 0 0 7-2 3.65 3.65 0 0 0-1-1.5 48 48 0 0 0 9.5-13.5 905 905 0 0 1 13.5-44.5 4.93 4.93 0 0 0-3-.5q1.525-3.79 0-7.5.504-1.545 2-1.5"/>
  <path style="opacity:1" fill="#202020" d="M245.5 371.5q-.679 1.438-2 2.5 1.416 4.078 1 8.5a31.1 31.1 0 0 1 11 1 5.6 5.6 0 0 1 1 3q-1.5-.5-2-2-9.848-.526-19-3 1.687-8.418 10-10"/>
  <path style="opacity:1" fill="#a3a3a2" d="M194.5 375.5v3q3.08.147 5-2a52 52 0 0 1 7-1q-4.945 3.152-11 4-1.63-.18-2-2 .064-1.374 1-2"/>
  <path style="opacity:1" fill="#676664" d="M324.5 391.5q-1.477-6.202-1-13h-4q1.711-1.259 4-2a57.2 57.2 0 0 1 1 15"/>
  <path style="opacity:1" fill="#a4a4a5" d="M300.5 379.5q-2.754 3.132-7 4 2.431-3.663 7-4"/>
  <path style="opacity:1" fill="#868687" d="M223.5 383.5q.045-1.496-1.5-2-2.35 2.034-5.5 2 3.004-3.723 8-3 .356 1.937-1 3"/>
  <path style="opacity:1" fill="#939292" d="M235.5 381.5q9.152 2.474 19 3h-20q-.356-1.937 1-3"/>
  <path style="opacity:1" fill="#b4b4b4" d="M141.5 384.5q.866 3.228 3.5 1a8.4 8.4 0 0 1 .5 4h3q2.298 6.558-3 11.5 1.647 1.155 0 2.5-13.01.25-26-.5-1.116-1.558-3-1.5a18.5 18.5 0 0 1 .5-6 86 86 0 0 1 4.5-4q5.68-2.076 11-5.5a8.4 8.4 0 0 1 4-.5 20.7 20.7 0 0 1 5-1"/>
  <path style="opacity:1" fill="#ababab" d="M278.5 380.5q-5.491 4.994-13 6 5.857-4.176 13-6"/>
  <path style="opacity:1" fill="#d1d1d0" d="M319.5 378.5h4q-.477 6.798 1 13 0 2-2 2-.444-2.855-2-5a20.7 20.7 0 0 0-3-7.5q.833-1.516 2-2.5"/>
  <path style="opacity:1" fill="#535454" d="M204.5 387.5q-6.003 4.768-14 5v-1a56.4 56.4 0 0 0 14-4"/>
  <path style="opacity:1" fill="#848383" d="M221.5 389.5q.11 2.29-2 3-.11-2.29 2-3"/>
  <path style="opacity:1" fill="#858584" d="M275.5 390.5q-2.403 2.361-6 2 2.571-1.857 6-2"/>
  <path style="opacity:1" fill="#161414" d="M223.5 383.5q-.306 3.278-2 6-2.11.71-2 3-3.493 6.96-7 14a5.73 5.73 0 0 0-3 1 66 66 0 0 0-11 2.5q-.834.574-1 1.5-3.597-.361-6 2-3.978-.135-7 2a29.1 29.1 0 0 1-9 .5q1.32-2.034 1-4.5 2.618-2.3 3-6a24.6 24.6 0 0 0 3-6 26.3 26.3 0 0 0 2-5v-1l6-1q7.997-.232 14-5 5.397-3.36 12-4 3.15.034 5.5-2 1.545.504 1.5 2"/>
  <path style="opacity:1" fill="#6c6b6c" d="M324.5 391.5h1v3q-1.937.356-3-1 2 0 2-2"/>
  <path style="opacity:1" fill="#868686" d="M121.5 391.5a86 86 0 0 0-4.5 4 18.5 18.5 0 0 0-.5 6 71 71 0 0 1-2-4q-2.49 1.008-4 3 .257-1.488-1-2 5.052-5.03 12-7"/>
  <path style="opacity:1" fill="#646565" d="M269.5 392.5q-7.236 6.091-17 7a266 266 0 0 0 17-7"/>
  <path style="opacity:1" fill="#777776" d="M219.5 392.5a100 100 0 0 1-4.5 13q-1.006 1.129-2.5 1 3.507-7.04 7-14"/>
  <path style="opacity:1" fill="#505150" d="M181.5 394.5h3a26.3 26.3 0 0 1-2 5q.329-1.763-1-3-6.786 4.763-15 6a78 78 0 0 1-12 2.5q-2.428.354-3 2.5h-1v-3h-5v-1q8.293-.854 16-3 10.57-1.635 20-6"/>
  <path style="opacity:1" fill="#b3b3b3" d="M182.5 399.5a24.6 24.6 0 0 1-3 6q-2.618 2.3-3 6l-2 2a2.43 2.43 0 0 0-.5-2q-1.782 1.595-1.5 4-9.5-.075-16.5 6-1.418-.608-2-2-.297 2.822-1.5 5-.531-6.206 1.5-12l1 1a39 39 0 0 1 10.5-6.5q1.32-2.034 1-4.5 8.214-1.237 15-6 1.329 1.237 1 3"/>
  <path style="opacity:.855" fill="#171717" d="M293.5 383.5q-.679 1.438-2 2.5l1 1q-4.903-2.026-7 3 2.21 1.064 2 3.5-1.937-.356-3 1a117.5 117.5 0 0 1-23 8v5l-2 45v-48a18.5 18.5 0 0 0-6 .5 349 349 0 0 1-13 5.5q-2.398-.401-4 1a128 128 0 0 0-17 6 278 278 0 0 1-33 10.5q-.834.574-1 1.5-6.35.71-12 3a19.2 19.2 0 0 0-6 1q-2.296-3.782-7-3l4-2q7.395-1.138 14-4 1.602-1.401 4-1 6.237.57 11-3a61.7 61.7 0 0 0 14-5q9.457-2.103 18-6a43.4 43.4 0 0 1 7-3q8.04-1.29 15-5 2.145-1.556 5-2 9.764-.909 17-7 3.597.361 6-2a194 194 0 0 0 18-7"/>
  <path style="opacity:1" fill="#c1c2c1" d="M109.5 398.5q1.257.512 1 2-3 2-5 5-3.13 1.627-4 5h-1q.322-2.518-2-3a37.4 37.4 0 0 1 11-9"/>
  <path style="opacity:1" fill="#7b7b7b" d="M116.5 401.5q1.884-.058 3 1.5 12.99.75 26 .5v1a111.2 111.2 0 0 1-25 .5q-2.736-.99-4-3.5"/>
  <path style="opacity:1" fill="#959594" d="M166.5 402.5q.32 2.466-1 4.5a39 39 0 0 0-10.5 6.5l-1-1q-2.031 5.794-1.5 12h-1v-17q.572-2.146 3-2.5a78 78 0 0 0 12-2.5"/>
  <path style="opacity:1" fill="#959696" d="M247.5 401.5q-6.96 3.71-15 5 6.877-3.96 15-5"/>
  <path style="opacity:1" fill="#b5b5b4" d="m259.5 452.5-1 2h-1v-4q.25-22.506-.5-45-5.408.804-9.5 4a52 52 0 0 1-7 1 349 349 0 0 0 13-5.5 18.5 18.5 0 0 1 6-.5z"/>
  <path style="opacity:.933" fill="#474748" d="M105.5 405.5q-.87 3.373-4 5 .87-3.373 4-5"/>
  <path style="opacity:1" fill="#666565" d="M179.5 405.5q-.382 3.7-3 6 .382-3.7 3-6"/>
  <path style="opacity:1" fill="#fafafa" d="M257.5 450.5q-2.464-.03-4 2a3.65 3.65 0 0 1-1.5-1q-2.235 3.087-6 4a846 846 0 0 0-52 0q-6.042-3.127-.5-2a7.25 7.25 0 0 0 2.5-2q1.665 2.305 4.5 2v-3q3.138-.091 4.5-3a29.5 29.5 0 0 1 .5-11q10.721-.56 11-11a192.4 192.4 0 0 1 29-10.5 22.8 22.8 0 0 0 5-4q-1.856-.348-3-1.5 4.092-3.196 9.5-4 .75 22.494.5 45"/>
  <path style="opacity:1" fill="#444443" d="M369.5 356.5a10.5 10.5 0 0 1-2.5 3q-.75 27.995-.5 56h-53q12.726-1.49 26-1h26v-31q-.25-12.51.5-25 1.224-1.984 3.5-2"/>
  <path style="opacity:1" fill="#a7a6a6" d="M313.5 415.5h53v1h-51v3q-2.406-1.18-2-4"/>
  <path style="opacity:.012" fill="#151515" d="M116.5 401.5q1.264 2.51 4 3.5 12.573 1.16 25-.5h5v3q.426 2.872-1 5v-6q-10.197.343-20 1a145 145 0 0 1-13-2q-1.623-3.425-5-3.5-9.538 9.02-15.5 20.5-1.133 4.495 2.5 7.5 11.511.606 23-.5l-4 2a124 124 0 0 1-21 1q-2.276-.016-3.5-2-1.32-5.966 1.5-11 2.74-2.47 4-6 .648-1.815 2-3h1q3.13-1.627 4-5 2-3 5-5 1.51-1.992 4-3a71 71 0 0 0 2 4"/>
  <path style="opacity:1" fill="#e8e8e8" d="M366.5 416.5a1096 1096 0 0 1-47 1.5 251 251 0 0 1 12 18q-1.884.625-2 2.5a96.8 96.8 0 0 1-14-19v-3z"/>
  <path style="opacity:1" fill="#5b5a5b" d="M430.5 418.5q-1.645 7.154-8 11 4.054-5.54 8-11"/>
  <path style="opacity:.53" fill="#0d0d0d" d="M137.5 372.5h2v11q-2.29-.11-3 2a8.4 8.4 0 0 0-4 .5q-5.32 3.424-11 5.5-6.948 1.97-12 7a37.4 37.4 0 0 0-11 9q-6.192 4.185-9 11-3.798 3.275-5 8-1.7 3.7-.5 8 .575.834 1.5 1a6.54 6.54 0 0 0 3 3q1.144 1.152 3 1.5 11.767 1.233 23-.5h4q5.83-.22 11-2 15.45-3.69 31-7 4.704-.782 7 3-1.064 1.356-3 1-.356 1.937 1 3 7.5 6.5 14 14a6.55 6.55 0 0 0 3 3q1.627 3.13 5 4 .5 1.5 2 2a602 602 0 0 0 60 .5 42.6 42.6 0 0 0 8-3.5q1.329-1.237 1-3l1-2 2-45a62 62 0 0 0 1 8.5q-1.155 20.226-1.5 40.5-5.127 5.223-12.5 6.5-25.28.303-50.5 1.5a152 152 0 0 0-11.5-1.5L163 439.5a4.93 4.93 0 0 1-.5-3 163 163 0 0 0-18 .5q-27.551 8.029-56 5-9.984-6.96-5.5-18.5 9.6-16.1 24.5-27.5a203 203 0 0 1 29-13.5q-.38-4.936 1-10"/>
  <path style="opacity:1" fill="#8c8b8a" d="M173.5 432.5q-4.469 1.962-8 5-1.356-1.063-1-3 1.936.356 3-1a19.2 19.2 0 0 1 6-1"/>
  <path style="opacity:1" fill="#616161" d="M151.5 424.5v2q-19.584 12.37-42 7h-12q-1 0-1-1a124 124 0 0 0 21-1q18.08 1.085 34-7"/>
  <path style="opacity:1" fill="#a1a1a1" d="M151.5 426.5v2q.436 1.724 2.5 2a35.9 35.9 0 0 1 10.5-2l-4 2q-15.55 3.31-31 7h-4q-5.718-1.236-12-1.5a51 51 0 0 0-4-2.5q22.416 5.37 42-7"/>
  <path style="opacity:1" fill="#626262" d="M84.5 426.5q-.198 4.605 1 9-.925-.166-1.5-1-1.2-4.3.5-8"/>
  <path style="opacity:.897" fill="#383839" d="M150.5 407.5h1v17q-15.92 8.085-34 7l4-2q13.286-.313 26-5.5 2.685-5.374 2-11.5 1.426-2.128 1-5"/>
  <path style="opacity:1" fill="#949495" d="M178.5 424.5q-6.605 2.862-14 4 6.44-3.474 14-4"/>
  <path style="opacity:1" fill="#a9a9a9" d="M219.5 417.5q-2.104 2.147-5 3.5a263 263 0 0 1-29 8.5q.166-.926 1-1.5a278 278 0 0 0 33-10.5"/>
  <path style="opacity:1" fill="#414142" d="M193.5 420.5q-4.763 3.57-11 3 5.11-2.361 11-3"/>
  <path style="opacity:1" fill="#cbcbcb" d="M174.5 413.5a20.7 20.7 0 0 0-1 5h3q-11.625 6.564-25 10v-4h1q1.203-2.178 1.5-5 .582 1.392 2 2 7-6.075 16.5-6-.282-2.405 1.5-4 .696.891.5 2"/>
  <path style="opacity:1" fill="#ededed" d="M98.5 407.5q2.322.482 2 3-1.352 1.185-2 3-3.483 1.953-4 6-2.82 5.034-1.5 11 1.224 1.984 3.5 2 0 1 1 1 4.18 1.465 9 1v3q-2.843 1.695-14 1h-4a6.54 6.54 0 0 1-3-3 29.2 29.2 0 0 1-1-9q1.203-4.725 5-8a71 71 0 0 0 9-11"/>
  <path style="opacity:1" fill="#5f5f5f" d="M176.5 411.5q.32 2.466-1 4.5a29.1 29.1 0 0 0 9-.5 46.7 46.7 0 0 1-8 3h-3a20.7 20.7 0 0 1 1-5z"/>
  <path style="opacity:1" fill="#727272" d="M98.5 413.5q-1.26 3.53-4 6 .517-4.047 4-6"/>
  <path style="opacity:1" fill="gray" d="M236.5 411.5q-7.7 4.737-17 6 8.205-3.57 17-6"/>
  <path style="opacity:1" fill="#8d8c8b" d="M191.5 413.5q-3.022 2.135-7 2 3.022-2.135 7-2"/>
  <path style="opacity:1" fill="#9a9b9b" d="M225.5 409.5q-8.543 3.897-18 6 .166-.926 1-1.5a161 161 0 0 1 17-4.5"/>
  <path style="opacity:1" fill="#9f9f9f" d="M197.5 411.5q-2.403 2.361-6 2 2.403-2.361 6-2"/>
  <path style="opacity:1" fill="#f4f4f4" d="M247.5 409.5q1.144 1.152 3 1.5a22.8 22.8 0 0 1-5 4 192.4 192.4 0 0 0-29 10.5q-.279 10.44-11 11a29.5 29.5 0 0 0-.5 11q-1.362 2.909-4.5 3v3q-2.835.305-4.5-2a7.25 7.25 0 0 1-2.5 2q-5.542-1.127.5 2a846 846 0 0 1 52 0q3.765-.913 6-4 .621.686 1.5 1 1.536-2.03 4-2v4q-3.762 3.635-9 5a963 963 0 0 1-61-1q-1.155-3.653-5-4 0-3-3-3-6.5-7.5-14-14 3.531-3.038 8-5 5.65-2.29 12-3a263 263 0 0 0 29-8.5q2.896-1.353 5-3.5 9.3-1.263 17-6 1.602-1.401 4-1a52 52 0 0 0 7-1"/>
  <path style="opacity:1" fill="#989999" d="M98.5 407.5a71 71 0 0 1-9 11q2.808-6.815 9-11"/>
  <path style="opacity:1" fill="#8b8b89" d="M209.5 407.5q-5.572 2.857-12 4 .166-.926 1-1.5a66 66 0 0 1 11-2.5"/>
  <path style="opacity:.015" d="M140.5 407.5q1.763-.329 3 1-2.328 1.947-3-1"/>
  <path style="opacity:1" fill="#5c5b5b" d="M417.5 434.5q-1.885 4.391-6 7 1.885-4.391 6-7"/>
  <path style="opacity:.01" d="M77.5 438.5q1.538.595.5 2a2.43 2.43 0 0 1-.5-2"/>
  <path style="opacity:1" fill="#cdcdcc" d="M97.5 433.5h12a51 51 0 0 1 4 2.5q6.282.264 12 1.5-3.978-.135-7 2h-4q-11.278.488-22-1 11.157.695 14-1v-3q-4.82.465-9-1"/>
  <path style="opacity:1" fill="#505050" d="M125.5 437.5h4q-5.17 1.78-11 2 3.022-2.135 7-2"/>
  <path style="opacity:1" fill="#747475" d="M88.5 438.5h4q10.722 1.488 22 1-11.233 1.733-23 .5-1.856-.348-3-1.5"/>
  <path style="opacity:1" fill="#dedfde" d="M332.5 443.5a76 76 0 0 0 7 3q2.658 4.59 7 7.5-3.653.112-2 2.5h-1q-7.056-5.066-11-13"/>
  <path style="opacity:1" fill="#4e4d4d" d="M410.5 442.5q-2.28 4.932-7 8 2.39-4.896 7-8"/>
  <path style="opacity:1" fill="#eee" d="M430.5 416.5v2q-3.946 5.46-8 11-3 2-5 5-4.115 2.609-6 7-1 0-1 1-4.61 3.104-7 8-4.575 3.074-7 8-1.488-.258-2 1-22.506.25-45-.5-1.856-.348-3-1.5a290 290 0 0 0 47 0q1.712-1.388 0-2.5a119387 119387 0 0 0 32-36 2038 2038 0 0 0 1-89.5 77 77 0 0 0-11 3q2.754-3.132 7-4a54 54 0 0 1 8-2z"/>
  <path style="opacity:1" fill="#8d8d8c" d="M179.5 451.5q3 0 3 3a6.55 6.55 0 0 1-3-3"/>
  <path style="opacity:1" fill="#575756" d="m403.5 450.5-4 7a5.73 5.73 0 0 1-3 1q2.425-4.926 7-8"/>
  <path style="opacity:1" fill="#9e9d9d" d="M182.5 454.5q3.845.347 5 4-3.373-.87-5-4"/>
  <path style="opacity:.018" d="M167.5 457.5q1.91.865 0 2-1.445-.705 0-2"/>
  <path style="opacity:1" fill="#a1a1a0" d="M187.5 458.5a963 963 0 0 0 61 1 871 871 0 0 1-59 1q-1.5-.5-2-2"/>
  <path style="opacity:1" fill="#908f8f" d="M343.5 456.5h1l2 1q1.144 1.152 3 1.5 22.494.75 45 .5-23.242 1.742-47 .5-2.736-.99-4-3.5"/>
  <path style="opacity:1" fill="#373636" d="M257.5 454.5h1q.329 1.763-1 3a42.6 42.6 0 0 1-8 3.5 602 602 0 0 1-60-.5q29.76.495 59-1 5.238-1.365 9-5"/>
  <path style="opacity:.004" d="M384.5 467.5q2 1 0 0"/>
</svg>
